<svg width="376" height="813" viewBox="0 0 376 813" fill="none" xmlns="http://www.w3.org/2000/svg">
<path d="M-12.7955 563.576C-64.5787 634.588 -34.0061 583.187 -95.4184 673.967C-156.831 764.748 -68.9949 836.603 -12.7956 863.95C143.943 940.221 185.442 811.948 281.148 956.941C376.853 1101.93 451.742 718.747 434.342 701.939C406.035 638.739 95.8446 414.593 -12.7955 563.576Z" fill="#F9DAC4" fill-opacity="0.5"/>
<path d="M257.075 47.3738C394.716 38.0213 423.529 -66.7738 420.73 -118.002L-82.1694 -79.7764C-89.6069 1.14551 -81.3944 157.977 10.9558 137.926C126.394 112.863 85.0243 59.0644 257.075 47.3738Z" fill="#F5EAAF" fill-opacity="0.5"/>
<path d="M123.093 41.316C123.093 -24.3146 154.345 -62.8594 169.972 -73.9279C254.94 -86.6243 430.541 -84.671 453.199 24.7131C481.521 161.443 352.604 157.537 293.029 136.051C233.454 114.564 123.093 123.354 123.093 41.316Z" fill="#F9DAC4" fill-opacity="0.5"/>
</svg>
