<svg width="375" height="813" viewBox="0 0 375 813" fill="none" xmlns="http://www.w3.org/2000/svg">
<path d="M228.116 783.542C228.116 717.912 196.863 679.367 181.237 668.298C96.2691 655.602 -79.3316 657.555 -101.99 766.939C-130.312 903.67 -1.39529 899.763 58.18 878.277C117.755 856.791 228.116 865.581 228.116 783.542Z" fill="#F9DAC4" fill-opacity="0.3"/>
<path d="M468.646 38.55C380.939 44.1811 377.567 -69.8562 268.507 -58.9793C159.446 -48.1024 116.761 50.4534 131.697 111.142C173.351 280.403 298.488 230.235 248.278 396.553C198.067 562.87 484.898 422.768 486.684 398.642C517.149 336.453 652.654 26.7361 468.646 38.55Z" fill="#F9DAC4" fill-opacity="0.3"/>
<g filter="url(#filter0_d)">
<path d="M187.287 431.592L506.297 611.931L326.57 711.167L7.55944 530.827L187.287 431.592Z" fill="#C2F7FF"/>
<path d="M506.245 636.383L506.245 611.781L326.607 710.967L326.607 735.57L506.245 636.383Z" fill="#A6E2F8"/>
<path d="M7.75464 555.319L326.607 735.57L326.607 710.967L7.75455 530.717L7.75464 555.319Z" fill="#A6E2F8"/>
<path d="M93.8964 597.327L157.64 633.362L157.64 623.482L93.8964 587.447L93.8964 597.327Z" fill="#C2F7FF"/>
<path d="M62.5106 579.225L89.3097 594.375L89.3098 584.495L62.5106 569.345L62.5106 579.225Z" fill="#C2F7FF"/>
<path d="M331.593 461.501C297.604 461.501 289.997 425.039 291.095 378.629H215.161C215.161 378.629 216.607 461.501 186.234 461.501C155.86 461.501 176.109 536.385 121.147 536.385C66.1857 536.385 166.075 576.715 166.075 576.715L492.863 599.288C492.863 599.288 465.382 538.382 414.036 536.385C362.69 534.388 365.583 461.501 331.593 461.501Z" fill="#42DFFE"/>
<path d="M320.116 504.01C267.355 490.998 279.167 382.568 279.167 382.568L224.562 382.568C224.562 382.568 250.03 445.458 219.319 450.879C188.607 456.301 230.343 521.358 177.582 528.948C124.821 536.539 144.426 582.669 144.426 582.669L442.963 610.271C442.963 610.271 438.238 564.73 398.864 558.224C359.49 551.719 372.877 517.021 320.116 504.01Z" fill="#FFBC01"/>
<path d="M267.953 444.527C250.191 435.541 259.275 395.603 259.275 395.603H249.151C249.151 395.603 255.659 506.431 236.133 505.433C216.608 504.434 216.608 548.366 189.127 550.363C161.646 552.36 156.874 594.034 156.874 594.034L395.956 610.271C395.956 610.271 358.351 572.329 325.808 572.329C293.265 572.329 309.898 519.411 284.586 519.411C259.275 519.411 285.715 453.513 267.953 444.527Z" fill="#FFE083"/>
<mask id="mask0" mask-type="alpha" maskUnits="userSpaceOnUse" x="38" y="401" width="443" height="342">
<path d="M194.47 447.992L480.572 609.781L324.127 696.162L38.0243 534.373L194.47 447.992Z" fill="#37464D"/>
</mask>
<g mask="url(#mask0)">
<path d="M187.287 443.498L506.297 623.838L326.57 723.074L7.55944 542.734L187.287 443.498Z" fill="#37464D"/>
<path d="M331.593 461.501C297.604 461.501 289.997 425.039 291.095 378.629H215.161C215.161 378.629 216.608 461.501 186.234 461.501C155.86 461.501 176.109 536.385 121.148 536.385C66.1859 536.385 23.1934 599.288 23.1934 599.288H492.863C492.863 599.288 465.382 538.382 414.036 536.385C362.69 534.388 365.583 461.501 331.593 461.501Z" fill="#42DFFE"/>
<path d="M320.116 504.01C267.355 490.998 279.167 382.568 279.167 382.568L224.562 382.568C224.562 382.568 250.03 445.458 219.319 450.879C188.607 456.301 230.343 521.358 177.582 528.948C124.821 536.539 64.8672 610.271 64.8672 610.271H442.963C442.963 610.271 438.238 564.73 398.864 558.224C359.49 551.719 372.877 517.021 320.116 504.01Z" fill="#FFBC01"/>
<path d="M267.953 444.527C250.191 435.541 259.275 395.603 259.275 395.603H249.151C249.151 395.603 255.659 506.431 236.134 505.433C216.608 504.434 216.608 548.366 189.127 550.363C161.646 552.36 147.182 610.271 147.182 610.271L357.233 716.654L395.956 610.271C395.956 610.271 358.351 572.329 325.808 572.329C293.265 572.329 309.898 519.411 284.587 519.411C259.275 519.411 285.716 453.513 267.953 444.527Z" fill="#FFE083"/>
</g>
<path d="M301.598 357.812H207.645C199.348 373.255 197.172 381.959 196.804 397.562C196.804 397.562 216.679 415.63 254.621 415.63C292.564 415.63 312.439 397.562 312.439 397.562C311.507 382.035 310.175 373.33 301.598 357.812Z" fill="#FADAC5"/>
<path d="M316.568 229.836V327.603C316.568 327.603 354.078 343.898 361.024 333.94C367.971 323.982 336.078 227.321 316.568 229.836Z" fill="#42DFFE"/>
<path d="M192.674 229.836V327.603C192.674 327.603 155.164 343.898 148.218 333.94C141.272 323.982 173.165 227.321 192.674 229.836Z" fill="#42DFFE"/>
<path d="M323.108 175.552C269.798 163.592 240.782 163.683 190.521 177.147L190.385 178.347V366.733C225.771 380.139 288.576 380.669 323.471 366.733V178.348L323.108 175.552Z" fill="white"/>
<g clip-path="url(#clip0)">
<path d="M254.917 227.343V211.572C282.14 211.572 304.208 233.64 304.208 260.863H288.437C289.266 259.403 289.74 257.707 289.74 255.899C289.74 250.415 285.379 245.97 280 245.97C274.62 245.97 270.259 250.415 270.259 255.899C270.259 257.707 270.733 259.403 271.562 260.863H254.917V244.219C253.484 245.064 251.727 245.521 249.952 245.521C244.573 245.521 240.024 241.264 240.024 235.78C240.024 230.297 244.573 226.04 249.952 226.04C251.727 226.04 253.484 226.498 254.917 227.343Z" fill="#42DFFE" stroke="white" stroke-width="2.43672" stroke-linejoin="round"/>
<path d="M220.751 260.863H205.626C205.626 233.64 227.694 211.572 254.917 211.572V227.343C253.457 226.514 251.761 226.04 249.953 226.04C244.469 226.04 240.024 230.401 240.024 235.781C240.024 241.16 244.469 245.522 249.953 245.522C251.761 245.522 253.457 245.047 254.917 244.218V260.863H237.951C238.796 262.296 239.28 263.959 239.28 265.734C239.28 271.113 234.834 275.475 229.351 275.475C223.867 275.475 219.422 271.113 219.422 265.734C219.422 263.959 219.906 262.296 220.751 260.863Z" fill="#FFBC01" stroke="white" stroke-width="2.43672" stroke-linejoin="round"/>
<path d="M288.437 260.863H304.208C304.208 288.086 282.14 310.155 254.917 310.155V294.384C256.378 295.212 258.073 295.687 259.881 295.687C265.365 295.687 269.81 291.325 269.81 285.946C269.81 280.566 265.365 276.205 259.881 276.205C258.073 276.205 256.378 276.679 254.917 277.508V260.863H271.562C270.717 259.43 270.259 257.673 270.259 255.898C270.259 250.519 274.516 245.97 280 245.97C285.483 245.97 289.741 250.519 289.741 255.898C289.741 257.673 289.282 259.43 288.437 260.863Z" fill="#FADAC5" stroke="white" stroke-width="2.43672" stroke-linejoin="round"/>
<path d="M254.917 295.03V310.155C227.694 310.155 205.626 288.086 205.626 260.863H221.397C220.568 262.323 220.094 264.019 220.094 265.827C220.094 271.311 224.455 275.756 229.835 275.756C235.214 275.756 239.575 271.311 239.575 265.827C239.575 264.019 239.101 262.323 238.272 260.863H254.917V277.829C256.35 276.984 258.013 276.501 259.788 276.501C265.167 276.501 269.528 280.946 269.528 286.429C269.528 291.913 265.167 296.358 259.788 296.358C258.013 296.358 256.35 295.874 254.917 295.03Z" fill="#FFE083" stroke="white" stroke-width="2.43672" stroke-linejoin="round"/>
<path d="M303.599 260.863C303.599 287.75 281.803 309.545 254.917 309.545C228.031 309.545 206.235 287.75 206.235 260.863C206.235 233.977 228.031 212.181 254.917 212.181C281.803 212.181 303.599 233.977 303.599 260.863Z" stroke="white" stroke-width="1.21836"/>
</g>
<path d="M323.471 175.52C263.799 162.993 241.817 163.975 190.868 177.083C199.394 123.825 219.027 70.1318 257.42 70.1318C294.485 72.0225 314.827 119.568 323.471 175.52Z" fill="#FFBC01"/>
<g filter="url(#filter1_d)">
<circle cx="285.513" cy="601.267" r="24.9271" transform="rotate(-17.604 285.513 601.267)" fill="white"/>
<path d="M285.424 587.549C285.641 587.445 285.826 587.45 286.077 587.451C287.015 587.46 287.719 588.23 287.741 589.158C287.757 590.071 287.741 594.234 288.009 595.048C288.271 595.846 289.634 596.183 290.538 595.885L295.058 594.398C295.962 594.1 296.763 594.505 297.061 595.409C297.358 596.313 297.518 606.947 297.518 606.947C297.455 607.619 297.185 608.726 296.507 608.949L282.736 613.481L278.274 599.921L281.498 598.86C281.913 598.039 284.135 590.127 284.28 589.145C284.393 588.423 284.847 587.823 285.424 587.549V587.549ZM272.247 601.904L275.261 600.912L279.723 614.472L276.709 615.464L272.247 601.904Z" fill="#7ED1EF"/>
</g>
<g filter="url(#filter2_d)">
<circle cx="326.655" cy="422.306" r="14.8195" transform="rotate(43.026 326.655 422.306)" fill="white"/>
<path d="M333.737 418.26C333.854 418.341 333.905 418.439 333.978 418.569C334.247 419.058 334.053 419.647 333.579 419.929C333.11 420.203 330.949 421.409 330.605 421.785C330.268 422.154 330.491 422.958 330.909 423.34L332.998 425.248C333.415 425.63 333.439 426.162 333.058 426.58C332.676 426.998 327.213 430.181 327.213 430.181C326.847 430.345 326.194 430.527 325.881 430.241L319.518 424.428L325.242 418.162L326.732 419.523C327.278 419.499 332.025 418.343 332.576 418.132C332.983 417.98 333.427 418.04 333.737 418.26V418.26ZM322.458 415.618L323.85 416.89L318.125 423.156L316.733 421.883L322.458 415.618Z" fill="#7ED1EF"/>
</g>
<g filter="url(#filter3_d)">
<circle cx="95.1831" cy="450.619" r="13.6769" transform="rotate(-33.4512 95.1831 450.619)" fill="white"/>
<path d="M93.0808 443.391C93.1792 443.304 93.278 443.279 93.4105 443.242C93.9069 443.106 94.394 443.407 94.5443 443.894C94.6899 444.373 95.3051 446.573 95.5683 446.962C95.8266 447.344 96.5964 447.317 97.029 447.025L99.1919 445.563C99.6245 445.27 100.108 445.364 100.4 445.796C100.693 446.229 102.37 451.818 102.37 451.818C102.438 452.182 102.461 452.807 102.137 453.026L95.547 457.481L91.1603 450.993L92.7032 449.949C92.7989 449.454 92.7867 444.945 92.7156 444.405C92.6672 444.007 92.8168 443.622 93.0808 443.391V443.391ZM88.2764 452.942L89.7184 451.967L94.105 458.456L92.6631 459.431L88.2764 452.942Z" fill="#7ED1EF"/>
</g>
<g filter="url(#filter4_d)">
<circle cx="135.046" cy="539.191" r="18.5761" transform="rotate(-16.5259 135.046 539.191)" fill="white"/>
<path d="M134.773 549.282C134.609 549.356 134.471 549.347 134.285 549.341C133.586 549.314 133.078 548.725 133.083 548.033C133.09 547.353 133.194 544.252 133.012 543.64C132.834 543.039 131.826 542.759 131.146 542.961L127.747 543.969C127.067 544.171 126.479 543.852 126.277 543.172C126.076 542.493 126.19 534.568 126.19 534.568C126.252 534.069 126.477 533.25 126.987 533.098L137.344 530.025L140.37 540.224L137.945 540.943C137.619 541.546 135.789 547.39 135.66 548.119C135.56 548.654 135.209 549.091 134.773 549.282V549.282ZM144.903 538.879L142.637 539.551L139.611 529.353L141.877 528.68L144.903 538.879Z" fill="#F5A159"/>
</g>
<g filter="url(#filter5_d)">
<circle cx="158.403" cy="390.44" r="26.4944" transform="rotate(-26.9517 158.403 390.44)" fill="white"/>
<path fill-rule="evenodd" clip-rule="evenodd" d="M163.79 401.318C142.764 400.762 140.649 381.043 155.529 384.577C161.739 370.6 176.139 384.235 163.837 401.295L163.849 401.32C163.839 401.32 163.829 401.319 163.819 401.319C163.813 401.327 163.808 401.335 163.802 401.343L163.79 401.318Z" fill="#FF8D8D"/>
</g>
<g filter="url(#filter6_d)">
<circle cx="263.811" cy="500.565" r="18.7362" transform="rotate(30.0204 263.811 500.565)" fill="white"/>
<path fill-rule="evenodd" clip-rule="evenodd" d="M259.438 507.952C251.664 495.271 262.54 486.417 266.18 496.601C276.861 494.896 274.326 508.69 259.47 507.971L259.46 507.988C259.456 507.982 259.452 507.976 259.449 507.97C259.442 507.969 259.435 507.969 259.428 507.969L259.438 507.952Z" fill="#FF8D8D"/>
</g>
</g>
<defs>
<filter id="filter0_d" x="-7.1151" y="70.1318" width="528.23" height="727.034" filterUnits="userSpaceOnUse" color-interpolation-filters="sRGB">
<feFlood flood-opacity="0" result="BackgroundImageFix"/>
<feColorMatrix in="SourceAlpha" type="matrix" values="0 0 0 0 0 0 0 0 0 0 0 0 0 0 0 0 0 0 127 0" result="hardAlpha"/>
<feOffset dy="4.32976"/>
<feGaussianBlur stdDeviation="2.16488"/>
<feColorMatrix type="matrix" values="0 0 0 0 0 0 0 0 0 0 0 0 0 0 0 0 0 0 0.25 0"/>
<feBlend mode="normal" in2="BackgroundImageFix" result="effect1_dropShadow"/>
<feBlend mode="normal" in="SourceGraphic" in2="effect1_dropShadow" result="shape"/>
</filter>
<filter id="filter1_d" x="251.556" y="569.969" width="67.9151" height="67.9151" filterUnits="userSpaceOnUse" color-interpolation-filters="sRGB">
<feFlood flood-opacity="0" result="BackgroundImageFix"/>
<feColorMatrix in="SourceAlpha" type="matrix" values="0 0 0 0 0 0 0 0 0 0 0 0 0 0 0 0 0 0 127 0" result="hardAlpha"/>
<feOffset dy="2.65889"/>
<feGaussianBlur stdDeviation="1.32945"/>
<feColorMatrix type="matrix" values="0 0 0 0 0 0 0 0 0 0 0 0 0 0 0 0 0 0 0.25 0"/>
<feBlend mode="normal" in2="BackgroundImageFix" result="effect1_dropShadow"/>
<feBlend mode="normal" in="SourceGraphic" in2="effect1_dropShadow" result="shape"/>
</filter>
<filter id="filter2_d" x="304.129" y="401.36" width="45.0526" height="45.0526" filterUnits="userSpaceOnUse" color-interpolation-filters="sRGB">
<feFlood flood-opacity="0" result="BackgroundImageFix"/>
<feColorMatrix in="SourceAlpha" type="matrix" values="0 0 0 0 0 0 0 0 0 0 0 0 0 0 0 0 0 0 127 0" result="hardAlpha"/>
<feOffset dy="1.58075"/>
<feGaussianBlur stdDeviation="0.790376"/>
<feColorMatrix type="matrix" values="0 0 0 0 0 0 0 0 0 0 0 0 0 0 0 0 0 0 0.25 0"/>
<feBlend mode="normal" in2="BackgroundImageFix" result="effect1_dropShadow"/>
<feBlend mode="normal" in="SourceGraphic" in2="effect1_dropShadow" result="shape"/>
</filter>
<filter id="filter3_d" x="74.7738" y="431.668" width="40.8186" height="40.8186" filterUnits="userSpaceOnUse" color-interpolation-filters="sRGB">
<feFlood flood-opacity="0" result="BackgroundImageFix"/>
<feColorMatrix in="SourceAlpha" type="matrix" values="0 0 0 0 0 0 0 0 0 0 0 0 0 0 0 0 0 0 127 0" result="hardAlpha"/>
<feOffset dy="1.45887"/>
<feGaussianBlur stdDeviation="0.729433"/>
<feColorMatrix type="matrix" values="0 0 0 0 0 0 0 0 0 0 0 0 0 0 0 0 0 0 0.25 0"/>
<feBlend mode="normal" in2="BackgroundImageFix" result="effect1_dropShadow"/>
<feBlend mode="normal" in="SourceGraphic" in2="effect1_dropShadow" result="shape"/>
</filter>
<filter id="filter4_d" x="109.972" y="516.099" width="50.1484" height="50.1484" filterUnits="userSpaceOnUse" color-interpolation-filters="sRGB">
<feFlood flood-opacity="0" result="BackgroundImageFix"/>
<feColorMatrix in="SourceAlpha" type="matrix" values="0 0 0 0 0 0 0 0 0 0 0 0 0 0 0 0 0 0 127 0" result="hardAlpha"/>
<feOffset dy="1.98145"/>
<feGaussianBlur stdDeviation="0.990727"/>
<feColorMatrix type="matrix" values="0 0 0 0 0 0 0 0 0 0 0 0 0 0 0 0 0 0 0.25 0"/>
<feBlend mode="normal" in2="BackgroundImageFix" result="effect1_dropShadow"/>
<feBlend mode="normal" in="SourceGraphic" in2="effect1_dropShadow" result="shape"/>
</filter>
<filter id="filter5_d" x="118.89" y="354.815" width="79.0258" height="79.0258" filterUnits="userSpaceOnUse" color-interpolation-filters="sRGB">
<feFlood flood-opacity="0" result="BackgroundImageFix"/>
<feColorMatrix in="SourceAlpha" type="matrix" values="0 0 0 0 0 0 0 0 0 0 0 0 0 0 0 0 0 0 127 0" result="hardAlpha"/>
<feOffset dy="3.88771"/>
<feGaussianBlur stdDeviation="1.94386"/>
<feColorMatrix type="matrix" values="0 0 0 0 0 0 0 0 0 0 0 0 0 0 0 0 0 0 0.25 0"/>
<feBlend mode="normal" in2="BackgroundImageFix" result="effect1_dropShadow"/>
<feBlend mode="normal" in="SourceGraphic" in2="effect1_dropShadow" result="shape"/>
</filter>
<filter id="filter6_d" x="235.465" y="474.969" width="56.6917" height="56.6917" filterUnits="userSpaceOnUse" color-interpolation-filters="sRGB">
<feFlood flood-opacity="0" result="BackgroundImageFix"/>
<feColorMatrix in="SourceAlpha" type="matrix" values="0 0 0 0 0 0 0 0 0 0 0 0 0 0 0 0 0 0 127 0" result="hardAlpha"/>
<feOffset dy="2.74929"/>
<feGaussianBlur stdDeviation="1.37465"/>
<feColorMatrix type="matrix" values="0 0 0 0 0 0 0 0 0 0 0 0 0 0 0 0 0 0 0.25 0"/>
<feBlend mode="normal" in2="BackgroundImageFix" result="effect1_dropShadow"/>
<feBlend mode="normal" in="SourceGraphic" in2="effect1_dropShadow" result="shape"/>
</filter>
<clipPath id="clip0">
<rect width="101.58" height="101.496" fill="white" transform="translate(204.13 210.128)"/>
</clipPath>
</defs>
</svg>
