<svg width="135" height="32" viewBox="0 0 135 32" fill="none" xmlns="http://www.w3.org/2000/svg">
<path d="M21.2701 20.4679H25.9721V11.451C25.9721 7.30208 23.5105 4.86805 19.6935 4.86805C17.4531 4.86805 15.5169 6.11272 14.4935 7.74463C13.4424 5.89145 11.5616 4.86805 9.23822 4.86805C7.21909 4.86805 5.6425 5.72549 4.72974 6.97016V5.03401H0V20.4679H4.72974V12.0871C4.72974 10.068 5.89144 8.96164 7.6893 8.96164C9.48716 8.96164 10.6488 10.068 10.6488 12.0871V20.4679H15.3509V12.0871C15.3509 10.068 16.5126 8.96164 18.3105 8.96164C20.1084 8.96164 21.2701 10.068 21.2701 12.0871V20.4679ZM36.084 8.60207C37.6605 8.60207 38.9882 9.57014 38.9882 11.2574H33.0691C33.3457 9.54249 34.535 8.60207 36.084 8.60207ZM43.469 15.351H38.435C38.0478 16.1807 37.301 16.8446 35.9733 16.8446C34.452 16.8446 33.2074 15.9041 33.0414 13.885H43.7456C43.8009 13.4148 43.8286 12.9446 43.8286 12.502C43.8286 7.79995 40.6477 4.81273 36.1393 4.81273C31.5478 4.81273 28.3393 7.85526 28.3393 12.751C28.3393 17.6467 31.6031 20.6892 36.1393 20.6892C39.9839 20.6892 42.7222 18.3658 43.469 15.351ZM53.1279 8.60207C54.7045 8.60207 56.0321 9.57014 56.0321 11.2574H50.113C50.3896 9.54249 51.579 8.60207 53.1279 8.60207ZM60.5129 15.351H55.4789C55.0917 16.1807 54.3449 16.8446 53.0172 16.8446C51.496 16.8446 50.2513 15.9041 50.0854 13.885H60.7895C60.8448 13.4148 60.8725 12.9446 60.8725 12.502C60.8725 7.79995 57.6917 4.81273 53.1832 4.81273C48.5917 4.81273 45.3833 7.85526 45.3833 12.751C45.3833 17.6467 48.6471 20.6892 53.1832 20.6892C57.0278 20.6892 59.7661 18.3658 60.5129 15.351ZM64.1156 15.102C64.1156 19.1126 66.356 20.4679 69.5645 20.4679H71.9708V16.4573H70.2836C69.2326 16.4573 68.8453 16.0701 68.8453 15.1573V8.96164H71.9432V5.03401H68.8453V1.27233H64.1156V5.03401H62.2347V8.96164H64.1156V15.102ZM73.665 12.7233C73.665 17.5914 76.6798 20.6892 80.4415 20.6892C82.7372 20.6892 84.3691 19.6382 85.2266 18.2828V20.4679H89.9563V5.03401H85.2266V7.2191C84.3968 5.86379 82.7649 4.81273 80.4692 4.81273C76.6798 4.81273 73.665 7.85526 73.665 12.7233ZM85.2266 12.751C85.2266 15.2127 83.65 16.568 81.8521 16.568C80.0819 16.568 78.4777 15.185 78.4777 12.7233C78.4777 10.2616 80.0819 8.93398 81.8521 8.93398C83.65 8.93398 85.2266 10.2893 85.2266 12.751ZM98.1078 7.2191V0H93.378V20.4679H98.1078V18.3105C98.9652 19.6658 100.597 20.6892 102.865 20.6892C106.655 20.6892 109.669 17.5914 109.669 12.7233C109.669 7.85526 106.682 4.81273 102.865 4.81273C100.652 4.81273 98.9652 5.83613 98.1078 7.2191ZM104.857 12.7233C104.857 15.185 103.252 16.568 101.455 16.568C99.6844 16.568 98.0801 15.2127 98.0801 12.751C98.0801 10.2893 99.6844 8.93398 101.455 8.93398C103.252 8.93398 104.857 10.2616 104.857 12.7233ZM112.151 20.4679H116.88V0H112.151V20.4679ZM127.112 8.60207C128.689 8.60207 130.016 9.57014 130.016 11.2574H124.097C124.374 9.54249 125.563 8.60207 127.112 8.60207ZM134.497 15.351H129.463C129.076 16.1807 128.329 16.8446 127.001 16.8446C125.48 16.8446 124.236 15.9041 124.07 13.885H134.774C134.829 13.4148 134.857 12.9446 134.857 12.502C134.857 7.79995 131.676 4.81273 127.167 4.81273C122.576 4.81273 119.367 7.85526 119.367 12.751C119.367 17.6467 122.631 20.6892 127.167 20.6892C131.012 20.6892 133.75 18.3658 134.497 15.351Z" fill="#082737"/>
<path d="M35.4696 25.4443C38.3646 28.8823 46.2176 33.6954 54.4693 25.4443" stroke="#082737" stroke-width="3"/>
</svg>
