<svg width="118" height="25" viewBox="0 0 118 25" fill="none" xmlns="http://www.w3.org/2000/svg">
<path d="M31.0364 19.0776C33.5485 22.0607 40.3626 26.237 47.522 19.0776" stroke="black" stroke-width="3"/>
<path d="M17.3473 4.224C19.0113 4.224 20.3313 4.728 21.3073 5.736C22.2993 6.744 22.7953 8.144 22.7953 9.936V17.76H18.7153V10.488C18.7153 9.624 18.4833 8.96 18.0193 8.496C17.5713 8.016 16.9473 7.776 16.1473 7.776C15.3473 7.776 14.7153 8.016 14.2513 8.496C13.8033 8.96 13.5793 9.624 13.5793 10.488V17.76H9.49928V10.488C9.49928 9.624 9.26728 8.96 8.80328 8.496C8.35528 8.016 7.73127 7.776 6.93127 7.776C6.13127 7.776 5.49928 8.016 5.03528 8.496C4.58728 8.96 4.36328 9.624 4.36328 10.488V17.76H0.259277V4.368H4.36328V6.048C4.77928 5.488 5.32328 5.048 5.99529 4.728C6.66728 4.392 7.42728 4.224 8.27528 4.224C9.28328 4.224 10.1793 4.44 10.9633 4.872C11.7633 5.304 12.3873 5.92 12.8353 6.72C13.2993 5.984 13.9313 5.384 14.7313 4.92C15.5313 4.456 16.4033 4.224 17.3473 4.224Z" fill="black"/>
<path d="M38.2895 10.848C38.2895 11.232 38.2655 11.632 38.2175 12.048H28.9295C28.9935 12.88 29.2575 13.52 29.7215 13.968C30.2015 14.4 30.7855 14.616 31.4735 14.616C32.4975 14.616 33.2095 14.184 33.6095 13.32H37.9775C37.7535 14.2 37.3455 14.992 36.7535 15.696C36.1775 16.4 35.4495 16.952 34.5695 17.352C33.6895 17.752 32.7055 17.952 31.6175 17.952C30.3055 17.952 29.1375 17.672 28.1135 17.112C27.0895 16.552 26.2895 15.752 25.7135 14.712C25.1375 13.672 24.8495 12.456 24.8495 11.064C24.8495 9.672 25.1295 8.456 25.6895 7.416C26.2655 6.376 27.0655 5.576 28.0895 5.016C29.1135 4.456 30.2895 4.176 31.6175 4.176C32.9135 4.176 34.0655 4.448 35.0735 4.992C36.0815 5.536 36.8655 6.312 37.4255 7.32C38.0015 8.328 38.2895 9.504 38.2895 10.848ZM34.0895 9.768C34.0895 9.064 33.8495 8.504 33.3695 8.088C32.8895 7.672 32.2895 7.464 31.5695 7.464C30.8815 7.464 30.2975 7.664 29.8175 8.064C29.3535 8.464 29.0655 9.032 28.9535 9.768H34.0895Z" fill="black"/>
<path d="M53.0786 10.848C53.0786 11.232 53.0546 11.632 53.0066 12.048H43.7186C43.7826 12.88 44.0466 13.52 44.5106 13.968C44.9906 14.4 45.5746 14.616 46.2626 14.616C47.2866 14.616 47.9986 14.184 48.3986 13.32H52.7666C52.5426 14.2 52.1346 14.992 51.5426 15.696C50.9666 16.4 50.2386 16.952 49.3586 17.352C48.4786 17.752 47.4946 17.952 46.4066 17.952C45.0946 17.952 43.9266 17.672 42.9026 17.112C41.8786 16.552 41.0786 15.752 40.5026 14.712C39.9266 13.672 39.6386 12.456 39.6386 11.064C39.6386 9.672 39.9186 8.456 40.4786 7.416C41.0546 6.376 41.8546 5.576 42.8786 5.016C43.9026 4.456 45.0786 4.176 46.4066 4.176C47.7026 4.176 48.8546 4.448 49.8626 4.992C50.8706 5.536 51.6546 6.312 52.2146 7.32C52.7906 8.328 53.0786 9.504 53.0786 10.848ZM48.8786 9.768C48.8786 9.064 48.6386 8.504 48.1586 8.088C47.6786 7.672 47.0786 7.464 46.3586 7.464C45.6706 7.464 45.0866 7.664 44.6066 8.064C44.1426 8.464 43.8546 9.032 43.7426 9.768H48.8786Z" fill="black"/>
<path d="M62.7077 14.28V17.76H60.6197C59.1317 17.76 57.9716 17.4 57.1396 16.68C56.3076 15.944 55.8916 14.752 55.8916 13.104V7.776H54.2597V4.368H55.8916V1.104H59.9957V4.368H62.6837V7.776H59.9957V13.152C59.9957 13.552 60.0917 13.84 60.2837 14.016C60.4757 14.192 60.7957 14.28 61.2437 14.28H62.7077Z" fill="black"/>
<path d="M64.1777 11.04C64.1777 9.664 64.4336 8.456 64.9456 7.416C65.4736 6.376 66.1856 5.576 67.0816 5.016C67.9776 4.456 68.9776 4.176 70.0816 4.176C71.0256 4.176 71.8496 4.368 72.5536 4.752C73.2737 5.136 73.8257 5.64 74.2097 6.264V4.368H78.3137V17.76H74.2097V15.864C73.8097 16.488 73.2496 16.992 72.5296 17.376C71.8256 17.76 71.0016 17.952 70.0576 17.952C68.9696 17.952 67.9776 17.672 67.0816 17.112C66.1856 16.536 65.4736 15.728 64.9456 14.688C64.4336 13.632 64.1777 12.416 64.1777 11.04ZM74.2097 11.064C74.2097 10.04 73.9217 9.232 73.3457 8.64C72.7857 8.048 72.0976 7.752 71.2816 7.752C70.4656 7.752 69.7696 8.048 69.1936 8.64C68.6336 9.216 68.3537 10.016 68.3537 11.04C68.3537 12.064 68.6336 12.88 69.1936 13.488C69.7696 14.08 70.4656 14.376 71.2816 14.376C72.0976 14.376 72.7857 14.08 73.3457 13.488C73.9217 12.896 74.2097 12.088 74.2097 11.064Z" fill="black"/>
<path d="M85.3867 6.264C85.7707 5.64 86.3227 5.136 87.0427 4.752C87.7627 4.368 88.5867 4.176 89.5147 4.176C90.6187 4.176 91.6187 4.456 92.5147 5.016C93.4107 5.576 94.1147 6.376 94.6267 7.416C95.1547 8.456 95.4187 9.664 95.4187 11.04C95.4187 12.416 95.1547 13.632 94.6267 14.688C94.1147 15.728 93.4107 16.536 92.5147 17.112C91.6187 17.672 90.6187 17.952 89.5147 17.952C88.5707 17.952 87.7467 17.768 87.0427 17.4C86.3387 17.016 85.7867 16.512 85.3867 15.888V17.76H81.2827V0H85.3867V6.264ZM91.2427 11.04C91.2427 10.016 90.9547 9.216 90.3787 8.64C89.8187 8.048 89.1227 7.752 88.2907 7.752C87.4747 7.752 86.7787 8.048 86.2027 8.64C85.6427 9.232 85.3627 10.04 85.3627 11.064C85.3627 12.088 85.6427 12.896 86.2027 13.488C86.7787 14.08 87.4747 14.376 88.2907 14.376C89.1067 14.376 89.8027 14.08 90.3787 13.488C90.9547 12.88 91.2427 12.064 91.2427 11.04Z" fill="black"/>
<path d="M101.676 0V17.76H97.5718V0H101.676Z" fill="black"/>
<path d="M117.274 10.848C117.274 11.232 117.25 11.632 117.202 12.048H107.914C107.978 12.88 108.242 13.52 108.706 13.968C109.186 14.4 109.77 14.616 110.458 14.616C111.482 14.616 112.194 14.184 112.594 13.32H116.962C116.738 14.2 116.33 14.992 115.738 15.696C115.162 16.4 114.434 16.952 113.554 17.352C112.674 17.752 111.69 17.952 110.602 17.952C109.29 17.952 108.122 17.672 107.098 17.112C106.074 16.552 105.274 15.752 104.698 14.712C104.122 13.672 103.834 12.456 103.834 11.064C103.834 9.672 104.114 8.456 104.674 7.416C105.25 6.376 106.05 5.576 107.074 5.016C108.098 4.456 109.274 4.176 110.602 4.176C111.898 4.176 113.05 4.448 114.058 4.992C115.066 5.536 115.85 6.312 116.41 7.32C116.986 8.328 117.274 9.504 117.274 10.848ZM113.074 9.768C113.074 9.064 112.834 8.504 112.354 8.088C111.874 7.672 111.274 7.464 110.554 7.464C109.866 7.464 109.282 7.664 108.802 8.064C108.338 8.464 108.05 9.032 107.938 9.768H113.074Z" fill="black"/>
</svg>
