<svg width="360" height="360" viewBox="0 0 360 360" fill="none" xmlns="http://www.w3.org/2000/svg">
<g clip-path="url(#clip0)">
<rect width="360" height="360" rx="180" fill="white"/>
<rect width="360" height="360" fill="#9BC5FF"/>
<path fill-rule="evenodd" clip-rule="evenodd" d="M310.964 318.235C300.352 302.884 284.706 291.726 266.736 286.692L224.999 275V245.001C242.643 231.747 254.23 210.89 254.942 187.297C257.408 188.384 260.13 189 263 189C274.045 189 283 180.046 283 169C283 157.954 274.045 149 263 149C260.153 149 257.451 149.603 255 150.675V145C255 103.578 221.421 70.0002 180 70.0002H179.999C138.578 70.0002 105 103.578 105 145V150.675C102.548 149.603 99.8465 149 97.0005 149C85.9545 149 77.0005 157.954 77.0005 169C77.0005 180.046 85.9545 189 97.0005 189C99.8695 189 102.591 188.385 105.058 187.297C105.769 210.89 117.356 231.747 134.999 245.001V275L93.2635 286.692C75.2935 291.726 59.6485 302.884 49.0365 318.235L20.0005 360.24V390H340V360.24L310.964 318.235Z" fill="#FFCF83"/>
<path fill-rule="evenodd" clip-rule="evenodd" d="M179.999 260C170.751 260 161.899 258.316 153.719 255.255C165.353 262.687 179.169 267 193.999 267C205.059 267 215.548 264.587 224.999 260.29V245.001C212.464 254.417 196.884 260 179.999 260Z" fill="#F7A74F"/>
<path fill-rule="evenodd" clip-rule="evenodd" d="M340 360.24L310.963 318.235C300.352 302.885 284.707 291.726 266.736 286.692L264.525 286.072L255.581 268.712C253.379 264.437 249.711 261.099 245.248 259.309L225 251.186V275.24C224.997 275.246 224.996 275.25 224.993 275.256L180.256 319.994C180.17 319.994 180.086 320 180 320L135 275V250.936L114.752 259.06C110.289 260.85 106.621 264.188 104.419 268.462L95.325 286.114L93.263 286.692C75.293 291.726 59.648 302.885 49.036 318.235L20 360.24V390H340V360.24Z" fill="#80C43B"/>
<path d="M95.3252 286.114L180 335.123L241.291 299.829" stroke="#00004D" stroke-width="2" stroke-linecap="round" stroke-linejoin="round"/>
<path fill-rule="evenodd" clip-rule="evenodd" d="M157 375.123V375.123C155.343 375.123 154 373.779 154 372.123V320.151L160 323.547V372.123C160 373.779 158.657 375.123 157 375.123" fill="#00004D"/>
<path fill-rule="evenodd" clip-rule="evenodd" d="M203 354.123V354.123C201.343 354.123 200 352.779 200 351.123V323.606L206 320.151V351.123C206 352.779 204.657 354.123 203 354.123" fill="#00004D"/>
<path d="M127 267L135 275" stroke="#00004D" stroke-width="2" stroke-linecap="round" stroke-linejoin="round"/>
<path d="M203.5 171C205.043 167.469 208.567 165 212.668 165C216.769 165 220.293 167.469 221.836 171" stroke="#00004D" stroke-width="2" stroke-linecap="round" stroke-linejoin="round"/>
<path fill-rule="evenodd" clip-rule="evenodd" d="M155 171C155 175.419 151.418 179 147 179C142.582 179 139 175.419 139 171C139 166.582 142.582 163 147 163C151.418 163 155 166.582 155 171" fill="#00004D"/>
<path fill-rule="evenodd" clip-rule="evenodd" d="M260 149.249V145V75C260 69.478 255.522 65 250 65H160C126.863 65 100 91.863 100 125V145V149.249C105.7 150.109 110.613 153.354 113.67 157.958L120.443 135.244C122.971 126.769 130.766 120.959 139.609 120.959H220.391C229.234 120.959 237.028 126.769 239.557 135.244L246.33 157.958C249.387 153.354 254.3 150.109 260 149.249" fill="#00004D"/>
<path d="M107.218 170.987C107.473 170.058 107.61 169.079 107.61 168.069C107.61 161.994 102.685 157.069 96.6101 157.069C95.0911 157.069 93.6441 157.377 92.3281 157.933" stroke="#00004D" stroke-width="2" stroke-linecap="round" stroke-linejoin="round"/>
<path d="M252.001 170.987C251.746 170.058 251.61 169.079 251.61 168.069C251.61 161.994 256.535 157.069 262.61 157.069C264.128 157.069 265.575 157.377 266.892 157.933" stroke="#00004D" stroke-width="2" stroke-linecap="round" stroke-linejoin="round"/>
<path fill-rule="evenodd" clip-rule="evenodd" d="M200 226.5C200 237.546 191.046 246.5 180 246.5C168.954 246.5 160 237.546 160 226.5H200Z" fill="#AE1328"/>
<path fill-rule="evenodd" clip-rule="evenodd" d="M191.193 243.077C188.307 240.249 184.359 238.5 180 238.5C175.64 238.5 171.692 240.249 168.806 243.077C172.001 245.238 175.853 246.5 180 246.5C184.146 246.5 187.999 245.238 191.193 243.077" fill="#FB344F"/>
<path d="M177 175L191 207L173 211" stroke="#00004D" stroke-width="2" stroke-linecap="round" stroke-linejoin="round"/>
</g>
<defs>
<clipPath id="clip0">
<rect width="360" height="360" rx="180" fill="white"/>
</clipPath>
</defs>
</svg>
