<svg width="131" height="33" viewBox="0 0 131 33" fill="none" xmlns="http://www.w3.org/2000/svg">
<path d="M19.8493 9.81947C21.5133 9.81947 22.8333 10.3235 23.8093 11.3315C24.8013 12.3395 25.2973 13.7395 25.2973 15.5315V23.3555H21.2173V16.0835C21.2173 15.2195 20.9853 14.5555 20.5213 14.0915C20.0733 13.6115 19.4493 13.3715 18.6493 13.3715C17.8493 13.3715 17.2173 13.6115 16.7533 14.0915C16.3053 14.5555 16.0813 15.2195 16.0813 16.0835V23.3555H12.0013V16.0835C12.0013 15.2195 11.7693 14.5555 11.3053 14.0915C10.8573 13.6115 10.2333 13.3715 9.43326 13.3715C8.63326 13.3715 8.00126 13.6115 7.53726 14.0915C7.08926 14.5555 6.86526 15.2195 6.86526 16.0835V23.3555H2.76126V9.96347H6.86526V11.6435C7.28126 11.0835 7.82526 10.6435 8.49726 10.3235C9.16926 9.98747 9.92926 9.81947 10.7773 9.81947C11.7853 9.81947 12.6813 10.0355 13.4653 10.4675C14.2653 10.8995 14.8893 11.5155 15.3373 12.3155C15.8013 11.5795 16.4333 10.9795 17.2333 10.5155C18.0333 10.0515 18.9053 9.81947 19.8493 9.81947ZM40.7915 16.4435C40.7915 16.8275 40.7675 17.2275 40.7195 17.6435H31.4315C31.4955 18.4755 31.7595 19.1155 32.2235 19.5635C32.7035 19.9955 33.2875 20.2115 33.9755 20.2115C34.9995 20.2115 35.7115 19.7795 36.1115 18.9155H40.4795C40.2555 19.7955 39.8475 20.5875 39.2555 21.2915C38.6795 21.9955 37.9515 22.5475 37.0715 22.9475C36.1915 23.3475 35.2075 23.5475 34.1195 23.5475C32.8075 23.5475 31.6395 23.2675 30.6155 22.7075C29.5915 22.1475 28.7915 21.3475 28.2155 20.3075C27.6395 19.2675 27.3515 18.0515 27.3515 16.6595C27.3515 15.2675 27.6315 14.0515 28.1915 13.0115C28.7675 11.9715 29.5675 11.1715 30.5915 10.6115C31.6155 10.0515 32.7915 9.77147 34.1195 9.77147C35.4155 9.77147 36.5675 10.0435 37.5755 10.5875C38.5835 11.1315 39.3675 11.9075 39.9275 12.9155C40.5035 13.9235 40.7915 15.0995 40.7915 16.4435ZM36.5915 15.3635C36.5915 14.6595 36.3515 14.0995 35.8715 13.6835C35.3915 13.2675 34.7915 13.0595 34.0715 13.0595C33.3835 13.0595 32.7995 13.2595 32.3195 13.6595C31.8555 14.0595 31.5675 14.6275 31.4555 15.3635H36.5915ZM55.5806 16.4435C55.5806 16.8275 55.5566 17.2275 55.5086 17.6435H46.2206C46.2846 18.4755 46.5486 19.1155 47.0126 19.5635C47.4926 19.9955 48.0766 20.2115 48.7646 20.2115C49.7886 20.2115 50.5006 19.7795 50.9006 18.9155H55.2686C55.0446 19.7955 54.6366 20.5875 54.0446 21.2915C53.4686 21.9955 52.7406 22.5475 51.8606 22.9475C50.9806 23.3475 49.9966 23.5475 48.9086 23.5475C47.5966 23.5475 46.4286 23.2675 45.4046 22.7075C44.3806 22.1475 43.5806 21.3475 43.0046 20.3075C42.4286 19.2675 42.1406 18.0515 42.1406 16.6595C42.1406 15.2675 42.4206 14.0515 42.9806 13.0115C43.5566 11.9715 44.3566 11.1715 45.3806 10.6115C46.4046 10.0515 47.5806 9.77147 48.9086 9.77147C50.2046 9.77147 51.3566 10.0435 52.3646 10.5875C53.3726 11.1315 54.1566 11.9075 54.7166 12.9155C55.2926 13.9235 55.5806 15.0995 55.5806 16.4435ZM51.3806 15.3635C51.3806 14.6595 51.1406 14.0995 50.6606 13.6835C50.1806 13.2675 49.5806 13.0595 48.8606 13.0595C48.1726 13.0595 47.5886 13.2595 47.1086 13.6595C46.6446 14.0595 46.3566 14.6275 46.2446 15.3635H51.3806ZM65.2096 19.8755V23.3555H63.1216C61.6336 23.3555 60.4736 22.9955 59.6416 22.2755C58.8096 21.5395 58.3936 20.3475 58.3936 18.6995V13.3715H56.7616V9.96347H58.3936V6.69947H62.4976V9.96347H65.1856V13.3715H62.4976V18.7475C62.4976 19.1475 62.5936 19.4355 62.7856 19.6115C62.9776 19.7875 63.2976 19.8755 63.7456 19.8755H65.2096ZM66.6796 16.6355C66.6796 15.2595 66.9356 14.0515 67.4476 13.0115C67.9756 11.9715 68.6876 11.1715 69.5836 10.6115C70.4796 10.0515 71.4796 9.77147 72.5836 9.77147C73.5276 9.77147 74.3516 9.96347 75.0556 10.3475C75.7756 10.7315 76.3276 11.2355 76.7116 11.8595V9.96347H80.8156V23.3555H76.7116V21.4595C76.3116 22.0835 75.7516 22.5875 75.0316 22.9715C74.3276 23.3555 73.5036 23.5475 72.5596 23.5475C71.4716 23.5475 70.4796 23.2675 69.5836 22.7075C68.6876 22.1315 67.9756 21.3235 67.4476 20.2835C66.9356 19.2275 66.6796 18.0115 66.6796 16.6355ZM76.7116 16.6595C76.7116 15.6355 76.4236 14.8275 75.8476 14.2355C75.2876 13.6435 74.5996 13.3475 73.7836 13.3475C72.9676 13.3475 72.2716 13.6435 71.6956 14.2355C71.1356 14.8115 70.8556 15.6115 70.8556 16.6355C70.8556 17.6595 71.1356 18.4755 71.6956 19.0835C72.2716 19.6755 72.9676 19.9715 73.7836 19.9715C74.5996 19.9715 75.2876 19.6755 75.8476 19.0835C76.4236 18.4915 76.7116 17.6835 76.7116 16.6595ZM87.8887 11.8595C88.2727 11.2355 88.8247 10.7315 89.5447 10.3475C90.2647 9.96347 91.0887 9.77147 92.0167 9.77147C93.1207 9.77147 94.1207 10.0515 95.0167 10.6115C95.9127 11.1715 96.6167 11.9715 97.1287 13.0115C97.6567 14.0515 97.9207 15.2595 97.9207 16.6355C97.9207 18.0115 97.6567 19.2275 97.1287 20.2835C96.6167 21.3235 95.9127 22.1315 95.0167 22.7075C94.1207 23.2675 93.1207 23.5475 92.0167 23.5475C91.0727 23.5475 90.2487 23.3635 89.5447 22.9955C88.8407 22.6115 88.2887 22.1075 87.8887 21.4835V23.3555H83.7847V5.59547H87.8887V11.8595ZM93.7447 16.6355C93.7447 15.6115 93.4567 14.8115 92.8807 14.2355C92.3207 13.6435 91.6247 13.3475 90.7927 13.3475C89.9767 13.3475 89.2807 13.6435 88.7047 14.2355C88.1447 14.8275 87.8647 15.6355 87.8647 16.6595C87.8647 17.6835 88.1447 18.4915 88.7047 19.0835C89.2807 19.6755 89.9767 19.9715 90.7927 19.9715C91.6087 19.9715 92.3047 19.6755 92.8807 19.0835C93.4567 18.4755 93.7447 17.6595 93.7447 16.6355ZM104.178 5.59547V23.3555H100.074V5.59547H104.178ZM119.776 16.4435C119.776 16.8275 119.752 17.2275 119.704 17.6435H110.416C110.48 18.4755 110.744 19.1155 111.208 19.5635C111.688 19.9955 112.272 20.2115 112.96 20.2115C113.984 20.2115 114.696 19.7795 115.096 18.9155H119.464C119.24 19.7955 118.832 20.5875 118.24 21.2915C117.664 21.9955 116.936 22.5475 116.056 22.9475C115.176 23.3475 114.192 23.5475 113.104 23.5475C111.792 23.5475 110.624 23.2675 109.6 22.7075C108.576 22.1475 107.776 21.3475 107.2 20.3075C106.624 19.2675 106.336 18.0515 106.336 16.6595C106.336 15.2675 106.616 14.0515 107.176 13.0115C107.752 11.9715 108.552 11.1715 109.576 10.6115C110.6 10.0515 111.776 9.77147 113.104 9.77147C114.4 9.77147 115.552 10.0435 116.56 10.5875C117.568 11.1315 118.352 11.9075 118.912 12.9155C119.488 13.9235 119.776 15.0995 119.776 16.4435ZM115.576 15.3635C115.576 14.6595 115.336 14.0995 114.856 13.6835C114.376 13.2675 113.776 13.0595 113.056 13.0595C112.368 13.0595 111.784 13.2595 111.304 13.6595C110.84 14.0595 110.552 14.6275 110.44 15.3635H115.576ZM127.341 5.90747L126.861 17.4035H123.381L122.901 5.90747H127.341ZM125.181 23.5475C124.461 23.5475 123.869 23.3395 123.405 22.9235C122.957 22.4915 122.733 21.9635 122.733 21.3395C122.733 20.6995 122.957 20.1635 123.405 19.7315C123.869 19.2995 124.461 19.0835 125.181 19.0835C125.885 19.0835 126.461 19.2995 126.909 19.7315C127.373 20.1635 127.605 20.6995 127.605 21.3395C127.605 21.9635 127.373 22.4915 126.909 22.9235C126.461 23.3395 125.885 23.5475 125.181 23.5475Z" fill="black"/>
<path d="M32.6523 26.6731C35.1645 29.6562 41.9785 33.8325 49.1379 26.6731" stroke="black" stroke-width="3"/>
</svg>
