<svg width="275" height="28" viewBox="0 0 275 28" fill="none" xmlns="http://www.w3.org/2000/svg">
<path d="M180.132 22.1298C182.644 25.1128 189.459 29.2892 196.618 22.1298" stroke="black" stroke-width="3"/>
<path d="M20.7119 4.42012L17.0879 17.8121H12.5519L10.4399 9.12412L8.25595 17.8121H3.74395L0.0959473 4.42012H4.19995L6.09595 13.9961L8.35195 4.42012H12.6959L14.9759 13.9481L16.8479 4.42012H20.7119Z" fill="black"/>
<path d="M34.901 10.9001C34.901 11.2841 34.877 11.6841 34.829 12.1001H25.541C25.605 12.9321 25.869 13.5721 26.333 14.0201C26.813 14.4521 27.397 14.6681 28.085 14.6681C29.109 14.6681 29.821 14.2361 30.221 13.3721H34.589C34.365 14.2521 33.957 15.0441 33.365 15.7481C32.789 16.4521 32.061 17.0041 31.181 17.4041C30.301 17.8041 29.317 18.0041 28.229 18.0041C26.917 18.0041 25.749 17.7241 24.725 17.1641C23.701 16.6041 22.901 15.8041 22.325 14.7641C21.749 13.7241 21.461 12.5081 21.461 11.1161C21.461 9.72412 21.741 8.50812 22.301 7.46812C22.877 6.42812 23.677 5.62812 24.701 5.06812C25.725 4.50812 26.901 4.22812 28.229 4.22812C29.525 4.22812 30.677 4.50012 31.685 5.04412C32.693 5.58812 33.477 6.36412 34.037 7.37212C34.613 8.38012 34.901 9.55612 34.901 10.9001ZM30.701 9.82012C30.701 9.11612 30.461 8.55612 29.981 8.14012C29.501 7.72412 28.901 7.51612 28.181 7.51612C27.493 7.51612 26.909 7.71612 26.429 8.11612C25.965 8.51612 25.677 9.08412 25.565 9.82012H30.701Z" fill="black"/>
<path d="M41.1701 0.052124V17.8121H37.0661V0.052124H41.1701Z" fill="black"/>
<path d="M43.3282 11.1161C43.3282 9.72412 43.6082 8.50812 44.1682 7.46812C44.7442 6.42812 45.5362 5.62812 46.5442 5.06812C47.5682 4.50812 48.7362 4.22812 50.0482 4.22812C51.7282 4.22812 53.1282 4.66812 54.2482 5.54812C55.3842 6.42812 56.1282 7.66812 56.4802 9.26812H52.1122C51.7442 8.24412 51.0322 7.73212 49.9762 7.73212C49.2242 7.73212 48.6242 8.02812 48.1762 8.62012C47.7282 9.19612 47.5042 10.0281 47.5042 11.1161C47.5042 12.2041 47.7282 13.0441 48.1762 13.6361C48.6242 14.2121 49.2242 14.5001 49.9762 14.5001C51.0322 14.5001 51.7442 13.9881 52.1122 12.9641H56.4802C56.1282 14.5321 55.3842 15.7641 54.2482 16.6601C53.1122 17.5561 51.7122 18.0041 50.0482 18.0041C48.7362 18.0041 47.5682 17.7241 46.5442 17.1641C45.5362 16.6041 44.7442 15.8041 44.1682 14.7641C43.6082 13.7241 43.3282 12.5081 43.3282 11.1161Z" fill="black"/>
<path d="M64.7714 18.0041C63.4594 18.0041 62.2754 17.7241 61.2194 17.1641C60.1794 16.6041 59.3554 15.8041 58.7474 14.7641C58.1554 13.7241 57.8594 12.5081 57.8594 11.1161C57.8594 9.74012 58.1634 8.53212 58.7714 7.49212C59.3794 6.43612 60.2114 5.62812 61.2674 5.06812C62.3234 4.50812 63.5075 4.22812 64.8195 4.22812C66.1315 4.22812 67.3154 4.50812 68.3714 5.06812C69.4274 5.62812 70.2594 6.43612 70.8674 7.49212C71.4754 8.53212 71.7794 9.74012 71.7794 11.1161C71.7794 12.4921 71.4674 13.7081 70.8434 14.7641C70.2354 15.8041 69.3954 16.6041 68.3234 17.1641C67.2674 17.7241 66.0834 18.0041 64.7714 18.0041ZM64.7714 14.4521C65.5554 14.4521 66.2195 14.1641 66.7635 13.5881C67.3235 13.0121 67.6034 12.1881 67.6034 11.1161C67.6034 10.0441 67.3314 9.22012 66.7874 8.64412C66.2594 8.06812 65.6035 7.78012 64.8195 7.78012C64.0195 7.78012 63.3554 8.06812 62.8274 8.64412C62.2994 9.20412 62.0354 10.0281 62.0354 11.1161C62.0354 12.1881 62.2914 13.0121 62.8034 13.5881C63.3314 14.1641 63.9874 14.4521 64.7714 14.4521Z" fill="black"/>
<path d="M91.0447 4.27612C92.7087 4.27612 94.0287 4.78012 95.0047 5.78812C95.9967 6.79612 96.4927 8.19612 96.4927 9.98812V17.8121H92.4127V10.5401C92.4127 9.67612 92.1807 9.01212 91.7167 8.54812C91.2687 8.06812 90.6447 7.82812 89.8447 7.82812C89.0447 7.82812 88.4127 8.06812 87.9487 8.54812C87.5007 9.01212 87.2767 9.67612 87.2767 10.5401V17.8121H83.1967V10.5401C83.1967 9.67612 82.9647 9.01212 82.5007 8.54812C82.0527 8.06812 81.4287 7.82812 80.6287 7.82812C79.8287 7.82812 79.1967 8.06812 78.7327 8.54812C78.2847 9.01212 78.0607 9.67612 78.0607 10.5401V17.8121H73.9567V4.42012H78.0607V6.10012C78.4767 5.54012 79.0207 5.10012 79.6927 4.78012C80.3647 4.44412 81.1247 4.27612 81.9727 4.27612C82.9807 4.27612 83.8767 4.49212 84.6607 4.92412C85.4607 5.35612 86.0847 5.97212 86.5327 6.77212C86.9967 6.03612 87.6287 5.43612 88.4287 4.97212C89.2287 4.50812 90.1007 4.27612 91.0447 4.27612Z" fill="black"/>
<path d="M111.987 10.9001C111.987 11.2841 111.963 11.6841 111.915 12.1001H102.627C102.691 12.9321 102.955 13.5721 103.419 14.0201C103.899 14.4521 104.483 14.6681 105.171 14.6681C106.195 14.6681 106.907 14.2361 107.307 13.3721H111.675C111.451 14.2521 111.043 15.0441 110.451 15.7481C109.875 16.4521 109.147 17.0041 108.267 17.4041C107.387 17.8041 106.403 18.0041 105.315 18.0041C104.003 18.0041 102.835 17.7241 101.811 17.1641C100.787 16.6041 99.9869 15.8041 99.4109 14.7641C98.8349 13.7241 98.5469 12.5081 98.5469 11.1161C98.5469 9.72412 98.8269 8.50812 99.3869 7.46812C99.9629 6.42812 100.763 5.62812 101.787 5.06812C102.811 4.50812 103.987 4.22812 105.315 4.22812C106.611 4.22812 107.763 4.50012 108.771 5.04412C109.779 5.58812 110.563 6.36412 111.123 7.37212C111.699 8.38012 111.987 9.55612 111.987 10.9001ZM107.787 9.82012C107.787 9.11612 107.547 8.55612 107.067 8.14012C106.587 7.72412 105.987 7.51612 105.267 7.51612C104.579 7.51612 103.995 7.71612 103.515 8.11612C103.051 8.51612 102.763 9.08412 102.651 9.82012H107.787Z" fill="black"/>
<path d="M126.702 14.3321V17.8121H124.614C123.126 17.8121 121.966 17.4521 121.134 16.7321C120.302 15.9961 119.886 14.8041 119.886 13.1561V7.82812H118.254V4.42012H119.886V1.15612H123.99V4.42012H126.678V7.82812H123.99V13.2041C123.99 13.6041 124.086 13.8921 124.278 14.0681C124.47 14.2441 124.79 14.3321 125.238 14.3321H126.702Z" fill="black"/>
<path d="M135.084 18.0041C133.772 18.0041 132.588 17.7241 131.532 17.1641C130.492 16.6041 129.668 15.8041 129.06 14.7641C128.468 13.7241 128.172 12.5081 128.172 11.1161C128.172 9.74012 128.476 8.53212 129.084 7.49212C129.692 6.43612 130.524 5.62812 131.58 5.06812C132.636 4.50812 133.82 4.22812 135.132 4.22812C136.444 4.22812 137.628 4.50812 138.684 5.06812C139.74 5.62812 140.572 6.43612 141.18 7.49212C141.788 8.53212 142.092 9.74012 142.092 11.1161C142.092 12.4921 141.78 13.7081 141.156 14.7641C140.548 15.8041 139.708 16.6041 138.636 17.1641C137.58 17.7241 136.396 18.0041 135.084 18.0041ZM135.084 14.4521C135.868 14.4521 136.532 14.1641 137.076 13.5881C137.636 13.0121 137.916 12.1881 137.916 11.1161C137.916 10.0441 137.644 9.22012 137.1 8.64412C136.572 8.06812 135.916 7.78012 135.132 7.78012C134.332 7.78012 133.668 8.06812 133.14 8.64412C132.612 9.20412 132.348 10.0281 132.348 11.1161C132.348 12.1881 132.604 13.0121 133.116 13.5881C133.644 14.1641 134.3 14.4521 135.084 14.4521Z" fill="black"/>
<path d="M166.443 4.27612C168.107 4.27612 169.427 4.78012 170.403 5.78812C171.395 6.79612 171.891 8.19612 171.891 9.98812V17.8121H167.811V10.5401C167.811 9.67612 167.579 9.01212 167.115 8.54812C166.667 8.06812 166.043 7.82812 165.243 7.82812C164.443 7.82812 163.811 8.06812 163.347 8.54812C162.899 9.01212 162.675 9.67612 162.675 10.5401V17.8121H158.595V10.5401C158.595 9.67612 158.363 9.01212 157.899 8.54812C157.451 8.06812 156.827 7.82812 156.027 7.82812C155.227 7.82812 154.595 8.06812 154.131 8.54812C153.683 9.01212 153.459 9.67612 153.459 10.5401V17.8121H149.355V4.42012H153.459V6.10012C153.875 5.54012 154.419 5.10012 155.091 4.78012C155.763 4.44412 156.523 4.27612 157.371 4.27612C158.379 4.27612 159.275 4.49212 160.059 4.92412C160.859 5.35612 161.483 5.97212 161.931 6.77212C162.395 6.03612 163.027 5.43612 163.827 4.97212C164.627 4.50812 165.499 4.27612 166.443 4.27612Z" fill="black"/>
<path d="M187.385 10.9001C187.385 11.2841 187.361 11.6841 187.313 12.1001H178.025C178.089 12.9321 178.353 13.5721 178.817 14.0201C179.297 14.4521 179.881 14.6681 180.569 14.6681C181.593 14.6681 182.305 14.2361 182.705 13.3721H187.073C186.849 14.2521 186.441 15.0441 185.849 15.7481C185.273 16.4521 184.545 17.0041 183.665 17.4041C182.785 17.8041 181.801 18.0041 180.713 18.0041C179.401 18.0041 178.233 17.7241 177.209 17.1641C176.185 16.6041 175.385 15.8041 174.809 14.7641C174.233 13.7241 173.945 12.5081 173.945 11.1161C173.945 9.72412 174.225 8.50812 174.785 7.46812C175.361 6.42812 176.161 5.62812 177.185 5.06812C178.209 4.50812 179.385 4.22812 180.713 4.22812C182.009 4.22812 183.161 4.50012 184.169 5.04412C185.177 5.58812 185.961 6.36412 186.521 7.37212C187.097 8.38012 187.385 9.55612 187.385 10.9001ZM183.185 9.82012C183.185 9.11612 182.945 8.55612 182.465 8.14012C181.985 7.72412 181.385 7.51612 180.665 7.51612C179.977 7.51612 179.393 7.71612 178.913 8.11612C178.449 8.51612 178.161 9.08412 178.049 9.82012H183.185Z" fill="black"/>
<path d="M202.174 10.9001C202.174 11.2841 202.15 11.6841 202.102 12.1001H192.814C192.878 12.9321 193.142 13.5721 193.606 14.0201C194.086 14.4521 194.67 14.6681 195.358 14.6681C196.382 14.6681 197.094 14.2361 197.494 13.3721H201.862C201.638 14.2521 201.23 15.0441 200.638 15.7481C200.062 16.4521 199.334 17.0041 198.454 17.4041C197.574 17.8041 196.59 18.0041 195.502 18.0041C194.19 18.0041 193.022 17.7241 191.998 17.1641C190.974 16.6041 190.174 15.8041 189.598 14.7641C189.022 13.7241 188.734 12.5081 188.734 11.1161C188.734 9.72412 189.014 8.50812 189.574 7.46812C190.15 6.42812 190.95 5.62812 191.974 5.06812C192.998 4.50812 194.174 4.22812 195.502 4.22812C196.798 4.22812 197.95 4.50012 198.958 5.04412C199.966 5.58812 200.75 6.36412 201.31 7.37212C201.886 8.38012 202.174 9.55612 202.174 10.9001ZM197.974 9.82012C197.974 9.11612 197.734 8.55612 197.254 8.14012C196.774 7.72412 196.174 7.51612 195.454 7.51612C194.766 7.51612 194.182 7.71612 193.702 8.11612C193.238 8.51612 192.95 9.08412 192.838 9.82012H197.974Z" fill="black"/>
<path d="M211.804 14.3321V17.8121H209.716C208.228 17.8121 207.068 17.4521 206.236 16.7321C205.404 15.9961 204.988 14.8041 204.988 13.1561V7.82812H203.356V4.42012H204.988V1.15612H209.092V4.42012H211.78V7.82812H209.092V13.2041C209.092 13.6041 209.188 13.8921 209.38 14.0681C209.572 14.2441 209.892 14.3321 210.34 14.3321H211.804Z" fill="black"/>
<path d="M213.274 11.0921C213.274 9.71612 213.53 8.50812 214.042 7.46812C214.57 6.42812 215.282 5.62812 216.178 5.06812C217.074 4.50812 218.074 4.22812 219.178 4.22812C220.122 4.22812 220.946 4.42012 221.65 4.80412C222.37 5.18812 222.922 5.69212 223.306 6.31612V4.42012H227.41V17.8121H223.306V15.9161C222.906 16.5401 222.346 17.0441 221.626 17.4281C220.922 17.8121 220.098 18.0041 219.154 18.0041C218.066 18.0041 217.074 17.7241 216.178 17.1641C215.282 16.5881 214.57 15.7801 214.042 14.7401C213.53 13.6841 213.274 12.4681 213.274 11.0921ZM223.306 11.1161C223.306 10.0921 223.018 9.28412 222.442 8.69212C221.882 8.10012 221.194 7.80412 220.378 7.80412C219.562 7.80412 218.866 8.10012 218.29 8.69212C217.73 9.26812 217.45 10.0681 217.45 11.0921C217.45 12.1161 217.73 12.9321 218.29 13.5401C218.866 14.1321 219.562 14.4281 220.378 14.4281C221.194 14.4281 221.882 14.1321 222.442 13.5401C223.018 12.9481 223.306 12.1401 223.306 11.1161Z" fill="black"/>
<path d="M234.483 6.31612C234.867 5.69212 235.419 5.18812 236.139 4.80412C236.859 4.42012 237.683 4.22812 238.611 4.22812C239.715 4.22812 240.715 4.50812 241.611 5.06812C242.507 5.62812 243.211 6.42812 243.723 7.46812C244.251 8.50812 244.515 9.71612 244.515 11.0921C244.515 12.4681 244.251 13.6841 243.723 14.7401C243.211 15.7801 242.507 16.5881 241.611 17.1641C240.715 17.7241 239.715 18.0041 238.611 18.0041C237.667 18.0041 236.843 17.8201 236.139 17.4521C235.435 17.0681 234.883 16.5641 234.483 15.9401V17.8121H230.379V0.052124H234.483V6.31612ZM240.339 11.0921C240.339 10.0681 240.051 9.26812 239.475 8.69212C238.915 8.10012 238.219 7.80412 237.387 7.80412C236.571 7.80412 235.875 8.10012 235.299 8.69212C234.739 9.28412 234.459 10.0921 234.459 11.1161C234.459 12.1401 234.739 12.9481 235.299 13.5401C235.875 14.1321 236.571 14.4281 237.387 14.4281C238.203 14.4281 238.899 14.1321 239.475 13.5401C240.051 12.9321 240.339 12.1161 240.339 11.0921Z" fill="black"/>
<path d="M250.772 0.052124V17.8121H246.668V0.052124H250.772Z" fill="black"/>
<path d="M266.37 10.9001C266.37 11.2841 266.346 11.6841 266.298 12.1001H257.01C257.074 12.9321 257.338 13.5721 257.802 14.0201C258.282 14.4521 258.866 14.6681 259.554 14.6681C260.578 14.6681 261.29 14.2361 261.69 13.3721H266.058C265.834 14.2521 265.426 15.0441 264.834 15.7481C264.258 16.4521 263.53 17.0041 262.65 17.4041C261.77 17.8041 260.786 18.0041 259.698 18.0041C258.386 18.0041 257.218 17.7241 256.194 17.1641C255.17 16.6041 254.37 15.8041 253.794 14.7641C253.218 13.7241 252.93 12.5081 252.93 11.1161C252.93 9.72412 253.21 8.50812 253.77 7.46812C254.346 6.42812 255.146 5.62812 256.17 5.06812C257.194 4.50812 258.37 4.22812 259.698 4.22812C260.994 4.22812 262.146 4.50012 263.154 5.04412C264.162 5.58812 264.946 6.36412 265.506 7.37212C266.082 8.38012 266.37 9.55612 266.37 10.9001ZM262.17 9.82012C262.17 9.11612 261.93 8.55612 261.45 8.14012C260.97 7.72412 260.37 7.51612 259.65 7.51612C258.962 7.51612 258.378 7.71612 257.898 8.11612C257.434 8.51612 257.146 9.08412 257.034 9.82012H262.17Z" fill="black"/>
<path d="M273.935 0.364123L273.455 11.8601H269.975L269.495 0.364123H273.935ZM271.775 18.0041C271.055 18.0041 270.463 17.7961 269.999 17.3801C269.551 16.9481 269.327 16.4201 269.327 15.7961C269.327 15.1561 269.551 14.6201 269.999 14.1881C270.463 13.7561 271.055 13.5401 271.775 13.5401C272.479 13.5401 273.055 13.7561 273.503 14.1881C273.967 14.6201 274.199 15.1561 274.199 15.7961C274.199 16.4201 273.967 16.9481 273.503 17.3801C273.055 17.7961 272.479 18.0041 271.775 18.0041Z" fill="black"/>
</svg>
