<svg width="79" height="79" viewBox="0 0 79 79" fill="none" xmlns="http://www.w3.org/2000/svg">
<mask id="mask0" mask-type="alpha" maskUnits="userSpaceOnUse" x="0" y="0" width="79" height="79">
<circle cx="39.4243" cy="39.4243" r="39.4243" fill="#C4C4C4"/>
</mask>
<g mask="url(#mask0)">
<path fill-rule="evenodd" clip-rule="evenodd" d="M80.4416 37.6321H39.4243V51.2416C40.5958 50.5639 41.9559 50.1761 43.4066 50.1761C47.8053 50.1761 51.3711 53.7419 51.3711 58.1406C51.3711 62.5393 47.8053 66.1051 43.4066 66.1051C41.9559 66.1051 40.5958 65.7173 39.4243 65.0396V78.6493H80.4416V37.6321Z" fill="#FFE083"/>
<path d="M39.4243 37.6321V36.1387C38.5996 36.1387 37.931 36.8073 37.931 37.6321H39.4243ZM80.4416 37.6321H81.9349C81.9349 36.8073 81.2663 36.1387 80.4416 36.1387V37.6321ZM39.4243 51.2416H37.931C37.931 51.7754 38.2158 52.2685 38.6782 52.5352C39.1405 52.8019 39.7101 52.8015 40.1721 52.5343L39.4243 51.2416ZM39.4243 65.0396L40.1721 63.7469C39.7101 63.4797 39.1405 63.4793 38.6782 63.746C38.2158 64.0127 37.931 64.5058 37.931 65.0396H39.4243ZM39.4243 78.6493H37.931C37.931 79.4741 38.5996 80.1427 39.4243 80.1427V78.6493ZM80.4416 78.6493V80.1427C81.2663 80.1427 81.9349 79.4741 81.9349 78.6493H80.4416ZM39.4243 39.1254H80.4416V36.1387H39.4243V39.1254ZM40.9177 51.2416V37.6321H37.931V51.2416H40.9177ZM40.1721 52.5343C41.1224 51.9845 42.2254 51.6694 43.4066 51.6694V48.6827C41.6864 48.6827 40.0692 49.1433 38.6766 49.949L40.1721 52.5343ZM43.4066 51.6694C46.9805 51.6694 49.8778 54.5667 49.8778 58.1406H52.8645C52.8645 52.9172 48.63 48.6827 43.4066 48.6827V51.6694ZM49.8778 58.1406C49.8778 61.7145 46.9805 64.6118 43.4066 64.6118V67.5985C48.63 67.5985 52.8645 63.364 52.8645 58.1406H49.8778ZM43.4066 64.6118C42.2254 64.6118 41.1224 64.2967 40.1721 63.7469L38.6766 66.3322C40.0692 67.1378 41.6864 67.5985 43.4066 67.5985V64.6118ZM40.9177 78.6493V65.0396H37.931V78.6493H40.9177ZM80.4416 77.156H39.4243V80.1427H80.4416V77.156ZM78.9482 37.6321V78.6493H81.9349V37.6321H78.9482Z" fill="white"/>
<path fill-rule="evenodd" clip-rule="evenodd" d="M80.4416 -1.59302H39.4243V39.4242H53.0339C52.3563 40.5957 51.9684 41.9558 51.9684 43.4065C51.9684 47.8051 55.5343 51.371 59.9329 51.371C64.3316 51.371 67.8975 47.8051 67.8975 43.4065C67.8975 41.9558 67.5096 40.5957 66.832 39.4242H80.4416V-1.59302Z" fill="#FFBC01"/>
<path d="M39.4243 -1.59302V-3.08636C38.5996 -3.08636 37.931 -2.41777 37.931 -1.59302L39.4243 -1.59302ZM80.4416 -1.59302H81.9349C81.9349 -2.41777 81.2663 -3.08636 80.4416 -3.08636V-1.59302ZM39.4243 39.4242H37.931C37.931 40.249 38.5996 40.9176 39.4243 40.9176V39.4242ZM53.0339 39.4242L54.3266 40.172C54.5938 39.71 54.5942 39.1404 54.3275 38.6781C54.0608 38.2157 53.5677 37.9309 53.0339 37.9309V39.4242ZM66.832 39.4242V37.9309C66.2982 37.9309 65.8051 38.2157 65.5384 38.6781C65.2717 39.1404 65.2721 39.71 65.5393 40.172L66.832 39.4242ZM80.4416 39.4242V40.9176C81.2663 40.9176 81.9349 40.249 81.9349 39.4242H80.4416ZM39.4243 -0.0996711H80.4416V-3.08636H39.4243V-0.0996711ZM40.9177 39.4242V-1.59302H37.931V39.4242H40.9177ZM53.0339 37.9309H39.4243V40.9176H53.0339V37.9309ZM53.4618 43.4065C53.4618 42.2253 53.7769 41.1223 54.3266 40.172L51.7413 38.6765C50.9357 40.0691 50.4751 41.6863 50.4751 43.4065H53.4618ZM59.9329 49.8776C56.359 49.8776 53.4618 46.9804 53.4618 43.4065H50.4751C50.4751 48.6299 54.7095 52.8643 59.9329 52.8643V49.8776ZM66.4041 43.4065C66.4041 46.9804 63.5069 49.8776 59.9329 49.8776V52.8643C65.1564 52.8643 69.3908 48.6299 69.3908 43.4065H66.4041ZM65.5393 40.172C66.089 41.1223 66.4041 42.2253 66.4041 43.4065H69.3908C69.3908 41.6863 68.9302 40.0691 68.1246 38.6765L65.5393 40.172ZM80.4416 37.9309H66.832V40.9176H80.4416V37.9309ZM78.9482 -1.59302V39.4242H81.9349V-1.59302H78.9482Z" fill="white"/>
<path fill-rule="evenodd" clip-rule="evenodd" d="M-1.5929 -1.59302H39.4243V12.0166C40.5958 11.339 41.9559 10.9511 43.4066 10.9511C47.8053 10.9511 51.3711 14.517 51.3711 18.9156C51.3711 23.3143 47.8053 26.8801 43.4066 26.8801C41.9559 26.8801 40.5958 26.4923 39.4243 25.8147V39.4242H25.8148C26.4924 38.2528 26.8803 36.8927 26.8803 35.442C26.8803 31.0433 23.3144 27.4775 18.9158 27.4775C14.5171 27.4775 10.9512 31.0433 10.9512 35.442C10.9512 36.8927 11.3391 38.2528 12.0167 39.4242H-1.5929V-1.59302Z" fill="#42DFFE"/>
<path d="M39.4243 -1.59302H40.9177C40.9177 -2.41777 40.2491 -3.08636 39.4243 -3.08636V-1.59302ZM-1.5929 -1.59302V-3.08636C-2.41765 -3.08636 -3.08624 -2.41777 -3.08624 -1.59302L-1.5929 -1.59302ZM39.4243 12.0166H37.931C37.931 12.5504 38.2159 13.0435 38.6782 13.3102C39.1406 13.5769 39.7101 13.5765 40.1721 13.3093L39.4243 12.0166ZM39.4243 25.8147L40.1721 24.522C39.7101 24.2547 39.1406 24.2544 38.6782 24.5211C38.2159 24.7877 37.931 25.2809 37.931 25.8147H39.4243ZM39.4243 39.4242V40.9176C40.2491 40.9176 40.9177 40.249 40.9177 39.4242H39.4243ZM25.8148 39.4242L24.5221 38.6765C24.2549 39.1385 24.2545 39.708 24.5212 40.1704C24.7879 40.6327 25.281 40.9176 25.8148 40.9176V39.4242ZM12.0167 39.4242V40.9176C12.5505 40.9176 13.0436 40.6327 13.3103 40.1704C13.577 39.708 13.5766 39.1385 13.3094 38.6765L12.0167 39.4242ZM-1.5929 39.4242H-3.08624C-3.08624 40.249 -2.41765 40.9176 -1.5929 40.9176L-1.5929 39.4242ZM39.4243 -3.08636H-1.5929V-0.0996711H39.4243V-3.08636ZM40.9177 12.0166V-1.59302H37.931V12.0166H40.9177ZM40.1721 13.3093C41.1224 12.7596 42.2254 12.4445 43.4066 12.4445V9.45778C41.6864 9.45778 40.0692 9.91837 38.6766 10.724L40.1721 13.3093ZM43.4066 12.4445C46.9805 12.4445 49.8777 15.3417 49.8777 18.9156H52.8644C52.8644 13.6922 48.63 9.45778 43.4066 9.45778V12.4445ZM49.8777 18.9156C49.8777 22.4896 46.9805 25.3868 43.4066 25.3868V28.3735C48.63 28.3735 52.8644 24.1391 52.8644 18.9156H49.8777ZM43.4066 25.3868C42.2254 25.3868 41.1224 25.0717 40.1721 24.522L38.6766 27.1073C40.0692 27.9129 41.6864 28.3735 43.4066 28.3735V25.3868ZM40.9177 39.4242V25.8147H37.931V39.4242H40.9177ZM25.8148 40.9176H39.4243V37.9309H25.8148V40.9176ZM25.3869 35.442C25.3869 36.6232 25.0718 37.7262 24.5221 38.6765L27.1074 40.172C27.913 38.7793 28.3736 37.1622 28.3736 35.442H25.3869ZM18.9158 28.9708C22.4897 28.9708 25.3869 31.8681 25.3869 35.442H28.3736C28.3736 30.2186 24.1392 25.9841 18.9158 25.9841V28.9708ZM12.4446 35.442C12.4446 31.8681 15.3418 28.9708 18.9158 28.9708V25.9841C13.6923 25.9841 9.4579 30.2186 9.4579 35.442H12.4446ZM13.3094 38.6765C12.7597 37.7262 12.4446 36.6232 12.4446 35.442H9.4579C9.4579 37.1622 9.91849 38.7793 10.7241 40.172L13.3094 38.6765ZM-1.5929 40.9176H12.0167V37.9309H-1.5929V40.9176ZM-3.08624 -1.59302V39.4242H-0.0995491V-1.59302H-3.08624Z" fill="white"/>
<path fill-rule="evenodd" clip-rule="evenodd" d="M80.0421 80.8057L39.0258 80.5228L39.1197 66.9135C37.9436 67.5831 36.5808 67.9615 35.1301 67.9515C30.7315 67.9212 27.1904 64.3308 27.2207 59.9323C27.2511 55.5337 30.8414 51.9925 35.24 52.0229C36.6907 52.0329 38.0481 52.4301 39.2148 53.1159L39.3087 39.5065L52.918 39.6004C52.2322 40.7671 51.835 42.1245 51.825 43.5751C51.7947 47.9737 55.3358 51.5641 59.7344 51.5944C64.133 51.6247 67.7233 48.0836 67.7537 43.685C67.7637 42.2344 67.3852 40.8716 66.7157 39.6955L80.325 39.7894L80.0421 80.8057Z" fill="#FFE083"/>
<path d="M39.0258 80.5228L37.5325 80.5125C37.5268 81.3372 38.1908 82.0104 39.0155 82.0161L39.0258 80.5228ZM80.0421 80.8057L80.0318 82.299C80.4278 82.3017 80.8087 82.147 81.0907 81.8689C81.3727 81.5908 81.5327 81.212 81.5354 80.816L80.0421 80.8057ZM39.1197 66.9135L40.613 66.9238C40.6167 66.39 40.3352 65.8949 39.8747 65.6251C39.4142 65.3552 38.8447 65.3516 38.3809 65.6157L39.1197 66.9135ZM39.2148 53.1159L38.4582 54.4033C38.9183 54.6738 39.4879 54.678 39.952 54.4146C40.4162 54.1511 40.7045 53.6599 40.7082 53.1262L39.2148 53.1159ZM39.3087 39.5065L39.319 38.0132C38.4943 38.0075 37.8211 38.6715 37.8154 39.4962L39.3087 39.5065ZM52.918 39.6004L54.2054 40.357C54.4759 39.8969 54.4801 39.3273 54.2167 38.8632C53.9532 38.399 53.462 38.1107 52.9283 38.1071L52.918 39.6004ZM66.7157 39.6955L66.726 38.2022C66.1922 38.1985 65.6971 38.48 65.4273 38.9405C65.1574 39.401 65.1538 39.9705 65.4179 40.4344L66.7157 39.6955ZM80.325 39.7894L81.8183 39.7997C81.821 39.4036 81.6663 39.0227 81.3882 38.7408C81.1101 38.4588 80.7313 38.2988 80.3353 38.2961L80.325 39.7894ZM39.0155 82.0161L80.0318 82.299L80.0524 79.3124L39.0361 79.0295L39.0155 82.0161ZM37.6264 66.9032L37.5325 80.5125L40.5191 80.5331L40.613 66.9238L37.6264 66.9032ZM38.3809 65.6157C37.4268 66.1589 36.3216 66.4664 35.1404 66.4582L35.1198 69.4448C36.84 69.4567 38.4603 69.0072 39.8585 68.2112L38.3809 65.6157ZM35.1404 66.4582C31.5666 66.4336 28.6894 63.5164 28.714 59.9426L25.7274 59.922C25.6914 65.1453 29.8965 69.4088 35.1198 69.4448L35.1404 66.4582ZM28.714 59.9426C28.7387 56.3687 31.6558 53.4915 35.2297 53.5162L35.2503 50.5296C30.027 50.4935 25.7634 54.6987 25.7274 59.922L28.714 59.9426ZM35.2297 53.5162C36.4108 53.5243 37.5117 53.847 38.4582 54.4033L39.9715 51.8284C38.5844 51.0132 36.9705 50.5414 35.2503 50.5296L35.2297 53.5162ZM37.8154 39.4962L37.7215 53.1056L40.7082 53.1262L40.802 39.5168L37.8154 39.4962ZM52.9283 38.1071L39.319 38.0132L39.2984 40.9998L52.9077 41.0937L52.9283 38.1071ZM53.3183 43.5854C53.3265 42.4043 53.6492 41.3035 54.2054 40.357L51.6305 38.8437C50.8153 40.2308 50.3436 41.8447 50.3317 43.5648L53.3183 43.5854ZM59.7447 50.1011C56.1709 50.0764 53.2937 47.1593 53.3183 43.5854L50.3317 43.5648C50.2957 48.7882 54.5008 53.0517 59.7241 53.0877L59.7447 50.1011ZM66.2604 43.6747C66.2357 47.2486 63.3186 50.1257 59.7447 50.1011L59.7241 53.0877C64.9474 53.1237 69.211 48.9186 69.247 43.6953L66.2604 43.6747ZM65.4179 40.4344C65.961 41.3884 66.2685 42.4936 66.2604 43.6747L69.247 43.6953C69.2588 41.9752 68.8094 40.3549 68.0134 38.9567L65.4179 40.4344ZM80.3353 38.2961L66.726 38.2022L66.7054 41.1888L80.3147 41.2827L80.3353 38.2961ZM81.5354 80.816L81.8183 39.7997L78.8317 39.7791L78.5488 80.7954L81.5354 80.816Z" fill="white"/>
<circle cx="39.4243" cy="39.4243" r="37.931" stroke="white" stroke-width="2.98669"/>
</g>
</svg>
