<svg width="46" height="37" viewBox="0 0 46 37" fill="none" xmlns="http://www.w3.org/2000/svg">
<path d="M15.605 36.4652C15.1856 36.5129 14.8781 36.4174 14.4587 36.2981C12.8931 35.8448 12.1383 34.4131 12.6136 33.0768C13.0888 31.7645 15.4093 25.8229 15.4093 24.5344C15.4093 23.2698 13.3125 22.1483 11.6351 22.1483L3.24803 22.1483C1.57062 22.1483 0.452347 21.1938 0.452347 19.7621C0.452347 18.3304 6.04372 3.05905 6.04372 3.05905C6.51899 2.12845 7.58134 0.672894 8.8394 0.672894L34.392 0.672894L34.392 22.1483L28.4092 22.1483C27.263 23.1266 19.1834 33.387 18.4006 34.7233C17.8136 35.7016 16.7232 36.3459 15.605 36.4652ZM45.5747 22.1483L39.9833 22.1483L39.9833 0.672894L45.5747 0.672894L45.5747 22.1483Z" fill="#F5A159"/>
</svg>
