<svg width="46" height="37" viewBox="0 0 46 37" fill="none" xmlns="http://www.w3.org/2000/svg">
<path d="M30.8013 0.235695C31.2206 0.187972 31.5282 0.283418 31.9475 0.402725C33.5131 0.856094 34.2679 2.28779 33.7927 3.62403C33.3174 4.93641 30.997 10.8779 30.997 12.1665C30.997 13.4311 33.0938 14.5526 34.7712 14.5526L43.1582 14.5526C44.8356 14.5526 45.9539 15.5071 45.9539 16.9388C45.9539 18.3704 40.3625 33.6418 40.3625 33.6418C39.8873 34.5724 38.8249 36.028 37.5668 36.028L12.0143 36.028L12.0143 14.5526L17.9971 14.5526C19.1433 13.5743 27.2228 3.31383 28.0056 1.97759C28.5927 0.999263 29.683 0.355002 30.8013 0.235695ZM0.831543 14.5526L6.42291 14.5526L6.42291 36.028L0.831543 36.028L0.831543 14.5526Z" fill="#7ED1EF"/>
</svg>
