<svg width="91" height="89" viewBox="0 0 91 89" fill="none" xmlns="http://www.w3.org/2000/svg">
<g clip-path="url(#clip0)">
<path d="M14.4646 69.1277V43.9047L4.37897 53.7662L0.4021 49.8777L17.2771 33.3777L34.1521 49.8777L30.1752 53.7662L20.0896 43.9047V69.1277H53.8396V74.6277H20.0896C18.5982 74.6262 17.1683 74.0463 16.1138 73.0152C15.0592 71.984 14.4661 70.5859 14.4646 69.1277Z" fill="#F5A159"/>
<path d="M67.9021 60.8777H79.1521C80.6435 60.8791 82.0734 61.4591 83.1279 62.4902C84.1825 63.5213 84.7756 64.9194 84.7771 66.3777V77.3777C84.7756 78.8359 84.1825 80.234 83.1279 81.2652C82.0734 82.2963 80.6435 82.8762 79.1521 82.8777H67.9021C66.4107 82.8762 64.9808 82.2963 63.9263 81.2652C62.8717 80.234 62.2786 78.8359 62.2771 77.3777V66.3777C62.2786 64.9194 62.8717 63.5213 63.9263 62.4902C64.9808 61.4591 66.4107 60.8791 67.9021 60.8777ZM79.1521 77.3777V66.3777H67.8965L67.9021 77.3777H79.1521Z" fill="#F5A159"/>
<path d="M76.3396 16.8777V42.1007L86.4252 32.2392L90.4021 36.1277L73.5271 52.6277L56.6521 36.1277L60.629 32.2392L70.7146 42.1007V16.8777H36.9646V11.3777H70.7146C72.206 11.3791 73.6359 11.9591 74.6904 12.9902C75.745 14.0213 76.3381 15.4194 76.3396 16.8777Z" fill="#F5A159"/>
<path d="M6.0271 16.8777H22.9021V22.3777H6.0271V16.8777Z" fill="#F5A159"/>
<path d="M6.0271 5.87769H28.5271V11.3777H6.0271V5.87769Z" fill="#F5A159"/>
</g>
<defs>
<clipPath id="clip0">
<rect width="90" height="88" fill="white" transform="translate(0.4021 0.377686)"/>
</clipPath>
</defs>
</svg>
