<svg width="269" height="248" viewBox="0 0 269 248" fill="none" xmlns="http://www.w3.org/2000/svg">
<rect x="76.965" y="67.2348" width="116.753" height="24.178" rx="12.089" fill="#7ED1EF"/>
<rect x="113.659" y="29.1936" width="116.753" height="24.178" rx="12.089" fill="#FBBA82"/>
<rect x="113.659" y="104.495" width="116.753" height="24.178" rx="12.089" fill="#FFE083"/>
<rect x="113.659" y="141.755" width="116.753" height="24.178" rx="12.089" fill="#FBBA82"/>
<path d="M16.8558 133.972L13.7177 121.639L6.7603 122.352L9.02979 139.929C13.7178 147.677 26.1898 151.59 18.6749 138.004C28.5576 138.397 27.0167 135.788 16.8558 133.972Z" fill="#926743"/>
<path d="M84.2017 96.5605L73.9998 103.73L77.0607 109.876L92.3633 101.682C104.606 90.4149 97.0962 81.8605 87.2623 93.4877C84.2017 84.2693 82.3464 86.5923 84.2017 96.5605Z" fill="#926743"/>
<path d="M13.0491 84.5638C20.9278 75.5596 31.0574 77.8106 26.5555 90.1914C20.4556 101.514 16.9122 107.731 16.4256 125.083H6.2958C6.7795 104.556 8.12495 90.1914 13.0491 84.5638Z" fill="#D9A30E"/>
<path d="M53.4259 135.213C50.5443 111.502 55.857 82.9177 44.4217 81.1872L27.5387 78.9361C15.2013 76.3774 16.5044 93.5755 19.4816 116.574L17.5312 133.054C26.5421 139.841 35.1276 139.487 53.4259 135.213Z" fill="#FFBC01"/>
<path d="M46.2455 99.0118C33.8647 85.5055 43.9944 75.3757 52.9987 85.5055C58.6264 91.8366 64.254 108.016 75.5093 101.263C77.7946 102.5 80.1031 107.186 80.0114 109.142C80.0114 109.142 67.6306 119.271 62.0029 115.895C56.3753 112.518 47.1459 99.9123 46.2455 99.0118Z" fill="#D9A30E"/>
<path d="M41.0453 73.3085C51.7676 74.2669 49.5968 64.9379 47.7985 50.7979C44.312 54.4135 43.7263 56.362 43.2961 59.8022C39.6627 56.0466 32.0409 57.5511 39.9196 65.4298L30.9153 72.183L28.6643 80.0617C32.522 83.8793 35.029 83.771 39.9196 81.1872L41.0453 73.3085Z" fill="#926743"/>
<path d="M36.5425 41.7937C30.0479 40.8441 27.1448 41.4186 25.2872 47.4214C16.2064 52.8958 24.162 67.6809 30.9152 73.3085C34.2918 72.183 35.4173 68.8064 39.9194 65.4298C36.5429 62.0532 35.4173 55.3001 43.2959 59.8022C44.4216 53.049 54.5513 47.4214 51.1746 45.1703L50.0489 44.0448C53.4256 39.5426 50.0101 39.5632 47.7978 40.6682C44.9384 42.3104 41.656 42.5414 36.5425 41.7937Z" fill="#63C8B6"/>
<path d="M48.9229 59.8021C52.097 64.2844 52.0983 65.529 48.9229 65.4298V59.8021Z" fill="#684A31"/>
<circle r="1.26786" transform="matrix(-1 0 0 1 46.1068 59.2027)" fill="#37464D"/>
<path d="M44.9334 56.9583C44.9862 57.1252 45.4747 56.7872 46.1423 56.5761C46.81 56.3651 47.404 56.3609 47.3512 56.194C47.2985 56.0271 46.6442 55.5432 45.9766 55.7543C45.3089 55.9653 44.8807 56.7914 44.9334 56.9583Z" fill="#37464D"/>
<path d="M48.5825 67.9915C48.7175 67.6946 48.0657 67.7565 47.4283 67.4667C46.7909 67.1768 46.4092 66.645 46.2742 66.9419C46.1392 67.2387 46.0665 68.5534 46.7039 68.8433C47.3413 69.1331 48.4475 68.2883 48.5825 67.9915Z" fill="#684A31"/>
<path d="M28.0397 225.293L26.4131 217.376L19.1646 220.855L19.6599 228.146C23.0241 229.357 25.4204 228.528 28.0397 225.293Z" fill="#926743"/>
<path d="M50.0493 238.761V225.255L41.0451 229.757L42.1706 239.887L50.0493 238.761Z" fill="#926743"/>
<path d="M27.0889 223.708C26.6135 225.293 21.7005 227.512 19.1648 224.976C16.946 230.998 21.9112 235.385 27.5388 229.757L35.4175 220.753C37.6686 215.125 34.7374 212.767 27.5388 216.251L23.0367 220.753L25.2213 222.072C25.821 221.489 27.5644 222.123 27.0889 223.708Z" fill="#37464D"/>
<path d="M41.0451 236.51C38.4375 244.761 39.0656 249.459 48.7205 246.64H63.3524C72.3566 246.64 70.1056 239.887 62.2268 237.636C56.4416 237.057 53.7495 236.613 50.9715 235.385C46.877 238.177 43.9792 238.471 41.0451 236.51Z" fill="#37464D"/>
<path d="M18.5347 131.836L52.3006 134.087C53.3932 174.75 53.4979 196.303 50.5444 232.9C45.8503 234.723 43.6459 234.552 41.0453 233.134C37.7737 209.258 35.0992 193.595 36.5431 182.485L33.1666 154.347C31.5699 178.509 29.9514 192.17 26.455 221.172C23.2853 223.004 20.9388 223.343 18.2139 222.44C15.8479 199.531 13.3801 188.361 18.5347 176.797C15.7428 157.461 12.5085 143.516 18.5347 131.836Z" fill="#42DFFE"/>
<g filter="url(#filter0_d)">
<circle cx="232.883" cy="181.392" r="26.4219" transform="rotate(-17.604 232.883 181.392)" fill="white" fill-opacity="0.92"/>
<path d="M232.789 166.851C233.018 166.741 233.215 166.747 233.48 166.748C234.475 166.757 235.221 167.573 235.244 168.557C235.261 169.525 235.244 173.937 235.528 174.8C235.807 175.646 237.251 176.003 238.21 175.687L243.001 174.111C243.959 173.796 244.808 174.224 245.123 175.182C245.438 176.141 245.607 187.413 245.607 187.413C245.541 188.125 245.255 189.299 244.536 189.535L229.939 194.338L225.21 179.965L228.627 178.84C229.067 177.97 231.423 169.584 231.576 168.543C231.695 167.778 232.176 167.141 232.789 166.851ZM218.822 182.067L222.016 181.016L226.745 195.389L223.551 196.44L218.822 182.067Z" fill="#7ED1EF"/>
</g>
<g filter="url(#filter1_d)">
<circle cx="93.044" cy="64.4651" r="12.9676" transform="rotate(-18.2676 93.044 64.4651)" fill="white" fill-opacity="0.92"/>
<path d="M92.9152 57.3297C93.027 57.274 93.1236 57.2759 93.254 57.2749C93.742 57.2737 94.113 57.6701 94.1297 58.1527C94.1438 58.6275 94.1605 60.7932 94.3047 61.2148C94.4462 61.6286 95.1572 61.7953 95.6257 61.6351L97.968 60.8343C98.4364 60.6741 98.8555 60.8796 99.0157 61.3481C99.1759 61.8165 99.3229 67.3473 99.3229 67.3473C99.2943 67.6972 99.1604 68.2749 98.8091 68.395L91.6729 70.8351L89.2703 63.8082L90.9411 63.2369C91.1518 62.8073 92.2602 58.6786 92.3294 58.1666C92.3839 57.7904 92.6163 57.4755 92.9152 57.3297ZM86.1472 64.8761L87.7088 64.3421L90.1114 71.369L88.5499 71.9029L86.1472 64.8761Z" fill="#7ED1EF"/>
</g>
<g filter="url(#filter2_d)">
<circle cx="143.931" cy="24.0432" r="19.3407" transform="rotate(-16.5259 143.931 24.0432)" fill="white" fill-opacity="0.95"/>
<path d="M143.647 34.5497C143.477 34.6258 143.333 34.6171 143.139 34.6106C142.412 34.5825 141.883 33.9691 141.887 33.2489C141.896 32.5405 142.003 29.3122 141.814 28.6751C141.629 28.0498 140.579 27.7578 139.871 27.9678L136.332 29.018C135.624 29.2281 135.012 28.8962 134.802 28.1883C134.592 27.4804 134.711 19.2294 134.711 19.2294C134.775 18.7097 135.01 17.857 135.541 17.6995L146.324 14.4999L149.475 25.1184L146.95 25.8675C146.61 26.4947 144.706 32.5797 144.571 33.3384C144.467 33.8956 144.101 34.3507 143.647 34.5497ZM154.194 23.7181L151.835 24.4182L148.684 13.7998L151.044 13.0997L154.194 23.7181Z" fill="#F5A159"/>
</g>
<g filter="url(#filter3_d)">
<circle cx="188.704" cy="94.0379" r="18.809" transform="rotate(6.19683 188.704 94.0379)" fill="white" fill-opacity="0.95"/>
<path fill-rule="evenodd" clip-rule="evenodd" d="M187.683 102.595C175.402 94.102 181.799 81.5601 189.272 89.4371C198.389 83.5399 201.655 97.2351 187.72 102.599L187.718 102.619C187.712 102.615 187.706 102.611 187.7 102.607C187.694 102.609 187.687 102.612 187.681 102.614L187.683 102.595Z" fill="#FF8D8D"/>
</g>
<defs>
<filter id="filter0_d" x="197.049" y="148.217" width="71.6689" height="71.6689" filterUnits="userSpaceOnUse" color-interpolation-filters="sRGB">
<feFlood flood-opacity="0" result="BackgroundImageFix"/>
<feColorMatrix in="SourceAlpha" type="matrix" values="0 0 0 0 0 0 0 0 0 0 0 0 0 0 0 0 0 0 127 0"/>
<feOffset dy="2.65889"/>
<feGaussianBlur stdDeviation="1.32945"/>
<feColorMatrix type="matrix" values="0 0 0 0 0 0 0 0 0 0 0 0 0 0 0 0 0 0 0.25 0"/>
<feBlend mode="normal" in2="BackgroundImageFix" result="effect1_dropShadow"/>
<feBlend mode="normal" in="SourceGraphic" in2="effect1_dropShadow" result="shape"/>
</filter>
<filter id="filter1_d" x="75.0844" y="48.0863" width="35.9193" height="35.9193" filterUnits="userSpaceOnUse" color-interpolation-filters="sRGB">
<feFlood flood-opacity="0" result="BackgroundImageFix"/>
<feColorMatrix in="SourceAlpha" type="matrix" values="0 0 0 0 0 0 0 0 0 0 0 0 0 0 0 0 0 0 127 0"/>
<feOffset dy="1.58075"/>
<feGaussianBlur stdDeviation="0.790376"/>
<feColorMatrix type="matrix" values="0 0 0 0 0 0 0 0 0 0 0 0 0 0 0 0 0 0 0.25 0"/>
<feBlend mode="normal" in2="BackgroundImageFix" result="effect1_dropShadow"/>
<feBlend mode="normal" in="SourceGraphic" in2="effect1_dropShadow" result="shape"/>
</filter>
<filter id="filter2_d" x="117.907" y="7.62939e-06" width="52.0492" height="52.0492" filterUnits="userSpaceOnUse" color-interpolation-filters="sRGB">
<feFlood flood-opacity="0" result="BackgroundImageFix"/>
<feColorMatrix in="SourceAlpha" type="matrix" values="0 0 0 0 0 0 0 0 0 0 0 0 0 0 0 0 0 0 127 0"/>
<feOffset dy="1.98145"/>
<feGaussianBlur stdDeviation="0.990727"/>
<feColorMatrix type="matrix" values="0 0 0 0 0 0 0 0 0 0 0 0 0 0 0 0 0 0 0.25 0"/>
<feBlend mode="normal" in2="BackgroundImageFix" result="effect1_dropShadow"/>
<feBlend mode="normal" in="SourceGraphic" in2="effect1_dropShadow" result="shape"/>
</filter>
<filter id="filter3_d" x="165.225" y="73.3085" width="46.9573" height="46.9573" filterUnits="userSpaceOnUse" color-interpolation-filters="sRGB">
<feFlood flood-opacity="0" result="BackgroundImageFix"/>
<feColorMatrix in="SourceAlpha" type="matrix" values="0 0 0 0 0 0 0 0 0 0 0 0 0 0 0 0 0 0 127 0"/>
<feOffset dy="2.74929"/>
<feGaussianBlur stdDeviation="1.37465"/>
<feColorMatrix type="matrix" values="0 0 0 0 0 0 0 0 0 0 0 0 0 0 0 0 0 0 0.25 0"/>
<feBlend mode="normal" in2="BackgroundImageFix" result="effect1_dropShadow"/>
<feBlend mode="normal" in="SourceGraphic" in2="effect1_dropShadow" result="shape"/>
</filter>
</defs>
</svg>
