<svg width="346" height="320" viewBox="0 0 346 320" fill="none" xmlns="http://www.w3.org/2000/svg">
<g filter="url(#filter0_d)">
<path d="M213.952 99.685L228.682 102.023L228.597 110.219L207.841 109.458C199.477 106.975 191.241 106.366 190.531 103.169C189.622 99.0788 207.841 97.0774 207.841 97.0774L213.952 99.685Z" fill="#D0A179"/>
<path d="M267.704 112.459L307.349 121.934C326.456 141.958 314.374 161.203 311.33 202.314C319.195 221.33 314.462 240.627 311.33 270.031H299.609L292.447 212.081C289.467 190.694 288.135 178.725 285.936 157.386C284.83 174.744 283.371 183.938 278.774 199.058C283.513 215.112 279.213 232.264 274.867 258.962L263.147 257.008C262.249 230.373 261.683 215.602 259.891 191.245C259.809 160.568 261.17 143.329 267.704 112.459Z" fill="#7ED1EF"/>
<path d="M310.424 129.959L316.417 118.219L326.453 124.677L314.454 139.961C311.442 141.771 308.504 136.91 301.677 144.581C290.349 137.436 290.962 136.718 301.004 130.856C302.967 129.71 310.424 129.959 310.424 129.959Z" fill="#D0A179"/>
<path d="M313.283 264.17C306.872 261.899 302.43 262.661 296.956 264.17C298.247 276.376 300.578 283.219 298.307 295.424C294.672 314.958 314.585 320.167 311.981 294.122C310.874 283.053 310.508 276.528 313.283 264.17Z" fill="#FFBC01"/>
<path d="M278.084 251.799C271.448 250.256 262.496 251.799 262.496 251.799C263.258 271.93 259.669 280.361 242.311 287.611C239.102 294.164 245.567 294.773 254.031 292.169C262.496 289.564 264.987 285.293 272.263 283.053C278.042 282.525 276.13 270.031 278.084 251.799Z" fill="#FFBC01"/>
<path d="M276.169 64.9273C266.761 59.5009 259.745 71.9489 248.171 98.1345C237.654 97.9885 231.62 98.8894 220.824 100.739C222.74 104.807 222.439 107.088 220.824 111.157C233.764 112.724 241.287 112.997 255.333 112.459C270.918 97.4094 273.174 85.9147 276.169 64.9273Z" fill="#02A3F4"/>
<path d="M308.278 123.193C314.883 88.2801 329.436 65.0959 292.329 63.0344L274.659 64.2124C262.646 79.4203 260.018 86.906 267.053 98.7855L265.817 122.249C280.719 126.697 294.445 125.916 308.278 123.193Z" fill="white"/>
<path d="M319.669 71.2638C302.245 57.3249 300.36 81.469 325.145 103.373C321.66 106.111 318.176 112.832 313.944 122.539C318.938 123.064 321.449 123.353 325.145 128.762L338.835 108.6C346.551 100.386 337.093 85.2027 319.669 71.2638Z" fill="#02A3F4"/>
<path d="M292.447 49.3003C307.423 47.998 299.738 31.8168 292.447 40.1846L269.007 19.9997C263.452 28.2087 263.028 32.7603 264.449 40.8356C263.146 61.0204 277.471 66.8805 292.447 49.3003Z" fill="#D0A179"/>
<path d="M323.05 59.0671C313.283 47.3469 325.654 15.442 300.912 20.6509C301.716 20.9094 301.495 22.785 302.145 23.173C316.231 31.5821 296.909 67.1583 323.05 59.0671Z" fill="#455964"/>
<path d="M292.447 40.6292C277.596 38.259 272.748 32.6225 269.007 19.9997C264.874 26.9473 264.874 30.7217 263.798 36.9289C252.729 27.1621 258.589 16.7441 269.007 16.093C303.516 -1.48728 318.492 39.5335 292.447 54.5092V49.3002C303.561 48.1779 301.563 33.4669 292.447 40.6292Z" fill="#455964"/>
<path d="M293.098 68.8339V48.6491L279.425 58.416V68.8339C274.216 79.903 291.145 83.8097 293.098 68.8339Z" fill="#D0A179"/>
<circle r="1.88716" transform="matrix(-0.995437 -0.0954177 -0.0954177 0.995437 266.59 40.3339)" fill="#37464D"/>
<path d="M264.341 36.4983C264.396 36.7531 265.167 36.3217 266.187 36.1038C267.206 35.8859 268.087 35.9641 268.032 35.7093C267.978 35.4545 267.077 34.6447 266.058 34.8625C265.039 35.0804 264.287 36.2435 264.341 36.4983Z" fill="#37464D"/>
<circle cx="277.463" cy="40.3339" r="1.88716" transform="rotate(-5.47536 277.463 40.3339)" fill="#37464D"/>
<path d="M279.712 36.4983C279.657 36.7531 278.886 36.3217 277.866 36.1038C276.847 35.8859 275.966 35.9641 276.021 35.7093C276.075 35.4545 276.976 34.6447 277.995 34.8625C279.014 35.0804 279.766 36.2435 279.712 36.4983Z" fill="#37464D"/>
<path d="M271.583 52.2504C271.511 52.0047 273.45 51.7055 275.753 51.0334C278.057 50.3613 279.852 49.5708 279.924 49.8165C279.995 50.0621 278.693 51.4451 276.39 52.1172C274.087 52.7893 271.655 52.496 271.583 52.2504Z" fill="#886547"/>
<path d="M272.032 47.7061C272.975 46.2907 272.032 41.101 271.088 41.101C270.144 41.101 267.314 46.2907 267.786 47.7061C268.257 49.1214 271.088 49.1214 272.032 47.7061Z" fill="#886547"/>
<rect width="218.518" height="135.469" rx="10.0129" transform="matrix(-1 0 0 1 234.488 104.293)" fill="#E1E1E1"/>
<mask id="mask0" mask-type="alpha" maskUnits="userSpaceOnUse" x="24" y="110" width="202" height="124">
<rect width="200.848" height="122.511" transform="matrix(-1 0 0 1 225.653 110.772)" fill="#37464D"/>
</mask>
<g mask="url(#mask0)">
<rect width="220.023" height="138.321" transform="matrix(-1 0 0 1 231.74 104.961)" fill="#37464D"/>
<path d="M130.687 186.305C113.845 186.305 110.076 173.219 110.62 156.562H72.994C72.994 156.562 73.7107 186.305 58.6603 186.305C43.6099 186.305 53.6435 213.181 26.4094 213.181C-0.824707 213.181 21.0342 235.756 21.0342 235.756H210.598C210.598 235.756 196.981 213.897 171.538 213.181C146.096 212.464 147.529 186.305 130.687 186.305Z" fill="#42DFFE"/>
<path d="M125 201.561C98.8567 196.891 104.71 157.976 104.71 157.976L77.6526 157.976C77.6526 157.976 90.2722 180.547 75.0543 182.493C59.8363 184.439 80.5171 207.788 54.3734 210.512C28.2297 213.236 33.6926 239.698 33.6926 239.698H185.872C185.872 239.698 183.531 223.354 164.021 221.019C144.511 218.684 151.144 206.231 125 201.561Z" fill="#FFBC01"/>
<path d="M99.1531 180.213C90.3518 176.988 94.853 162.654 94.853 162.654H89.8362C89.8362 162.654 93.0613 202.43 83.386 202.072C73.7107 201.714 73.7107 217.481 60.0937 218.197C46.4766 218.914 39.3098 239.698 39.3098 239.698H162.58C162.58 239.698 143.946 226.081 127.821 226.081C111.695 226.081 119.937 207.089 107.395 207.089C94.853 207.089 107.954 183.438 99.1531 180.213Z" fill="#FFE083"/>
<path fill-rule="evenodd" clip-rule="evenodd" d="M201.215 137.929C201.779 137.929 202.236 138.386 202.236 138.95V141.389H203.385C204.004 141.389 204.506 141.891 204.506 142.51C204.506 143.129 204.004 143.631 203.385 143.631H202.236V146.224C202.236 146.788 201.779 147.245 201.215 147.245C200.651 147.245 200.194 146.788 200.194 146.224V143.631H199.177C198.557 143.631 198.056 143.129 198.056 142.51C198.056 141.891 198.557 141.389 199.177 141.389H200.194V138.95C200.194 138.386 200.651 137.929 201.215 137.929Z" fill="white"/>
<path fill-rule="evenodd" clip-rule="evenodd" d="M175.414 181.646C175.978 181.646 176.436 182.104 176.436 182.668V185.107H177.584C178.203 185.107 178.705 185.609 178.705 186.228C178.705 186.847 178.203 187.349 177.584 187.349H176.436V189.942C176.436 190.506 175.978 190.963 175.414 190.963C174.85 190.963 174.393 190.506 174.393 189.942V187.349H173.376C172.757 187.349 172.255 186.847 172.255 186.228C172.255 185.609 172.757 185.107 173.376 185.107H174.393V182.668C174.393 182.104 174.85 181.646 175.414 181.646Z" fill="white"/>
<path fill-rule="evenodd" clip-rule="evenodd" d="M144.597 155.846C145.161 155.846 145.618 156.303 145.618 156.867V159.306H146.767C147.386 159.306 147.888 159.808 147.888 160.427C147.888 161.046 147.386 161.548 146.767 161.548H145.618V164.141C145.618 164.705 145.161 165.163 144.597 165.163C144.033 165.163 143.576 164.705 143.576 164.141V161.548H142.558C141.939 161.548 141.438 161.046 141.438 160.427C141.438 159.808 141.939 159.306 142.558 159.306H143.576V156.867C143.576 156.303 144.033 155.846 144.597 155.846Z" fill="white"/>
<path fill-rule="evenodd" clip-rule="evenodd" d="M168.964 125.745C169.528 125.745 169.985 126.202 169.985 126.766V129.205H171.134C171.753 129.205 172.255 129.707 172.255 130.326C172.255 130.945 171.753 131.447 171.134 131.447H169.985V134.041C169.985 134.605 169.528 135.062 168.964 135.062C168.4 135.062 167.943 134.605 167.943 134.041V131.447H166.926C166.307 131.447 165.805 130.945 165.805 130.326C165.805 129.707 166.307 129.205 166.926 129.205H167.943V126.766C167.943 126.202 168.4 125.745 168.964 125.745Z" fill="white"/>
<path fill-rule="evenodd" clip-rule="evenodd" d="M207.665 203.864C208.229 203.864 208.687 204.321 208.687 204.885V207.324H209.835C210.454 207.324 210.956 207.826 210.956 208.445C210.956 209.064 210.454 209.566 209.835 209.566H208.687V212.159C208.687 212.723 208.229 213.181 207.665 213.181C207.101 213.181 206.644 212.723 206.644 212.159V209.566H205.627C205.008 209.566 204.506 209.064 204.506 208.445C204.506 207.826 205.008 207.324 205.627 207.324H206.644V204.885C206.644 204.321 207.101 203.864 207.665 203.864Z" fill="white"/>
<path fill-rule="evenodd" clip-rule="evenodd" d="M36.3772 181.646C36.9412 181.646 37.3985 182.104 37.3985 182.668V185.107H38.5471C39.1662 185.107 39.668 185.609 39.668 186.228C39.668 186.847 39.1662 187.349 38.5471 187.349H37.3985V189.942C37.3985 190.506 36.9412 190.963 36.3772 190.963C35.8132 190.963 35.3559 190.506 35.3559 189.942V187.349H34.3386C33.7196 187.349 33.2178 186.847 33.2178 186.228C33.2178 185.609 33.7196 185.107 34.3386 185.107H35.3559V182.668C35.3559 182.104 35.8132 181.646 36.3772 181.646Z" fill="white"/>
<path fill-rule="evenodd" clip-rule="evenodd" d="M47.1274 151.546C47.6915 151.546 48.1487 152.003 48.1487 152.567V155.006H49.2974C49.9164 155.006 50.4182 155.508 50.4182 156.127C50.4182 156.746 49.9164 157.248 49.2974 157.248H48.1487V159.841C48.1487 160.405 47.6915 160.863 47.1274 160.863C46.5634 160.863 46.1062 160.405 46.1062 159.841V157.248H45.0889C44.4698 157.248 43.968 156.746 43.968 156.127C43.968 155.508 44.4698 155.006 45.0889 155.006H46.1062V152.567C46.1062 152.003 46.5634 151.546 47.1274 151.546Z" fill="white"/>
</g>
<path fill-rule="evenodd" clip-rule="evenodd" d="M233.081 239.762H135.536H115.282H17.7372C17.7372 239.762 6.25175 252.426 5.07376 253.898C3.89577 255.371 5.07376 259.199 5.07376 259.199H115.282H135.536H245.744C245.744 259.199 246.922 255.371 245.744 253.898C244.566 252.426 233.081 239.762 233.081 239.762Z" fill="#C8C8C8"/>
<rect width="241.489" height="7.65695" rx="2.94498" transform="matrix(-1 0 0 1 246.268 253.898)" fill="#B3B3B3"/>
<path d="M112.815 137.681H68.2908C64.359 144.999 63.328 149.124 63.1534 156.518C63.1534 156.518 72.572 165.08 90.5529 165.08C108.534 165.08 117.952 156.518 117.952 156.518C117.511 149.16 116.88 145.034 112.815 137.681Z" fill="#FADAC5"/>
<path d="M119.91 77.033V123.365C119.91 123.365 137.685 131.086 140.977 126.368C144.269 121.649 129.155 75.8411 119.91 77.033Z" fill="#42DFFE"/>
<path d="M61.1964 77.033V123.365C61.1964 123.365 43.4207 131.086 40.1289 126.368C36.8371 121.649 51.951 75.8411 61.1964 77.033Z" fill="#42DFFE"/>
<mask id="mask1" mask-type="alpha" maskUnits="userSpaceOnUse" x="59" y="0" width="64" height="146">
<path d="M122.087 51.576C122.087 51.576 116.174 0.324707 90.5529 0.324707C64.9314 0.324707 59.0187 51.576 59.0187 51.576V140.852C59.0187 140.852 69.8586 145.812 90.5529 145.812C111.247 145.812 122.087 140.852 122.087 140.852V51.576Z" fill="#C4C4C4"/>
</mask>
<g mask="url(#mask1)">
<rect width="69.5186" height="197.505" transform="matrix(-1 0 0 1 124.954 0.324707)" fill="white"/>
<path d="M125.671 51.1234C97.8569 44.535 83.1261 44.305 58.6604 51.1234C63.5746 24.4618 70.698 10.0004 89.478 -15.1181C115.415 11.7214 119.274 25.8908 125.671 51.1234Z" fill="#FFBC01"/>
<mask id="mask2" mask-type="alpha" maskUnits="userSpaceOnUse" x="66" y="67" width="49" height="48">
<circle r="23.6507" transform="matrix(-1 0 0 1 90.553 91.3439)" fill="#C4C4C4"/>
</mask>
<g mask="url(#mask2)">
<circle r="21.924" transform="matrix(-1 0 0 1 90.5127 91.3841)" fill="#FADAC5"/>
<path fill-rule="evenodd" clip-rule="evenodd" d="M65.9467 90.2689H90.553V98.4333C89.8502 98.0268 89.0343 97.7941 88.164 97.7941C85.5253 97.7941 83.3861 99.9333 83.3861 102.572C83.3861 105.211 85.5253 107.35 88.164 107.35C89.0343 107.35 89.8502 107.117 90.553 106.711V114.875H65.9467V90.2689Z" fill="#FFE083"/>
<path d="M90.553 90.2689V89.373C91.0477 89.373 91.4488 89.7741 91.4488 90.2689H90.553ZM65.9467 90.2689H65.0509C65.0509 89.7741 65.452 89.373 65.9467 89.373V90.2689ZM90.553 98.4333H91.4488C91.4488 98.7535 91.2779 99.0494 91.0006 99.2093C90.7232 99.3693 90.3816 99.3691 90.1044 99.2088L90.553 98.4333ZM90.553 106.711L90.1044 105.935C90.3816 105.775 90.7232 105.775 91.0006 105.935C91.2779 106.095 91.4488 106.391 91.4488 106.711H90.553ZM90.553 114.875H91.4488C91.4488 115.37 91.0477 115.771 90.553 115.771V114.875ZM65.9467 114.875V115.771C65.452 115.771 65.0509 115.37 65.0509 114.875H65.9467ZM90.553 91.1647H65.9467V89.373H90.553V91.1647ZM89.6571 98.4333V90.2689H91.4488V98.4333H89.6571ZM90.1044 99.2088C89.5343 98.879 88.8726 98.69 88.164 98.69V96.8983C89.196 96.8983 90.1661 97.1746 91.0016 97.6579L90.1044 99.2088ZM88.164 98.69C86.02 98.69 84.282 100.428 84.282 102.572H82.4903C82.4903 99.4385 85.0305 96.8983 88.164 96.8983V98.69ZM84.282 102.572C84.282 104.716 86.02 106.454 88.164 106.454V108.246C85.0305 108.246 82.4903 105.706 82.4903 102.572H84.282ZM88.164 106.454C88.8726 106.454 89.5343 106.265 90.1044 105.935L91.0016 107.486C90.1661 107.969 89.196 108.246 88.164 108.246V106.454ZM89.6571 114.875V106.711H91.4488V114.875H89.6571ZM65.9467 113.979H90.553V115.771H65.9467V113.979ZM66.8426 90.2689V114.875H65.0509V90.2689H66.8426Z" fill="white"/>
<path fill-rule="evenodd" clip-rule="evenodd" d="M65.9467 66.7377H90.553V91.3439H82.3886C82.7951 92.0467 83.0278 92.8626 83.0278 93.7329C83.0278 96.3716 80.8886 98.5108 78.2498 98.5108C75.6111 98.5108 73.4719 96.3716 73.4719 93.7329C73.4719 92.8626 73.7046 92.0467 74.1111 91.3439H65.9467V66.7377Z" fill="#FFBC01"/>
<path d="M90.553 66.7377V65.8418C91.0477 65.8418 91.4488 66.2429 91.4488 66.7377H90.553ZM65.9467 66.7377H65.0509C65.0509 66.2429 65.452 65.8418 65.9467 65.8418V66.7377ZM90.553 91.3439H91.4488C91.4488 91.8387 91.0477 92.2398 90.553 92.2398V91.3439ZM82.3886 91.3439L81.6131 91.7925C81.4528 91.5153 81.4526 91.1737 81.6125 90.8963C81.7725 90.619 82.0684 90.4481 82.3886 90.4481V91.3439ZM74.1111 91.3439V90.4481C74.4313 90.4481 74.7272 90.619 74.8871 90.8963C75.0471 91.1737 75.0469 91.5153 74.8866 91.7925L74.1111 91.3439ZM65.9467 91.3439V92.2398C65.452 92.2398 65.0509 91.8387 65.0509 91.3439H65.9467ZM90.553 67.6335H65.9467V65.8418H90.553V67.6335ZM89.6571 91.3439V66.7377H91.4488V91.3439H89.6571ZM82.3886 90.4481H90.553V92.2398H82.3886V90.4481ZM82.1319 93.7329C82.1319 93.0243 81.9429 92.3626 81.6131 91.7925L83.164 90.8954C83.6473 91.7308 83.9236 92.7009 83.9236 93.7329H82.1319ZM78.2498 97.6149C80.3938 97.6149 82.1319 95.8769 82.1319 93.7329H83.9236C83.9236 96.8664 81.3834 99.4066 78.2498 99.4066V97.6149ZM74.3678 93.7329C74.3678 95.8769 76.1058 97.6149 78.2498 97.6149V99.4066C75.1163 99.4066 72.5761 96.8664 72.5761 93.7329H74.3678ZM74.8866 91.7925C74.5568 92.3626 74.3678 93.0243 74.3678 93.7329H72.5761C72.5761 92.7009 72.8524 91.7308 73.3356 90.8954L74.8866 91.7925ZM65.9467 90.4481H74.1111V92.2398H65.9467V90.4481ZM66.8426 66.7377V91.3439H65.0509V66.7377H66.8426Z" fill="white"/>
<path fill-rule="evenodd" clip-rule="evenodd" d="M115.159 66.7377H90.5529V74.9021C89.8502 74.4956 89.0342 74.2629 88.164 74.2629C85.5252 74.2629 83.3861 76.4021 83.3861 79.0408C83.3861 81.6796 85.5252 83.8188 88.164 83.8188C89.0342 83.8188 89.8502 83.5861 90.5529 83.1796V91.3439H98.7174C98.3108 90.6412 98.0781 89.8252 98.0781 88.955C98.0781 86.3162 100.217 84.177 102.856 84.177C105.495 84.177 107.634 86.3162 107.634 88.955C107.634 89.8252 107.401 90.6412 106.995 91.3439H115.159V66.7377Z" fill="#42DFFE"/>
<path d="M90.5529 66.7377H89.6571C89.6571 66.2429 90.0582 65.8418 90.5529 65.8418V66.7377ZM115.159 66.7377V65.8418C115.654 65.8418 116.055 66.2429 116.055 66.7377H115.159ZM90.5529 74.9021H91.4488C91.4488 75.2223 91.2779 75.5182 91.0005 75.6782C90.7232 75.8381 90.3815 75.8379 90.1044 75.6776L90.5529 74.9021ZM90.5529 83.1796L90.1044 82.4041C90.3815 82.2438 90.7232 82.2435 91.0005 82.4035C91.2779 82.5635 91.4488 82.8594 91.4488 83.1796H90.5529ZM90.5529 91.3439V92.2398C90.0582 92.2398 89.6571 91.8387 89.6571 91.3439H90.5529ZM98.7174 91.3439L99.4928 90.8954C99.6532 91.1725 99.6534 91.5142 99.4934 91.7915C99.3334 92.0689 99.0376 92.2398 98.7174 92.2398V91.3439ZM106.995 91.3439V92.2398C106.675 92.2398 106.379 92.0689 106.219 91.7915C106.059 91.5142 106.059 91.1725 106.219 90.8954L106.995 91.3439ZM115.159 91.3439H116.055C116.055 91.8387 115.654 92.2398 115.159 92.2398V91.3439ZM90.5529 65.8418H115.159V67.6336H90.5529V65.8418ZM89.6571 74.9021V66.7377H91.4488V74.9021H89.6571ZM90.1044 75.6776C89.5343 75.3478 88.8725 75.1588 88.164 75.1588V73.3671C89.1959 73.3671 90.1661 73.6434 91.0015 74.1267L90.1044 75.6776ZM88.164 75.1588C86.02 75.1588 84.2819 76.8968 84.2819 79.0408H82.4902C82.4902 75.9073 85.0304 73.3671 88.164 73.3671V75.1588ZM84.2819 79.0408C84.2819 81.1848 86.02 82.9229 88.164 82.9229V84.7146C85.0304 84.7146 82.4902 82.1744 82.4902 79.0408H84.2819ZM88.164 82.9229C88.8725 82.9229 89.5343 82.7339 90.1044 82.4041L91.0015 83.955C90.1661 84.4383 89.1959 84.7146 88.164 84.7146V82.9229ZM89.6571 91.3439V83.1796H91.4488V91.3439H89.6571ZM98.7174 92.2398H90.5529V90.4481H98.7174V92.2398ZM98.974 88.955C98.974 89.6635 99.163 90.3253 99.4928 90.8954L97.9419 91.7925C97.4586 90.9571 97.1823 89.9869 97.1823 88.955H98.974ZM102.856 85.0729C100.712 85.0729 98.974 86.811 98.974 88.955H97.1823C97.1823 85.8214 99.7225 83.2812 102.856 83.2812V85.0729ZM106.738 88.955C106.738 86.811 105 85.0729 102.856 85.0729V83.2812C105.99 83.2812 108.53 85.8214 108.53 88.955H106.738ZM106.219 90.8954C106.549 90.3253 106.738 89.6635 106.738 88.955H108.53C108.53 89.9869 108.254 90.9571 107.77 91.7925L106.219 90.8954ZM115.159 92.2398H106.995V90.4481H115.159V92.2398ZM116.055 66.7377V91.3439H114.263V66.7377H116.055Z" fill="white"/>
<path fill-rule="evenodd" clip-rule="evenodd" d="M66.1863 116.169L90.7919 115.999L90.7356 107.835C91.4412 108.236 92.2587 108.464 93.129 108.458C95.7677 108.439 97.892 106.285 97.8738 103.647C97.8556 101.008 95.7018 98.8837 93.0631 98.9019C92.1928 98.9079 91.3785 99.1462 90.6785 99.5576L90.6222 91.3934L82.458 91.4497C82.8694 92.1496 83.1077 92.9639 83.1137 93.8341C83.1319 96.4728 81.0075 98.6267 78.3688 98.6449C75.7301 98.6631 73.5763 96.5387 73.5581 93.9C73.5521 93.0298 73.7791 92.2123 74.1808 91.5068L66.0166 91.5631L66.1863 116.169Z" fill="#FFE083"/>
<path d="M90.7919 115.999L91.6878 115.993C91.6912 116.488 91.2929 116.891 90.7981 116.895L90.7919 115.999ZM66.1863 116.169L66.1925 117.065C65.9549 117.066 65.7264 116.973 65.5572 116.807C65.388 116.64 65.2921 116.412 65.2904 116.175L66.1863 116.169ZM90.7356 107.835L89.8398 107.841C89.8376 107.521 90.0064 107.224 90.2827 107.062C90.5589 106.9 90.9006 106.898 91.1789 107.056L90.7356 107.835ZM90.6785 99.5576L91.1325 100.33C90.8564 100.492 90.5148 100.495 90.2363 100.337C89.9578 100.179 89.7849 99.884 89.7827 99.5638L90.6785 99.5576ZM90.6222 91.3934L90.6161 90.4975C90.8536 90.4959 91.0822 90.5887 91.2513 90.7555C91.4205 90.9224 91.5164 91.1496 91.5181 91.3872L90.6222 91.3934ZM82.458 91.4497L81.6857 91.9036C81.5235 91.6275 81.5209 91.2859 81.679 91.0074C81.837 90.729 82.1317 90.556 82.4519 90.5538L82.458 91.4497ZM74.1808 91.5068L74.1746 90.6109C74.4948 90.6087 74.7918 90.7776 74.9537 91.0538C75.1156 91.3301 75.1177 91.6717 74.9593 91.95L74.1808 91.5068ZM66.0166 91.5631L65.1207 91.5692C65.1173 91.0745 65.5156 90.6706 66.0104 90.6672L66.0166 91.5631ZM90.7981 116.895L66.1925 117.065L66.1801 115.273L90.7858 115.103L90.7981 116.895ZM91.6315 107.829L91.6878 115.993L89.8961 116.005L89.8398 107.841L91.6315 107.829ZM91.1789 107.056C91.7512 107.382 92.4142 107.567 93.1228 107.562L93.1352 109.353C92.1032 109.36 91.1312 109.091 90.2924 108.613L91.1789 107.056ZM93.1228 107.562C95.2667 107.547 96.9928 105.797 96.978 103.653L98.7697 103.641C98.7913 106.774 96.2686 109.332 93.1352 109.353L93.1228 107.562ZM96.978 103.653C96.9632 101.509 95.2132 99.783 93.0692 99.7977L93.0569 98.0061C96.1904 97.9845 98.748 100.507 98.7697 103.641L96.978 103.653ZM93.0692 99.7977C92.3607 99.8026 91.7003 99.9962 91.1325 100.33L90.2246 98.7852C91.0567 98.2962 92.0249 98.0132 93.0569 98.0061L93.0692 99.7977ZM91.5181 91.3872L91.5744 99.5514L89.7827 99.5638L89.7264 91.3995L91.5181 91.3872ZM82.4519 90.5538L90.6161 90.4975L90.6284 92.2892L82.4642 92.3455L82.4519 90.5538ZM82.2179 93.8403C82.213 93.1318 82.0194 92.4714 81.6857 91.9036L83.2304 90.9958C83.7194 91.8278 84.0024 92.796 84.0095 93.828L82.2179 93.8403ZM78.3627 97.749C80.5066 97.7343 82.2326 95.9843 82.2179 93.8403L84.0095 93.828C84.0311 96.9614 81.5085 99.5191 78.375 99.5407L78.3627 97.749ZM74.4539 93.8939C74.4687 96.0378 76.2187 97.7638 78.3627 97.749L78.375 99.5407C75.2416 99.5623 72.6839 97.0397 72.6623 93.9062L74.4539 93.8939ZM74.9593 91.95C74.6335 92.5223 74.449 93.1853 74.4539 93.8939L72.6623 93.9062C72.6551 92.8743 72.9247 91.9023 73.4022 91.0635L74.9593 91.95ZM66.0104 90.6672L74.1746 90.6109L74.187 92.4026L66.0227 92.4589L66.0104 90.6672ZM65.2904 116.175L65.1207 91.5692L66.9124 91.5569L67.0821 116.163L65.2904 116.175Z" fill="white"/>
<circle r="22.7548" transform="matrix(-1 0 0 1 90.553 91.3439)" stroke="white" stroke-width="1.79172"/>
</g>
</g>
</g>
<defs>
<filter id="filter0_d" x="0.567746" y="0.324707" width="344.965" height="319.537" filterUnits="userSpaceOnUse" color-interpolation-filters="sRGB">
<feFlood flood-opacity="0" result="BackgroundImageFix"/>
<feColorMatrix in="SourceAlpha" type="matrix" values="0 0 0 0 0 0 0 0 0 0 0 0 0 0 0 0 0 0 127 0"/>
<feOffset dy="3.98255"/>
<feGaussianBlur stdDeviation="1.99127"/>
<feColorMatrix type="matrix" values="0 0 0 0 0 0 0 0 0 0 0 0 0 0 0 0 0 0 0.25 0"/>
<feBlend mode="normal" in2="BackgroundImageFix" result="effect1_dropShadow"/>
<feBlend mode="normal" in="SourceGraphic" in2="effect1_dropShadow" result="shape"/>
</filter>
</defs>
</svg>
