<svg width="375" height="812" viewBox="0 0 375 812" fill="none" xmlns="http://www.w3.org/2000/svg">
<path opacity="0.5" d="M242.028 542.582C146.656 502.364 55.0197 519.471 -0.00320435 541.607V812.011H375V631.575C339.519 593.71 293.302 564.204 242.028 542.582Z" fill="#FFE99B"/>
<path d="M256.173 47.3428C393.814 37.9903 422.627 -66.8048 419.828 -118.033L-83.0715 -79.8074C-90.509 1.1145 -82.2965 157.946 10.0537 137.895C125.491 112.832 84.1222 59.0334 256.173 47.3428Z" fill="#F5EAAF" fill-opacity="0.5"/>
<path d="M122.191 41.285C122.191 -24.3456 153.443 -62.8904 169.07 -73.9589C254.038 -86.6553 429.638 -84.702 452.297 24.6821C480.619 161.412 351.702 157.506 292.127 136.02C232.552 114.533 122.191 123.323 122.191 41.285Z" fill="#F9DAC4" fill-opacity="0.5"/>
</svg>
