<svg width="376" height="730" viewBox="0 0 376 730" fill="none" xmlns="http://www.w3.org/2000/svg">
<g filter="url(#filter0_d)">
<path d="M190.622 363.623L509.632 543.962L329.905 643.198L10.8951 462.858L190.622 363.623Z" fill="#C2F7FF"/>
<path d="M509.581 568.415L509.581 543.812L329.943 642.998L329.943 667.601L509.581 568.415Z" fill="#A6E2F8"/>
<path d="M11.0904 487.351L329.943 667.601L329.943 642.998L11.0903 462.748L11.0904 487.351Z" fill="#A6E2F8"/>
<path d="M97.2322 529.359L160.976 565.394L160.976 555.513L97.2322 519.478L97.2322 529.359Z" fill="#C2F7FF"/>
<path d="M65.8462 511.257L92.6453 526.406L92.6453 516.526L65.8462 501.376L65.8462 511.257Z" fill="#C2F7FF"/>
<path d="M334.929 393.532C300.939 393.532 293.332 357.07 294.431 310.66H218.497C218.497 310.66 219.943 393.532 189.569 393.532C159.196 393.532 179.445 468.416 124.483 468.416C69.5214 468.416 169.411 508.746 169.411 508.746L496.198 531.319C496.198 531.319 468.717 470.413 417.371 468.416C366.026 466.419 368.918 393.532 334.929 393.532Z" fill="#42DFFE"/>
<path d="M323.452 436.041C270.691 423.029 282.503 314.6 282.503 314.6L227.898 314.6C227.898 314.6 253.366 377.489 222.654 382.91C191.943 388.332 233.679 453.39 180.918 460.98C128.157 468.57 147.762 514.7 147.762 514.7L446.299 542.302C446.299 542.302 441.574 496.761 402.2 490.256C362.826 483.75 376.213 449.052 323.452 436.041Z" fill="#FFBC01"/>
<path d="M271.289 376.558C253.527 367.572 262.611 327.634 262.611 327.634H252.486C252.486 327.634 258.995 438.462 239.469 437.464C219.943 436.466 219.943 480.398 192.462 482.395C164.981 484.391 160.21 526.065 160.21 526.065L399.292 542.302C399.292 542.302 361.687 504.361 329.143 504.361C296.6 504.361 313.233 451.442 287.922 451.442C262.611 451.442 289.051 385.544 271.289 376.558Z" fill="#FFE083"/>
<mask id="mask0" mask-type="alpha" maskUnits="userSpaceOnUse" x="41" y="333" width="443" height="342">
<path d="M197.806 380.024L483.908 541.812L327.463 628.193L41.3601 466.404L197.806 380.024Z" fill="#37464D"/>
</mask>
<g mask="url(#mask0)">
<path d="M190.623 375.53L509.633 555.869L329.906 655.105L10.8954 474.765L190.623 375.53Z" fill="#37464D"/>
<path d="M334.929 393.532C300.94 393.532 293.333 357.07 294.431 310.66H218.497C218.497 310.66 219.944 393.532 189.57 393.532C159.196 393.532 179.445 468.416 124.484 468.416C69.5219 468.416 26.5293 531.319 26.5293 531.319H496.199C496.199 531.319 468.718 470.413 417.372 468.416C366.026 466.419 368.919 393.532 334.929 393.532Z" fill="#42DFFE"/>
<path d="M323.452 436.041C270.691 423.029 282.503 314.6 282.503 314.6L227.898 314.6C227.898 314.6 253.366 377.489 222.655 382.91C191.943 388.332 233.679 453.39 180.918 460.98C128.157 468.57 68.2031 542.302 68.2031 542.302H446.299C446.299 542.302 441.574 496.761 402.2 490.256C362.826 483.75 376.213 449.052 323.452 436.041Z" fill="#FFBC01"/>
<path d="M271.29 376.558C253.527 367.572 262.611 327.634 262.611 327.634H252.487C252.487 327.634 258.995 438.462 239.47 437.464C219.944 436.466 219.944 480.398 192.463 482.395C164.982 484.391 150.518 542.302 150.518 542.302L360.569 648.685L399.292 542.302C399.292 542.302 361.687 504.361 329.144 504.361C296.601 504.361 313.234 451.442 287.923 451.442C262.611 451.442 289.052 385.544 271.29 376.558Z" fill="#FFE083"/>
</g>
<path d="M304.934 289.844H210.98C202.684 305.286 200.508 313.991 200.139 329.593C200.139 329.593 220.014 347.661 257.957 347.661C295.9 347.661 315.774 329.593 315.774 329.593C314.843 314.066 313.511 305.361 304.934 289.844Z" fill="#FADAC5"/>
<path d="M319.904 161.867V259.635C319.904 259.635 357.414 275.929 364.36 265.971C371.306 256.014 339.414 159.352 319.904 161.867Z" fill="#42DFFE"/>
<path d="M196.01 161.867V259.635C196.01 259.635 158.5 275.929 151.554 265.971C144.608 256.014 176.5 159.352 196.01 161.867Z" fill="#42DFFE"/>
<mask id="mask1" mask-type="alpha" maskUnits="userSpaceOnUse" x="191" y="0" width="134" height="308">
<path d="M324.499 108.149C324.499 108.149 312.023 0 257.957 0C203.891 0 191.414 108.149 191.414 108.149V296.537C191.414 296.537 214.288 307.003 257.957 307.003C301.625 307.003 324.499 296.537 324.499 296.537V108.149Z" fill="#C4C4C4"/>
</mask>
<g mask="url(#mask1)">
<rect width="146.696" height="416.769" transform="matrix(-1 0 0 1 330.549 0)" fill="white"/>
<path d="M332.061 107.194C273.369 93.2911 242.285 92.8056 190.658 107.194C201.028 50.9333 216.06 20.4173 255.688 -32.5869C310.42 24.0489 318.562 53.9488 332.061 107.194Z" fill="#FFBC01"/>
<mask id="mask2" mask-type="alpha" maskUnits="userSpaceOnUse" x="208" y="142" width="100" height="100">
<circle r="49.9068" transform="matrix(-1 0 0 1 257.957 192.066)" fill="#C4C4C4"/>
</mask>
<g mask="url(#mask2)">
<circle r="46.2634" transform="matrix(-1 0 0 1 257.872 192.15)" fill="#FADAC5"/>
<path fill-rule="evenodd" clip-rule="evenodd" d="M206.034 189.797H257.957V207.026C256.474 206.168 254.752 205.677 252.916 205.677C247.348 205.677 242.834 210.191 242.834 215.759C242.834 221.327 247.348 225.841 252.916 225.841C254.752 225.841 256.474 225.35 257.957 224.492V241.72H206.034V189.797Z" fill="#FFE083"/>
<path d="M257.957 189.797V187.907C259.001 187.907 259.847 188.753 259.847 189.797H257.957ZM206.034 189.797H204.143C204.143 188.753 204.99 187.907 206.034 187.907V189.797ZM257.957 207.026H259.847C259.847 207.701 259.487 208.325 258.902 208.663C258.316 209.001 257.595 209 257.01 208.662L257.957 207.026ZM257.957 224.492L257.01 222.856C257.595 222.517 258.316 222.517 258.902 222.855C259.487 223.192 259.847 223.816 259.847 224.492H257.957ZM257.957 241.72H259.847C259.847 242.764 259.001 243.611 257.957 243.611V241.72ZM206.034 241.72V243.611C204.99 243.611 204.143 242.764 204.143 241.72H206.034ZM257.957 191.688H206.034V187.907H257.957V191.688ZM256.067 207.026V189.797H259.847V207.026H256.067ZM257.01 208.662C255.807 207.966 254.411 207.567 252.916 207.567V203.786C255.093 203.786 257.141 204.369 258.904 205.389L257.01 208.662ZM252.916 207.567C248.392 207.567 244.724 211.235 244.724 215.759H240.943C240.943 209.147 246.304 203.786 252.916 203.786V207.567ZM244.724 215.759C244.724 220.283 248.392 223.951 252.916 223.951V227.731C246.304 227.731 240.943 222.371 240.943 215.759H244.724ZM252.916 223.951C254.411 223.951 255.807 223.552 257.01 222.856L258.904 226.129C257.141 227.148 255.093 227.731 252.916 227.731V223.951ZM256.067 241.72V224.492H259.847V241.72H256.067ZM206.034 239.83H257.957V243.611H206.034V239.83ZM207.924 189.797V241.72H204.143V189.797H207.924Z" fill="white"/>
<path fill-rule="evenodd" clip-rule="evenodd" d="M206.034 140.142H257.957V192.066H240.729C241.587 193.549 242.078 195.27 242.078 197.107C242.078 202.675 237.564 207.189 231.995 207.189C226.427 207.189 221.913 202.675 221.913 197.107C221.913 195.27 222.404 193.549 223.262 192.066H206.034V140.142Z" fill="#FFBC01"/>
<path d="M257.957 140.142V138.252C259.001 138.252 259.847 139.098 259.847 140.142H257.957ZM206.034 140.142H204.143C204.143 139.098 204.99 138.252 206.034 138.252V140.142ZM257.957 192.066H259.847C259.847 193.11 259.001 193.956 257.957 193.956V192.066ZM240.729 192.066L239.093 193.012C238.754 192.427 238.754 191.706 239.091 191.121C239.429 190.536 240.053 190.175 240.729 190.175V192.066ZM223.262 192.066V190.175C223.938 190.175 224.562 190.536 224.9 191.121C225.237 191.706 225.237 192.427 224.898 193.012L223.262 192.066ZM206.034 192.066V193.956C204.99 193.956 204.143 193.11 204.143 192.066H206.034ZM257.957 142.033H206.034V138.252H257.957V142.033ZM256.067 192.066V140.142H259.847V192.066H256.067ZM240.729 190.175H257.957V193.956H240.729V190.175ZM240.187 197.107C240.187 195.612 239.788 194.215 239.093 193.012L242.365 191.119C243.385 192.882 243.968 194.929 243.968 197.107H240.187ZM231.995 205.299C236.52 205.299 240.187 201.631 240.187 197.107H243.968C243.968 203.719 238.608 209.079 231.995 209.079V205.299ZM223.804 197.107C223.804 201.631 227.471 205.299 231.995 205.299V209.079C225.383 209.079 220.023 203.719 220.023 197.107H223.804ZM224.898 193.012C224.203 194.215 223.804 195.612 223.804 197.107H220.023C220.023 194.929 220.606 192.882 221.626 191.119L224.898 193.012ZM206.034 190.175H223.262V193.956H206.034V190.175ZM207.924 140.142V192.066H204.143V140.142H207.924Z" fill="white"/>
<path fill-rule="evenodd" clip-rule="evenodd" d="M309.88 140.142H257.957V157.371C256.474 156.513 254.752 156.022 252.916 156.022C247.347 156.022 242.834 160.536 242.834 166.104C242.834 171.672 247.347 176.186 252.916 176.186C254.752 176.186 256.474 175.695 257.957 174.838V192.066H275.185C274.327 190.583 273.836 188.861 273.836 187.025C273.836 181.456 278.35 176.942 283.918 176.942C289.487 176.942 294.001 181.456 294.001 187.025C294.001 188.861 293.51 190.583 292.652 192.066H309.88V140.142Z" fill="#42DFFE"/>
<path d="M257.957 140.142H256.066C256.066 139.098 256.913 138.252 257.957 138.252V140.142ZM309.88 140.142V138.252C310.924 138.252 311.771 139.098 311.771 140.142H309.88ZM257.957 157.371H259.847C259.847 158.046 259.487 158.671 258.901 159.008C258.316 159.346 257.595 159.345 257.01 159.007L257.957 157.371ZM257.957 174.838L257.01 173.201C257.595 172.863 258.316 172.862 258.901 173.2C259.487 173.538 259.847 174.162 259.847 174.838H257.957ZM257.957 192.066V193.956C256.913 193.956 256.066 193.11 256.066 192.066H257.957ZM275.185 192.066L276.821 191.119C277.16 191.704 277.16 192.425 276.823 193.01C276.485 193.596 275.861 193.956 275.185 193.956V192.066ZM292.652 192.066V193.956C291.976 193.956 291.352 193.596 291.014 193.01C290.677 192.425 290.677 191.704 291.015 191.119L292.652 192.066ZM309.88 192.066H311.771C311.771 193.11 310.924 193.956 309.88 193.956V192.066ZM257.957 138.252H309.88V142.033H257.957V138.252ZM256.066 157.371V140.142H259.847V157.371H256.066ZM257.01 159.007C255.807 158.311 254.411 157.912 252.916 157.912V154.132C255.093 154.132 257.14 154.715 258.903 155.734L257.01 159.007ZM252.916 157.912C248.392 157.912 244.724 161.58 244.724 166.104H240.943C240.943 159.492 246.303 154.132 252.916 154.132V157.912ZM244.724 166.104C244.724 170.628 248.392 174.296 252.916 174.296V178.077C246.303 178.077 240.943 172.716 240.943 166.104H244.724ZM252.916 174.296C254.411 174.296 255.807 173.897 257.01 173.201L258.903 176.474C257.14 177.494 255.093 178.077 252.916 178.077V174.296ZM256.066 192.066V174.838H259.847V192.066H256.066ZM275.185 193.956H257.957V190.175H275.185V193.956ZM275.727 187.025C275.727 188.52 276.126 189.916 276.821 191.119L273.549 193.012C272.529 191.249 271.946 189.202 271.946 187.025H275.727ZM283.918 178.833C279.394 178.833 275.727 182.5 275.727 187.025H271.946C271.946 180.412 277.306 175.052 283.918 175.052V178.833ZM292.11 187.025C292.11 182.5 288.443 178.833 283.918 178.833V175.052C290.531 175.052 295.891 180.412 295.891 187.025H292.11ZM291.015 191.119C291.711 189.916 292.11 188.52 292.11 187.025H295.891C295.891 189.202 295.308 191.249 294.288 193.012L291.015 191.119ZM309.88 193.956H292.652V190.175H309.88V193.956ZM311.771 140.142V192.066H307.99V140.142H311.771Z" fill="white"/>
<path fill-rule="evenodd" clip-rule="evenodd" d="M206.539 244.45L258.461 244.092L258.343 226.864C259.831 227.712 261.557 228.191 263.393 228.178C268.961 228.14 273.444 223.595 273.405 218.027C273.367 212.459 268.822 207.976 263.254 208.014C261.417 208.027 259.699 208.53 258.222 209.398L258.103 192.17L240.875 192.289C241.744 193.766 242.246 195.484 242.259 197.32C242.297 202.889 237.815 207.434 232.247 207.472C226.678 207.51 222.134 203.028 222.095 197.46C222.082 195.623 222.562 193.898 223.409 192.409L206.181 192.528L206.539 244.45Z" fill="#FFE083"/>
<path d="M258.461 244.092L260.352 244.079C260.355 244.58 260.159 245.063 259.807 245.42C259.455 245.776 258.976 245.979 258.474 245.982L258.461 244.092ZM206.539 244.45L206.552 246.341C205.508 246.348 204.656 245.507 204.649 244.463L206.539 244.45ZM258.343 226.864L256.452 226.877C256.447 226.201 256.804 225.575 257.387 225.233C257.97 224.891 258.691 224.887 259.278 225.221L258.343 226.864ZM258.222 209.398L259.18 211.028C258.597 211.37 257.876 211.376 257.289 211.042C256.701 210.708 256.336 210.087 256.332 209.411L258.222 209.398ZM258.103 192.17L258.09 190.28C259.134 190.272 259.986 191.113 259.994 192.157L258.103 192.17ZM240.875 192.289L239.246 193.247C238.903 192.664 238.898 191.943 239.231 191.356C239.565 190.768 240.187 190.403 240.862 190.398L240.875 192.289ZM223.409 192.409L223.396 190.519C224.072 190.514 224.698 190.871 225.04 191.454C225.382 192.036 225.386 192.757 225.052 193.345L223.409 192.409ZM206.181 192.528L204.291 192.541C204.284 191.497 205.124 190.645 206.168 190.638L206.181 192.528ZM258.474 245.982L206.552 246.341L206.526 242.56L258.448 242.202L258.474 245.982ZM260.233 226.851L260.352 244.079L256.571 244.105L256.452 226.877L260.233 226.851ZM259.278 225.221C260.486 225.909 261.885 226.298 263.38 226.288L263.406 230.069C261.228 230.084 259.177 229.515 257.407 228.507L259.278 225.221ZM263.38 226.288C267.904 226.257 271.546 222.564 271.515 218.04L275.296 218.014C275.341 224.626 270.018 230.023 263.406 230.069L263.38 226.288ZM271.515 218.04C271.484 213.516 267.791 209.873 263.267 209.905L263.241 206.124C269.853 206.078 275.25 211.402 275.296 218.014L271.515 218.04ZM263.267 209.905C261.772 209.915 260.378 210.324 259.18 211.028L257.264 207.768C259.02 206.736 261.063 206.139 263.241 206.124L263.267 209.905ZM259.994 192.157L260.112 209.385L256.332 209.411L256.213 192.183L259.994 192.157ZM240.862 190.398L258.09 190.28L258.116 194.06L240.889 194.179L240.862 190.398ZM240.369 197.334C240.358 195.838 239.95 194.445 239.246 193.247L242.505 191.331C243.537 193.087 244.134 195.13 244.149 197.307L240.369 197.334ZM232.234 205.582C236.758 205.55 240.4 201.858 240.369 197.334L244.149 197.307C244.195 203.92 238.872 209.317 232.26 209.362L232.234 205.582ZM223.985 197.447C224.017 201.971 227.709 205.613 232.234 205.582L232.26 209.362C225.647 209.408 220.25 204.085 220.205 197.473L223.985 197.447ZM225.052 193.345C224.364 194.552 223.975 195.951 223.985 197.447L220.205 197.473C220.19 195.295 220.759 193.244 221.766 191.474L225.052 193.345ZM206.168 190.638L223.396 190.519L223.422 194.3L206.194 194.418L206.168 190.638ZM204.649 244.463L204.291 192.541L208.072 192.515L208.43 244.437L204.649 244.463Z" fill="white"/>
<circle r="48.0164" transform="matrix(-1 0 0 1 257.957 192.066)" stroke="white" stroke-width="3.78082"/>
</g>
</g>
<g filter="url(#filter1_d)">
<circle cx="288.849" cy="533.299" r="24.9271" transform="rotate(-17.604 288.849 533.299)" fill="white" fill-opacity="0.92"/>
<path d="M288.76 519.581C288.976 519.476 289.162 519.482 289.412 519.483C290.35 519.491 291.055 520.262 291.076 521.19C291.093 522.102 291.077 526.266 291.344 527.079C291.607 527.878 292.97 528.214 293.874 527.917L298.394 526.429C299.298 526.132 300.099 526.536 300.396 527.44C300.694 528.344 300.853 538.978 300.853 538.978C300.791 539.65 300.52 540.758 299.842 540.981L286.072 545.512L281.61 531.952L284.834 530.891C285.248 530.07 287.471 522.159 287.615 521.176C287.728 520.454 288.182 519.854 288.76 519.581ZM275.583 533.935L278.596 532.943L283.058 546.503L280.045 547.495L275.583 533.935Z" fill="#7ED1EF"/>
</g>
<g filter="url(#filter2_d)">
<circle cx="329.991" cy="354.337" r="14.8195" transform="rotate(43.026 329.991 354.337)" fill="white" fill-opacity="0.92"/>
<path d="M337.073 350.291C337.19 350.372 337.241 350.47 337.313 350.6C337.582 351.089 337.389 351.678 336.914 351.96C336.446 352.235 334.284 353.44 333.941 353.816C333.604 354.185 333.827 354.989 334.245 355.371L336.333 357.279C336.751 357.661 336.775 358.194 336.393 358.611C336.012 359.029 330.549 362.212 330.549 362.212C330.182 362.376 329.53 362.559 329.216 362.273L322.853 356.459L328.578 350.194L330.068 351.555C330.614 351.53 335.361 350.375 335.912 350.163C336.319 350.011 336.762 350.071 337.073 350.291ZM325.793 347.649L327.186 348.921L321.461 355.187L320.069 353.915L325.793 347.649Z" fill="#7ED1EF"/>
</g>
<g filter="url(#filter3_d)">
<circle cx="98.5188" cy="382.65" r="13.6769" transform="rotate(-33.4512 98.5188 382.65)" fill="white" fill-opacity="0.92"/>
<path d="M96.4164 375.423C96.5148 375.335 96.6136 375.31 96.7462 375.273C97.2425 375.137 97.7296 375.438 97.88 375.925C98.0255 376.404 98.6408 378.604 98.904 378.993C99.1623 379.375 99.9321 379.349 100.365 379.056L102.528 377.594C102.96 377.302 103.444 377.395 103.736 377.828C104.028 378.26 105.706 383.849 105.706 383.849C105.773 384.213 105.797 384.838 105.472 385.058L98.8826 389.513L94.496 383.024L96.0388 381.981C96.1346 381.485 96.1224 376.977 96.0513 376.436C96.0028 376.038 96.1524 375.654 96.4164 375.423ZM91.6121 384.973L93.054 383.999L97.4407 390.487L95.9988 391.462L91.6121 384.973Z" fill="#7ED1EF"/>
</g>
<g filter="url(#filter4_d)">
<circle cx="138.382" cy="471.223" r="18.5761" transform="rotate(-16.5259 138.382 471.223)" fill="white" fill-opacity="0.95"/>
<path d="M138.108 481.314C137.945 481.387 137.807 481.379 137.62 481.372C136.922 481.345 136.414 480.756 136.418 480.064C136.426 479.384 136.529 476.283 136.348 475.671C136.17 475.071 135.162 474.79 134.482 474.992L131.082 476.001C130.402 476.203 129.815 475.884 129.613 475.204C129.411 474.524 129.526 466.599 129.526 466.599C129.587 466.1 129.813 465.281 130.323 465.13L140.68 462.057L143.706 472.255L141.281 472.975C140.954 473.577 139.125 479.422 138.996 480.15C138.896 480.686 138.545 481.123 138.108 481.314ZM148.239 470.91L145.972 471.583L142.946 461.384L145.213 460.712L148.239 470.91Z" fill="#F5A159"/>
</g>
<g filter="url(#filter5_d)">
<circle cx="161.738" cy="322.472" r="26.4944" transform="rotate(-26.9517 161.738 322.472)" fill="white" fill-opacity="0.95"/>
<path fill-rule="evenodd" clip-rule="evenodd" d="M167.125 333.35C146.1 332.793 143.984 313.074 158.865 316.608C165.075 302.631 179.475 316.267 167.172 333.326L167.185 333.351C167.175 333.351 167.165 333.351 167.155 333.35C167.149 333.358 167.143 333.366 167.137 333.374L167.125 333.35Z" fill="#FF8D8D"/>
</g>
<g filter="url(#filter6_d)">
<circle cx="267.147" cy="432.597" r="18.7362" transform="rotate(30.0204 267.147 432.597)" fill="white" fill-opacity="0.95"/>
<path fill-rule="evenodd" clip-rule="evenodd" d="M262.774 439.983C255 427.303 265.875 418.448 269.516 428.633C280.196 426.927 277.662 440.721 262.806 440.002L262.796 440.019C262.792 440.013 262.788 440.007 262.785 440.001C262.778 440.001 262.771 440 262.764 440L262.774 439.983Z" fill="#FF8D8D"/>
</g>
</g>
<defs>
<filter id="filter0_d" x="-3.77946" y="0" width="528.23" height="729.197" filterUnits="userSpaceOnUse" color-interpolation-filters="sRGB">
<feFlood flood-opacity="0" result="BackgroundImageFix"/>
<feColorMatrix in="SourceAlpha" type="matrix" values="0 0 0 0 0 0 0 0 0 0 0 0 0 0 0 0 0 0 127 0"/>
<feOffset dy="4.32976"/>
<feGaussianBlur stdDeviation="2.16488"/>
<feColorMatrix type="matrix" values="0 0 0 0 0 0 0 0 0 0 0 0 0 0 0 0 0 0 0.25 0"/>
<feBlend mode="normal" in2="BackgroundImageFix" result="effect1_dropShadow"/>
<feBlend mode="normal" in="SourceGraphic" in2="effect1_dropShadow" result="shape"/>
</filter>
<filter id="filter1_d" x="261.256" y="508.365" width="55.1854" height="55.1854" filterUnits="userSpaceOnUse" color-interpolation-filters="sRGB">
<feFlood flood-opacity="0" result="BackgroundImageFix"/>
<feColorMatrix in="SourceAlpha" type="matrix" values="0 0 0 0 0 0 0 0 0 0 0 0 0 0 0 0 0 0 127 0"/>
<feOffset dy="2.65889"/>
<feGaussianBlur stdDeviation="1.32945"/>
<feColorMatrix type="matrix" values="0 0 0 0 0 0 0 0 0 0 0 0 0 0 0 0 0 0 0.25 0"/>
<feBlend mode="normal" in2="BackgroundImageFix" result="effect1_dropShadow"/>
<feBlend mode="normal" in="SourceGraphic" in2="effect1_dropShadow" result="shape"/>
</filter>
<filter id="filter2_d" x="313.591" y="339.517" width="32.8007" height="32.8007" filterUnits="userSpaceOnUse" color-interpolation-filters="sRGB">
<feFlood flood-opacity="0" result="BackgroundImageFix"/>
<feColorMatrix in="SourceAlpha" type="matrix" values="0 0 0 0 0 0 0 0 0 0 0 0 0 0 0 0 0 0 127 0"/>
<feOffset dy="1.58075"/>
<feGaussianBlur stdDeviation="0.790376"/>
<feColorMatrix type="matrix" values="0 0 0 0 0 0 0 0 0 0 0 0 0 0 0 0 0 0 0.25 0"/>
<feBlend mode="normal" in2="BackgroundImageFix" result="effect1_dropShadow"/>
<feBlend mode="normal" in="SourceGraphic" in2="effect1_dropShadow" result="shape"/>
</filter>
<filter id="filter3_d" x="83.3815" y="368.972" width="30.2745" height="30.2745" filterUnits="userSpaceOnUse" color-interpolation-filters="sRGB">
<feFlood flood-opacity="0" result="BackgroundImageFix"/>
<feColorMatrix in="SourceAlpha" type="matrix" values="0 0 0 0 0 0 0 0 0 0 0 0 0 0 0 0 0 0 127 0"/>
<feOffset dy="1.45887"/>
<feGaussianBlur stdDeviation="0.729433"/>
<feColorMatrix type="matrix" values="0 0 0 0 0 0 0 0 0 0 0 0 0 0 0 0 0 0 0.25 0"/>
<feBlend mode="normal" in2="BackgroundImageFix" result="effect1_dropShadow"/>
<feBlend mode="normal" in="SourceGraphic" in2="effect1_dropShadow" result="shape"/>
</filter>
<filter id="filter4_d" x="117.819" y="452.642" width="41.1249" height="41.1249" filterUnits="userSpaceOnUse" color-interpolation-filters="sRGB">
<feFlood flood-opacity="0" result="BackgroundImageFix"/>
<feColorMatrix in="SourceAlpha" type="matrix" values="0 0 0 0 0 0 0 0 0 0 0 0 0 0 0 0 0 0 127 0"/>
<feOffset dy="1.98145"/>
<feGaussianBlur stdDeviation="0.990727"/>
<feColorMatrix type="matrix" values="0 0 0 0 0 0 0 0 0 0 0 0 0 0 0 0 0 0 0.25 0"/>
<feBlend mode="normal" in2="BackgroundImageFix" result="effect1_dropShadow"/>
<feBlend mode="normal" in="SourceGraphic" in2="effect1_dropShadow" result="shape"/>
</filter>
<filter id="filter5_d" x="131.351" y="295.971" width="60.7756" height="60.7756" filterUnits="userSpaceOnUse" color-interpolation-filters="sRGB">
<feFlood flood-opacity="0" result="BackgroundImageFix"/>
<feColorMatrix in="SourceAlpha" type="matrix" values="0 0 0 0 0 0 0 0 0 0 0 0 0 0 0 0 0 0 127 0"/>
<feOffset dy="3.88771"/>
<feGaussianBlur stdDeviation="1.94386"/>
<feColorMatrix type="matrix" values="0 0 0 0 0 0 0 0 0 0 0 0 0 0 0 0 0 0 0.25 0"/>
<feBlend mode="normal" in2="BackgroundImageFix" result="effect1_dropShadow"/>
<feBlend mode="normal" in="SourceGraphic" in2="effect1_dropShadow" result="shape"/>
</filter>
<filter id="filter6_d" x="245.658" y="413.857" width="42.9772" height="42.9772" filterUnits="userSpaceOnUse" color-interpolation-filters="sRGB">
<feFlood flood-opacity="0" result="BackgroundImageFix"/>
<feColorMatrix in="SourceAlpha" type="matrix" values="0 0 0 0 0 0 0 0 0 0 0 0 0 0 0 0 0 0 127 0"/>
<feOffset dy="2.74929"/>
<feGaussianBlur stdDeviation="1.37465"/>
<feColorMatrix type="matrix" values="0 0 0 0 0 0 0 0 0 0 0 0 0 0 0 0 0 0 0.25 0"/>
<feBlend mode="normal" in2="BackgroundImageFix" result="effect1_dropShadow"/>
<feBlend mode="normal" in="SourceGraphic" in2="effect1_dropShadow" result="shape"/>
</filter>
</defs>
</svg>
