<svg width="301" height="442" viewBox="0 0 301 442" fill="none" xmlns="http://www.w3.org/2000/svg">
<g filter="url(#filter0_d)">
<rect x="140.931" y="370.866" width="11.9273" height="43.7334" fill="#37464D"/>
<rect x="91.6318" y="370.866" width="11.9273" height="43.7334" fill="#37464D"/>
<rect x="257.819" y="370.866" width="11.9273" height="43.7334" fill="#37464D"/>
<rect x="217.266" y="370.866" width="11.9273" height="43.7334" fill="#37464D"/>
<path d="M271.734 377.228H68.1749C44.3201 221.377 142.522 314.013 183.87 227.739L237.94 221.377C297.179 206.667 310.697 377.228 271.734 377.228Z" fill="#63C8B6"/>
<path d="M74.9971 329.518L94.2556 345.642C90.1387 352.879 82.7539 361.722 69.2082 377.846L54.4979 369.763L74.9971 329.518Z" fill="#AF8968"/>
<path d="M73.9883 373.206C67.909 367.081 57.2661 362.705 57.2661 362.705C44.5217 384.814 34.9917 391.439 11.4871 387.523C3.62997 392.392 10.1543 397.4 20.9893 400.309C31.8242 403.217 37.3736 400.313 46.6881 402.812C53.2435 406.139 59.6102 391.448 73.9883 373.206Z" fill="#D9A30E"/>
<path d="M111.113 285.961H205.339L184.665 320.152H115.884L90.0413 355.934C82.8849 350.898 67.459 340.349 63.0061 338.441C80.7392 310.814 88.9078 283.323 111.113 285.961Z" fill="#6DB4CE"/>
<path d="M172.159 280.551C190.78 279.355 194.965 234.69 195.026 220.023C195.058 212.456 194.57 203.447 192.24 200.468C180.337 203.444 170.075 208.886 167.698 259.366C162.762 257.986 153.968 262.119 129.402 267.099C132.9 271.166 134.685 275.29 132.185 280.551L172.159 280.551Z" fill="#02A3F4"/>
<path d="M89.8667 335.659L109.125 351.783C105.008 359.019 97.6236 367.862 84.0779 383.986L69.3676 375.904L89.8667 335.659Z" fill="#D0A179"/>
<path d="M85.9155 383.543C79.8363 377.418 69.1934 373.042 69.1934 373.042C56.4489 395.151 46.9189 401.776 23.4143 397.86C15.5572 402.729 22.0815 407.737 32.9165 410.646C43.7515 413.554 49.3008 410.65 58.6154 413.149C65.1707 416.476 71.5374 401.785 85.9155 383.543Z" fill="#FFBC01"/>
<path d="M81.2947 338.663C99.0278 311.036 107.196 283.545 129.401 286.182L179.894 271.075L192.616 265.508L223.627 286.182L202.953 320.374H134.172L108.33 356.156C101.174 351.12 85.7475 340.571 81.2947 338.663Z" fill="#7ED1EF"/>
<path d="M232.226 272.641C228.398 237.28 250.272 201.46 212.17 198.834C203.225 199.86 197.2 197.492 189.264 201.46C174.047 220.724 171.092 226.676 180.003 241.724L178.438 271.446C197.316 277.081 214.702 276.092 232.226 272.641Z" fill="white"/>
<path d="M175.918 277.436C177.906 278.231 190.628 275.05 190.628 275.05L195.002 286.182H138.546C138.546 286.182 148.485 272.267 149.678 271.075C150.871 269.882 165.979 268.689 167.171 269.882L167.171 269.882C168.364 271.075 173.93 276.641 175.918 277.436Z" fill="#D0A179"/>
<path d="M237.494 218.565C229.514 189.54 206.673 198.017 221.764 263.811C216.639 263.811 209.199 263.955 186.879 275.363C191.343 278.339 193.823 286.486 192.831 292.227L231.762 283.014C249.374 276.851 241.383 232.708 237.494 218.565Z" fill="#02A3F4"/>
<path d="M212.172 179.039C231.142 177.389 221.407 156.892 212.172 167.492L182.478 141.922C175.442 152.321 174.906 158.087 176.705 168.316C175.055 193.885 193.201 201.308 212.172 179.039Z" fill="#D0A179"/>
<path d="M250.937 191.411C238.565 176.564 254.236 136.149 222.894 142.747C223.913 143.075 223.633 145.451 224.456 145.942C242.299 156.594 217.823 201.66 250.937 191.411Z" fill="#455964"/>
<path d="M212.172 168.055C193.359 165.052 187.218 157.912 182.479 141.922C177.243 150.723 177.243 155.504 175.88 163.367C161.858 150.995 169.281 137.798 182.479 136.974C226.193 114.704 245.164 166.667 212.172 185.637V179.039C226.249 177.617 223.719 158.982 212.172 168.055Z" fill="#455964"/>
<path d="M212.996 203.783V178.214L195.675 190.586V203.783C189.077 217.805 210.522 222.753 212.996 203.783Z" fill="#D0A179"/>
<circle r="2.39055" transform="matrix(-0.995437 -0.0954177 -0.0954177 0.995437 179.416 167.681)" fill="#37464D"/>
<path d="M176.568 162.822C176.637 163.145 177.615 162.598 178.906 162.322C180.197 162.046 181.312 162.145 181.243 161.822C181.174 161.5 180.033 160.474 178.742 160.75C177.451 161.026 176.499 162.499 176.568 162.822Z" fill="#37464D"/>
<circle cx="193.191" cy="167.681" r="2.39055" transform="rotate(-5.47536 193.191 167.681)" fill="#37464D"/>
<path d="M196.039 162.822C195.97 163.145 194.992 162.598 193.701 162.322C192.41 162.046 191.294 162.145 191.363 161.822C191.432 161.5 192.573 160.474 193.864 160.75C195.155 161.026 196.108 162.499 196.039 162.822Z" fill="#37464D"/>
<path d="M181.51 185.109C181.362 184.601 183.875 184.419 186.793 183.568C189.71 182.716 191.927 181.518 192.076 182.026C192.224 182.534 190.79 185.026 187.872 185.878C184.955 186.729 181.658 185.617 181.51 185.109Z" fill="#886547"/>
<path d="M186.31 177.019C187.505 175.226 186.31 168.652 185.115 168.652C183.92 168.652 180.334 175.226 180.931 177.019C181.529 178.812 185.115 178.812 186.31 177.019Z" fill="#886547"/>
<path d="M72.5481 240.461H117.875L139.714 286.612H94.3875L72.5481 240.461Z" fill="#E1E1E1"/>
<rect x="132.297" y="279.987" width="42.0305" height="6.59302" fill="#E1E1E1"/>
<path fill-rule="evenodd" clip-rule="evenodd" d="M107.207 262.494C107.41 262.973 107.592 263.503 107.749 264.085C107.749 264.085 114.017 268.801 106.672 270.737C99.3265 272.672 101.855 264.993 101.855 264.993C100.765 259.758 103.224 257.997 105.422 259.869C104.982 260.212 104.736 260.776 104.827 261.366C104.961 262.234 105.773 262.83 106.641 262.696C106.847 262.664 107.038 262.594 107.207 262.494Z" fill="white"/>
<path d="M99.0208 257.031C100.74 256.847 101.674 256.88 102.501 259.001C100.814 259.072 99.8782 259.085 99.0208 257.031Z" fill="white"/>
<path d="M126.221 359.337H252.65C273.324 309.639 266.168 294.532 252.65 267.894C154.983 285.893 142.3 304.153 126.221 359.337Z" fill="#C1E9E1"/>
</g>
<g filter="url(#filter1_d)">
<circle cx="100.865" cy="121.2" r="30.9657" transform="rotate(-12.4432 100.865 121.2)" fill="white" fill-opacity="0.92"/>
<path d="M102.288 104.218C102.567 104.113 102.796 104.141 103.106 104.17C104.266 104.286 105.051 105.317 104.974 106.468C104.892 107.599 104.407 112.748 104.647 113.784C104.883 114.802 106.532 115.37 107.684 115.103L113.442 113.768C114.594 113.501 115.539 114.091 115.806 115.242C116.073 116.394 115.082 129.569 115.082 129.569C114.93 130.393 114.472 131.733 113.608 131.933L96.0641 136L92.0591 118.725L96.1668 117.773C96.7713 116.804 100.405 107.264 100.693 106.064C100.914 105.184 101.542 104.492 102.288 104.218ZM84.3813 120.505L88.2202 119.615L92.2251 136.89L88.3862 137.78L84.3813 120.505Z" fill="#7ED1EF"/>
</g>
<g filter="url(#filter2_d)">
<circle cx="123.233" cy="190.161" r="21.6194" transform="rotate(19.6279 123.233 190.161)" fill="white" fill-opacity="0.95"/>
<path d="M116.048 199.457C115.844 199.413 115.72 199.311 115.549 199.177C114.911 198.672 114.838 197.769 115.317 197.122C115.792 196.488 118.018 193.645 118.267 192.946C118.512 192.259 117.758 191.303 116.98 191.026L113.093 189.64C112.316 189.363 111.982 188.66 112.259 187.882C112.537 187.105 118.086 179.736 118.086 179.736C118.486 179.309 119.26 178.695 119.843 178.903L131.686 183.126L127.527 194.788L124.755 193.799C124.034 194.141 118.302 198.377 117.681 198.973C117.219 199.407 116.589 199.577 116.048 199.457ZM132.71 196.636L130.119 195.712L134.278 184.05L136.869 184.975L132.71 196.636Z" fill="#F5A159"/>
</g>
<g filter="url(#filter3_d)">
<circle cx="187.049" cy="59.1653" r="47.5306" transform="rotate(16.088 187.049 59.1653)" fill="white" fill-opacity="0.95"/>
<path fill-rule="evenodd" clip-rule="evenodd" d="M180.793 80.024C153.906 53.5503 175.276 25.1052 190.46 47.9584C215.717 37.2353 217.902 72.7464 180.883 80.0508L180.869 80.0986C180.856 80.0861 180.843 80.0737 180.831 80.0612C180.813 80.0646 180.796 80.068 180.779 80.0713L180.793 80.024Z" fill="#FF8D8D"/>
</g>
<g filter="url(#filter4_d)">
<circle cx="87.1889" cy="224.091" r="14.0304" transform="rotate(-18.9184 87.1889 224.091)" fill="white" fill-opacity="0.95"/>
<path fill-rule="evenodd" clip-rule="evenodd" d="M89.2085 230.194C78.2246 228.346 78.5747 217.849 86.116 220.804C90.4067 213.934 96.9486 222.15 89.2348 230.185L89.2395 230.199C89.2343 230.198 89.2291 230.197 89.2239 230.196C89.2203 230.2 89.2167 230.204 89.2131 230.208L89.2085 230.194Z" fill="#FF8D8D"/>
</g>
<defs>
<filter id="filter0_d" x="0.189064" y="131.525" width="299.96" height="309.588" filterUnits="userSpaceOnUse" color-interpolation-filters="sRGB">
<feFlood flood-opacity="0" result="BackgroundImageFix"/>
<feColorMatrix in="SourceAlpha" type="matrix" values="0 0 0 0 0 0 0 0 0 0 0 0 0 0 0 0 0 0 127 0"/>
<feOffset dy="6.36123"/>
<feGaussianBlur stdDeviation="3.18061"/>
<feColorMatrix type="matrix" values="0 0 0 0 0 0 0 0 0 0 0 0 0 0 0 0 0 0 0.25 0"/>
<feBlend mode="normal" in2="BackgroundImageFix" result="effect1_dropShadow"/>
<feBlend mode="normal" in="SourceGraphic" in2="effect1_dropShadow" result="shape"/>
</filter>
<filter id="filter1_d" x="60.6513" y="84.2898" width="80.4271" height="80.4271" filterUnits="userSpaceOnUse" color-interpolation-filters="sRGB">
<feFlood flood-opacity="0" result="BackgroundImageFix"/>
<feColorMatrix in="SourceAlpha" type="matrix" values="0 0 0 0 0 0 0 0 0 0 0 0 0 0 0 0 0 0 127 0"/>
<feOffset dy="3.30301"/>
<feGaussianBlur stdDeviation="1.6515"/>
<feColorMatrix type="matrix" values="0 0 0 0 0 0 0 0 0 0 0 0 0 0 0 0 0 0 0.25 0"/>
<feBlend mode="normal" in2="BackgroundImageFix" result="effect1_dropShadow"/>
<feBlend mode="normal" in="SourceGraphic" in2="effect1_dropShadow" result="shape"/>
</filter>
<filter id="filter2_d" x="93.3014" y="162.536" width="59.8629" height="59.8629" filterUnits="userSpaceOnUse" color-interpolation-filters="sRGB">
<feFlood flood-opacity="0" result="BackgroundImageFix"/>
<feColorMatrix in="SourceAlpha" type="matrix" values="0 0 0 0 0 0 0 0 0 0 0 0 0 0 0 0 0 0 127 0"/>
<feOffset dy="2.30607"/>
<feGaussianBlur stdDeviation="1.15304"/>
<feColorMatrix type="matrix" values="0 0 0 0 0 0 0 0 0 0 0 0 0 0 0 0 0 0 0.25 0"/>
<feBlend mode="normal" in2="BackgroundImageFix" result="effect1_dropShadow"/>
<feBlend mode="normal" in="SourceGraphic" in2="effect1_dropShadow" result="shape"/>
</filter>
<filter id="filter3_d" x="121.234" y="0.324707" width="131.63" height="131.63" filterUnits="userSpaceOnUse" color-interpolation-filters="sRGB">
<feFlood flood-opacity="0" result="BackgroundImageFix"/>
<feColorMatrix in="SourceAlpha" type="matrix" values="0 0 0 0 0 0 0 0 0 0 0 0 0 0 0 0 0 0 127 0"/>
<feOffset dy="6.9745"/>
<feGaussianBlur stdDeviation="3.48725"/>
<feColorMatrix type="matrix" values="0 0 0 0 0 0 0 0 0 0 0 0 0 0 0 0 0 0 0.25 0"/>
<feBlend mode="normal" in2="BackgroundImageFix" result="effect1_dropShadow"/>
<feBlend mode="normal" in="SourceGraphic" in2="effect1_dropShadow" result="shape"/>
</filter>
<filter id="filter4_d" x="67.3087" y="206.27" width="39.7605" height="39.7605" filterUnits="userSpaceOnUse" color-interpolation-filters="sRGB">
<feFlood flood-opacity="0" result="BackgroundImageFix"/>
<feColorMatrix in="SourceAlpha" type="matrix" values="0 0 0 0 0 0 0 0 0 0 0 0 0 0 0 0 0 0 127 0"/>
<feOffset dy="2.05878"/>
<feGaussianBlur stdDeviation="1.02939"/>
<feColorMatrix type="matrix" values="0 0 0 0 0 0 0 0 0 0 0 0 0 0 0 0 0 0 0.25 0"/>
<feBlend mode="normal" in2="BackgroundImageFix" result="effect1_dropShadow"/>
<feBlend mode="normal" in="SourceGraphic" in2="effect1_dropShadow" result="shape"/>
</filter>
</defs>
</svg>
