<svg width="376" height="410" viewBox="0 0 376 410" fill="none" xmlns="http://www.w3.org/2000/svg">
<g filter="url(#filter0_d)">
<path d="M138.842 147.872L365.912 276.237L237.983 346.872L10.9132 218.507L138.842 147.872Z" fill="#C2F7FF"/>
<path d="M143.956 159.546L347.602 274.706L236.245 336.192L32.5986 221.031L143.956 159.546Z" fill="#37464D"/>
<path d="M365.876 293.642L365.876 276.129L238.01 346.73L238.01 364.242L365.876 293.642Z" fill="#7ED1EF"/>
<path d="M11.0526 235.941L238.01 364.242L238.01 346.73L11.0525 218.428L11.0526 235.941Z" fill="#02A3F4"/>
<g style="mix-blend-mode:multiply">
<path d="M72.3679 265.842L117.74 291.491L117.74 284.458L72.3679 258.809L72.3679 265.842Z" fill="#02A3F4"/>
</g>
<g style="mix-blend-mode:multiply">
<path d="M50.0278 252.957L69.1031 263.74L69.1032 256.707L50.0278 245.924L50.0278 252.957Z" fill="#02A3F4"/>
</g>
<mask id="mask0" mask-type="alpha" maskUnits="userSpaceOnUse" x="35" y="103" width="309" height="239">
<path d="M146.387 136.27L343.095 247.471L232.272 308.662L35.5631 197.46L146.387 136.27Z" fill="#C4C4C4"/>
</mask>
<g mask="url(#mask0)">
<path d="M155.335 122.924L362.372 240.055L226.747 316.855L19.7087 199.725L155.335 122.924Z" fill="#FFF8F3"/>
<path d="M156.356 169.758C156.356 134.319 139.48 113.505 131.042 107.529C85.1613 100.673 -9.65961 101.728 -21.8946 160.793C-37.1883 234.625 32.4245 232.515 64.594 220.913C96.7635 209.311 156.356 214.057 156.356 169.758Z" fill="#F9DAC4" fill-opacity="0.5"/>
<path d="M233.414 296.663C236.223 298.378 237.799 298.276 240.608 296.663L325.901 250.449C327.32 248.908 327.828 248.043 325.901 246.502L316.57 241.552C314.146 240.025 312.787 240.502 310.363 241.552L224.189 286.979C221.128 288.567 220.588 289.518 224.189 291.449L233.414 296.663Z" fill="#FEEDDE"/>
<g filter="url(#filter1_d)">
<path d="M267.695 231.63C268.878 230.952 268.545 229.284 267.695 228.784L258.536 223.606C257.279 222.899 256.574 222.859 255.317 223.606L201.483 253.33C199.057 254.588 198.629 255.342 201.483 256.872L208.793 261.004C211.02 262.363 212.269 262.283 214.495 261.004L267.695 231.63Z" fill="#C9E8F3"/>
</g>
<g filter="url(#filter2_d)">
<path d="M169.218 174.108C170.402 173.431 170.068 171.763 169.218 171.262L160.059 166.084C158.802 165.377 158.097 165.338 156.84 166.084L103.007 195.808C100.58 197.067 100.153 197.82 103.007 199.35L110.317 203.482C112.543 204.842 113.792 204.761 116.018 203.482L169.218 174.108Z" fill="#C9E8F3"/>
</g>
<g filter="url(#filter3_d)">
<path d="M234.563 219.205C235.746 218.528 235.412 216.86 234.563 216.359L225.403 211.181C224.146 210.474 223.441 210.435 222.184 211.181L168.351 240.905C165.925 242.164 165.497 242.917 168.351 244.447L175.661 248.579C177.888 249.939 179.136 249.858 181.363 248.579L234.563 219.205Z" fill="white"/>
</g>
<g filter="url(#filter4_d)">
<path d="M213.395 207.241C214.578 206.563 214.244 204.895 213.395 204.395L204.235 199.217C202.978 198.51 202.273 198.47 201.016 199.217L147.183 228.941C144.757 230.199 144.329 230.953 147.183 232.482L154.493 236.615C156.72 237.974 157.968 237.894 160.195 236.615L213.395 207.241Z" fill="white"/>
</g>
<g filter="url(#filter5_d)">
<path d="M191.766 194.816C192.95 194.139 192.616 192.47 191.766 191.97L182.607 186.792C181.35 186.085 180.645 186.046 179.388 186.792L125.555 216.516C123.129 217.774 122.701 218.528 125.555 220.058L132.865 224.19C135.092 225.549 136.34 225.469 138.567 224.19L191.766 194.816Z" fill="white"/>
</g>
<ellipse cx="161.385" cy="252.31" rx="8.17023" ry="4.90214" fill="#FEEDDE"/>
<ellipse cx="173.701" cy="163.393" rx="8.17023" ry="4.90214" fill="#FEEDDE"/>
<ellipse cx="270.866" cy="219.629" rx="8.17023" ry="4.90214" fill="#FEEDDE"/>
<ellipse cx="295.377" cy="234.335" rx="8.17023" ry="4.90214" fill="#FEEDDE"/>
<ellipse cx="140.142" cy="240.872" rx="8.17023" ry="4.90214" fill="#FEEDDE"/>
<ellipse cx="120.534" cy="229.433" rx="8.17023" ry="4.90214" fill="#FEEDDE"/>
<path d="M146.387 136.27L158.78 143.276L47.9568 204.467L35.5631 197.46L146.387 136.27Z" fill="white"/>
<path d="M313.148 244.336L308.645 251.144L312.3 249.659L312.963 247.309L313.409 249.728L316.95 251.661L313.148 244.336Z" fill="#FBBA82" stroke="#FBBA82" stroke-width="0.460172" stroke-linecap="round" stroke-linejoin="round"/>
<g opacity="0.5">
<path d="M51.3753 192.505L56.9302 195.645L55.5012 196.434L49.9462 193.294L51.3753 192.505Z" fill="#556972"/>
<path d="M50.9847 194.366L55.1438 196.717L53.7147 197.506L49.5556 195.155L50.9847 194.366Z" fill="#556972"/>
<path d="M50.3035 196.062L53.3575 197.789L51.9284 198.578L48.8745 196.851L50.3035 196.062Z" fill="#556972"/>
<path d="M49.5633 197.725L51.5709 198.86L50.1419 199.65L48.1342 198.515L49.5633 197.725Z" fill="#556972"/>
<path d="M48.6957 199.317L49.7846 199.932L48.3555 200.721L47.2666 200.106L48.6957 199.317Z" fill="#556972"/>
<path d="M137.781 146.048L145.587 141.738L149.105 143.726L141.298 148.037L137.781 146.048Z" stroke="#556972" stroke-width="0.312396"/>
<path d="M144.359 142.83L146.972 144.307L141.436 147.363L138.823 145.886L144.359 142.83Z" fill="#556972"/>
<path d="M146.863 141.704L149.008 142.916L148.309 143.302L146.164 142.09L146.863 141.704Z" fill="#556972"/>
<path d="M64.5621 189.77C63.4116 189.31 62.0311 189.77 62.2612 191.151" stroke="#556972" stroke-width="0.690259" stroke-linecap="round"/>
<path d="M65.0222 188.752C63.4116 187.699 60.4205 188.62 61.1107 190.921" stroke="#556972" stroke-width="0.690259" stroke-linecap="round"/>
<path d="M65.4824 187.517C62.9724 186.432 59.2701 187.009 59.7303 190.46" stroke="#556972" stroke-width="0.690259" stroke-linecap="round"/>
<ellipse cx="64.1968" cy="191.123" rx="0.844164" ry="0.628224" transform="rotate(21.4027 64.1968 191.123)" fill="#556972"/>
</g>
</g>
<path d="M343.095 254.847L343.095 247.471L232.271 308.662L232.271 316.038L343.095 254.847Z" fill="#FEEDDE"/>
<path d="M35.5631 204.923L232.271 316.124L232.271 308.662L35.563 197.46L35.5631 204.923Z" fill="#FDD0A9"/>
<path d="M206.471 83.9831L199.287 85.1232L199.329 89.1202L209.451 88.7492C218.75 85.9884 216.986 79.5936 208.861 83.159C209.602 77.555 208.036 78.2953 206.471 83.9831Z" fill="#D0A179"/>
<path d="M180.257 90.2129L163.744 90.848C154.426 100.613 157.496 113.985 158.981 134.034C155.145 143.308 157.453 152.719 158.981 167.059H164.697L168.19 138.797C169.643 128.367 170.293 122.53 171.365 112.123C171.905 120.589 172.616 125.072 174.858 132.446C172.547 140.275 174.644 148.64 176.764 161.66L182.479 160.708C182.917 147.718 183.193 140.514 184.067 128.636C184.107 113.675 183.443 105.268 180.257 90.2129Z" fill="#7ED1EF"/>
<path d="M161.336 104.932L159.089 98.4385L153.442 101.049L158.535 109.805C165.349 116.709 170.16 112.142 163.189 106.652C168.482 104.668 167.091 103.635 161.336 104.932Z" fill="#D0A179"/>
<path d="M158.028 164.201C161.155 163.093 163.321 163.464 165.991 164.201C165.361 170.153 164.224 173.49 165.332 179.443C167.105 188.969 157.393 191.509 158.663 178.808C159.203 173.409 159.381 170.227 158.028 164.201Z" fill="#FFBC01"/>
<path d="M175.194 158.167C178.431 157.415 182.796 158.167 182.796 158.167C182.425 167.985 184.175 172.096 192.64 175.632C194.205 178.828 191.053 179.125 186.925 177.855C182.796 176.585 181.582 174.502 178.033 173.409C175.215 173.152 176.147 167.059 175.194 158.167Z" fill="#FFBC01"/>
<path d="M176.128 67.0322C180.717 64.3858 184.138 70.4566 189.783 83.2269C194.911 83.1557 197.854 83.5951 203.12 84.4971C202.185 86.4811 202.332 87.5937 203.12 89.5778C196.809 90.3419 193.14 90.4754 186.29 90.2129C178.689 82.8733 177.589 77.2675 176.128 67.0322Z" fill="#02A3F4"/>
<path d="M160.469 95.4474C157.248 78.4211 154.84 65.4471 168.19 67.0321L176.575 66.6867C182.434 74.1034 184.005 77.751 180.574 83.5445L181.177 94.9873C173.909 97.1568 167.216 96.7758 160.469 95.4474Z" fill="white"/>
<path d="M157.504 71.1602C164.559 61.9666 171.475 68.3023 156.551 89.5778C159.277 93.9035 159.539 96.4706 160.362 101.009C157.926 101.265 156.766 102.182 154.963 104.82L150.2 94.976C146.658 87.7565 152.739 81.0832 157.504 71.1602Z" fill="#02A3F4"/>
<path d="M168.19 59.4111C160.886 58.776 164.634 50.8846 168.19 54.9655L179.621 45.1216C182.33 49.125 182.537 51.3448 181.844 55.283C182.479 65.1269 175.493 67.9848 168.19 59.4111Z" fill="#D0A179"/>
<path d="M153.265 64.1743C158.028 58.4585 151.995 42.8988 164.062 45.4392C163.669 45.5652 163.777 46.4799 163.46 46.6692C156.591 50.7702 166.014 68.1203 153.265 64.1743Z" fill="#455964"/>
<path d="M168.19 55.1824C175.432 54.0264 177.797 51.2776 179.621 45.1216C181.637 48.5099 181.637 50.3505 182.162 53.3778C187.56 48.6146 184.702 43.5339 179.621 43.2163C162.791 34.6426 155.488 54.648 168.19 61.9514V59.4111C162.77 58.8637 163.744 51.6894 168.19 55.1824Z" fill="#455964"/>
<path d="M167.872 68.9374V59.0935L174.54 63.8567V68.9374C177.081 74.3357 168.825 76.2409 167.872 68.9374Z" fill="#D0A179"/>
<circle cx="180.8" cy="55.0383" r="0.920345" transform="rotate(-5.47536 180.8 55.0383)" fill="#37464D"/>
<path d="M181.897 53.1678C181.87 53.292 181.494 53.0816 180.997 52.9754C180.5 52.8691 180.07 52.9072 180.097 52.783C180.123 52.6587 180.563 52.2637 181.06 52.37C181.557 52.4763 181.923 53.0435 181.897 53.1678Z" fill="#37464D"/>
<circle r="0.920345" transform="matrix(-0.995437 -0.0954177 -0.0954177 0.995437 175.497 55.0383)" fill="#37464D"/>
<path d="M174.401 53.1678C174.427 53.292 174.804 53.0816 175.301 52.9754C175.798 52.8691 176.227 52.9072 176.201 52.783C176.174 52.6587 175.735 52.2637 175.238 52.37C174.741 52.4763 174.374 53.0435 174.401 53.1678Z" fill="#37464D"/>
<path d="M179.994 61.7482C180.051 61.5527 179.084 61.4825 177.96 61.1547C176.837 60.827 175.984 60.3657 175.927 60.5612C175.869 60.7568 176.422 61.7163 177.545 62.044C178.668 62.3718 179.937 61.9438 179.994 61.7482Z" fill="#886547"/>
<path d="M178.146 58.6336C177.686 57.9434 178.146 55.4124 178.606 55.4124C179.067 55.4124 180.447 57.9434 180.217 58.6336C179.987 59.3239 178.606 59.3239 178.146 58.6336Z" fill="#886547"/>
<path d="M299.047 163.988L301.325 155.035L306.375 155.553L304.727 168.312C301.324 173.936 292.271 176.777 297.726 166.915C290.552 167.2 291.671 165.306 299.047 163.988Z" fill="#926743"/>
<path d="M250.16 136.831L257.566 142.035L255.344 146.496L244.236 140.548C235.349 132.37 240.8 126.16 247.938 134.6C250.16 127.909 251.507 129.595 250.16 136.831Z" fill="#926743"/>
<path d="M301.81 128.122C296.091 121.586 288.738 123.22 292.006 132.208C296.433 140.427 299.006 144.939 299.359 157.535H306.712C306.361 142.635 305.384 132.208 301.81 128.122Z" fill="#63C8B6"/>
<path d="M272.5 164.888C274.592 147.677 270.736 126.928 279.036 125.671L291.292 124.037C300.248 122.18 299.302 134.664 297.14 151.358L298.556 163.322C292.015 168.248 285.783 167.991 272.5 164.888Z" fill="#C1E9E1"/>
<path d="M277.712 138.61C286.7 128.806 279.346 121.453 272.81 128.806C268.725 133.402 264.64 145.146 256.47 140.244C254.811 141.142 253.135 144.544 253.202 145.963C253.202 145.963 262.189 153.317 266.274 150.866C270.359 148.415 277.059 139.264 277.712 138.61Z" fill="#63C8B6"/>
<path d="M281.487 119.952C273.704 120.648 275.28 113.876 276.585 103.612C279.116 106.236 279.541 107.651 279.853 110.148C282.491 107.422 288.024 108.514 282.305 114.233L288.841 119.135L290.475 124.854C287.674 127.626 285.855 127.547 282.305 125.671L281.487 119.952Z" fill="#926743"/>
<path d="M284.756 97.0756C289.47 96.3863 291.578 96.8032 292.926 101.161C299.518 105.135 293.743 115.867 288.841 119.952C286.39 119.135 285.573 116.684 282.304 114.233C284.756 111.782 285.573 106.88 279.854 110.148C279.036 105.246 271.683 101.161 274.134 99.5266L274.952 98.7096C272.5 95.4415 274.98 95.4565 276.586 96.2585C278.661 97.4506 281.044 97.6183 284.756 97.0756Z" fill="#F5A159"/>
<path d="M275.769 110.148C273.465 113.402 273.464 114.305 275.769 114.233V110.148Z" fill="#684A31"/>
<circle cx="277.813" cy="109.713" r="0.920345" fill="#37464D"/>
<path d="M278.665 108.084C278.626 108.205 278.272 107.959 277.787 107.806C277.303 107.653 276.871 107.65 276.91 107.529C276.948 107.408 277.423 107.056 277.908 107.21C278.392 107.363 278.703 107.962 278.665 108.084Z" fill="#37464D"/>
<path d="M276.016 116.093C275.918 115.877 276.391 115.922 276.854 115.712C277.316 115.501 277.594 115.115 277.692 115.331C277.79 115.546 277.842 116.5 277.38 116.711C276.917 116.921 276.114 116.308 276.016 116.093Z" fill="#684A31"/>
<path d="M290.928 230.278L292.109 224.531L297.371 227.057L297.011 232.349C294.569 233.228 292.83 232.626 290.928 230.278Z" fill="#926743"/>
<path d="M274.951 240.055V230.25L281.488 233.518L280.671 240.872L274.951 240.055Z" fill="#926743"/>
<path d="M291.618 229.127C291.963 230.278 295.53 231.889 297.37 230.048C298.981 234.419 295.377 237.604 291.292 233.518L285.573 226.982C283.939 222.897 286.066 221.185 291.292 223.714L294.56 226.982L292.974 227.94C292.539 227.517 291.273 227.977 291.618 229.127Z" fill="#37464D"/>
<path d="M281.488 238.421C283.38 244.41 282.925 247.82 275.916 245.774H265.295C258.759 245.774 260.393 240.872 266.112 239.238C270.311 238.817 272.265 238.495 274.282 237.604C277.254 239.63 279.358 239.844 281.488 238.421Z" fill="#37464D"/>
<path d="M297.828 162.437L273.317 164.071C272.524 193.589 272.448 209.234 274.592 235.8C278 237.123 279.6 236.999 281.488 235.969C283.862 218.638 285.804 207.268 284.756 199.203L287.207 178.778C288.366 196.318 289.541 206.234 292.079 227.287C294.379 228.616 296.083 228.863 298.061 228.207C299.778 211.577 301.57 203.469 297.828 195.075C299.855 181.039 302.202 170.916 297.828 162.437Z" fill="#02A3F4"/>
<path d="M117.065 204.211L116.113 197.86L110.397 197.225L110.079 204.211C113.242 205.535 114.884 205.876 117.065 204.211Z" fill="#FEEDDE"/>
<path d="M95.7897 209.61L96.1072 201.988L90.0739 202.306L89.7563 209.292C92.9191 210.615 93.6084 211.275 95.7897 209.61Z" fill="#FEEDDE"/>
<path d="M89.7566 207.069C91.0342 210.064 92.404 210.505 96.1075 208.974L97.3776 214.373C101.369 216.101 102.196 217.515 101.506 220.724C96.7116 223.985 91.9794 222.946 91.0267 218.183C90.7092 216.595 90.7092 215.008 89.7566 214.373C87.4458 213.168 87.7715 211.337 89.7566 207.069Z" fill="#455964"/>
<path d="M114.525 210.562C108.725 210.562 108.634 209.274 109.762 202.624C114.339 205.676 115.724 205.046 117.7 202.941C119.692 204.125 120.854 204.846 123.416 206.752C131.672 207.069 131.037 213.102 123.416 213.102C119.923 213.102 118.653 210.562 114.525 210.562Z" fill="#455964"/>
<path d="M124.458 114.001C125.569 109.495 126.943 107.455 129.025 103.579C125.234 95.4478 125.965 95.1031 129.311 97.4993C127.823 90.7136 128.307 89.1084 132.451 91.7092C135.745 93.8057 135.912 96.6766 135.02 103L129.882 121.817C128.454 126.739 124.7 125.31 119.606 119.791C119.638 116.252 120.829 114.908 123.031 112.553L124.458 114.001Z" fill="#FEEDDE"/>
<path d="M92.1335 135.022L115.832 136.173C116.888 148.427 117.88 155.072 117.7 167.376L116.43 198.813C113.739 199.516 112.391 199.377 110.079 198.813C107.93 185.838 106.193 177.829 108.174 170.552C106.43 163.278 105.548 158.876 104.681 148.641C103.676 157.615 102.912 162.897 101.188 172.774L96.4249 202.624C93.6825 203.801 92.2428 203.629 89.7565 202.624C89.0602 187.657 87.4692 176.308 91.0266 171.822C89.9587 155.794 89.4513 145.492 92.1335 135.022Z" fill="#63C8B6"/>
<path d="M119.923 120.697C120.829 116.067 121.751 114.049 124.369 111.806C118.694 103.15 115.535 97.7621 109.444 99.1041L110.079 110.853L119.923 120.697Z" fill="#FFBC01"/>
<path d="M116.523 138.013C116.523 122.771 122.146 98.469 108.809 99.1041L104.046 99.1041L91.9792 99.7392L90.709 113.711C92.4165 122.815 91.7921 127.863 91.213 136.403C100.242 139.635 106.707 140.772 116.523 138.013Z" fill="#FFE083"/>
<path d="M84.9609 125C88.0891 128.428 90.8098 133.77 92.8746 137.656C101.741 139.024 101.621 139.824 97.7694 141.273C104.237 143.808 105.302 145.103 100.837 147.101C97.2627 148.674 94.7833 147.217 90.0235 142.96L77.2381 128.228C76.0697 125.953 77.6574 119.919 80.1978 116.109C83.3732 116.744 86.4508 117.415 87.1837 120.555L84.9609 125Z" fill="#FEEDDE"/>
<path d="M101.823 84.1795V88.6251L100.871 95.9287C97.2694 93.0192 95.5697 91.2523 95.7898 86.7199C94.4147 81.675 94.5577 79.5501 98.3301 78.4637C101.402 73.993 105.337 74.7034 111.667 74.9707C115.478 71.7953 118.97 74.3356 116.43 78.1462C117.383 81.6392 114.566 85.4422 110.08 83.0228C108.227 84.2982 108.317 84.4908 105.709 83.483C105.676 85.7777 103.742 83.9371 101.823 84.1795Z" fill="#02A3F4"/>
<path d="M101.271 91.6755C93.968 91.0404 97.716 83.149 101.271 87.2299C101.506 80.0515 105.018 85.0936 112.937 80.369C115.832 82.7927 115.619 83.6092 114.926 87.5474C115.561 97.3913 108.575 100.249 101.271 91.6755Z" fill="#FEEDDE"/>
<path d="M100.954 101.202V91.358L107.622 96.1211V101.202C110.163 106.6 101.906 108.505 100.954 101.202Z" fill="#FEEDDE"/>
<circle cx="112.695" cy="87.7106" r="0.920345" transform="rotate(-5.47536 112.695 87.7106)" fill="#37464D"/>
<path d="M113.791 85.84C113.765 85.9643 113.388 85.7539 112.891 85.6476C112.394 85.5414 111.965 85.5795 111.991 85.4552C112.018 85.331 112.457 84.936 112.954 85.0423C113.451 85.1485 113.818 85.7158 113.791 85.84Z" fill="#37464D"/>
<circle r="0.920345" transform="matrix(-0.995437 -0.0954177 -0.0954177 0.995437 107.392 87.7106)" fill="#37464D"/>
<path d="M106.295 85.84C106.322 85.9643 106.698 85.7539 107.195 85.6476C107.692 85.5414 108.122 85.5795 108.095 85.4552C108.069 85.331 107.629 84.936 107.132 85.0423C106.635 85.1485 106.269 85.7158 106.295 85.84Z" fill="#37464D"/>
<path d="M112.077 93.7736C112.174 93.4422 111.167 93.5079 110.044 93.1801C108.92 92.8523 108.107 92.2552 108.01 92.5866C107.913 92.918 108.316 94.3885 109.439 94.7163C110.563 95.0441 111.981 94.105 112.077 93.7736Z" fill="#D7B496"/>
<path d="M109.965 90.4634C109.687 89.9537 109.965 88.0847 110.243 88.0847C110.521 88.0847 111.354 89.9537 111.215 90.4634C111.076 90.9731 110.243 90.9731 109.965 90.4634Z" fill="#D7B496"/>
<path d="M87.1837 121.507C83.3732 120.872 80.4047 119.849 79.8802 115.791C84.2689 106.418 87.3155 99.1326 93.5348 99.5966C99.5679 100.867 97.0276 109.123 94.8856 111.84L87.1837 121.507Z" fill="#FFBC01"/>
<path d="M212.951 155.901C205.168 156.597 206.743 149.825 208.049 139.561C210.58 142.185 211.005 143.6 211.317 146.097C213.955 143.371 219.487 144.463 213.768 150.182L220.304 155.084L221.938 160.803C219.011 162.222 217.21 162.342 213.768 161.62L212.951 155.901Z" fill="#FDA6AA"/>
<path d="M217.759 128.939C222.474 128.25 226.747 133.842 224.794 136.74C231.385 140.714 225.61 151.446 220.708 155.531C218.257 154.714 216.942 152.633 213.674 150.182C216.125 147.731 216.942 142.829 211.223 146.097C210.406 141.195 201.419 141.642 202.236 136.74C203.053 131.838 206.819 134.289 206.819 134.289C207.138 128.122 212.857 128.939 213.674 130.573C215.75 131.766 214.048 129.482 217.759 128.939Z" fill="#FFE083"/>
<path d="M207.233 146.097C204.928 149.351 204.928 150.254 207.233 150.182V146.097Z" fill="#B8676A"/>
<path d="M230.015 164.071C226.747 157.535 221.028 158.352 223.479 167.34C229.198 177.144 230.617 181.346 224.296 184.497L225.93 188.582C232.671 184.271 237.103 181.886 234.917 177.144L230.015 164.071Z" fill="#FDA6AA"/>
<path d="M225.03 264.862L225.93 259.663L221.028 257.212C218.451 256.508 216.703 256.123 216.125 258.029C218.109 261.801 219.95 264.862 225.03 264.862Z" fill="#FDA6AA"/>
<path d="M197.334 275.187C204.205 273.801 206.786 272.537 207.138 268.651L212.04 267.834L212.011 274.071C206.471 277.625 203.243 278.443 197.334 278.455C195.793 277.657 193.701 277.59 197.334 275.187Z" fill="#FDA6AA"/>
<path d="M212.04 270.285C211.223 277.638 195.7 279.272 197.334 275.187C192.661 277.924 192.671 279.024 198.151 280.089C204.687 280.906 208.772 276.821 212.857 275.187C213.426 273.238 213.237 272.166 212.04 270.285Z" fill="#63C8B6"/>
<path d="M219.831 256.968C209.987 255.063 224.713 269.308 225.348 262.957C228.206 268.673 222.807 268.884 221.537 267.085C219.533 264.247 218.302 262.529 215.822 259.147C213.916 256.606 214.309 253.747 219.831 256.968Z" fill="#63C8B6"/>
<path d="M228.381 192.667L203.87 195.935C200.515 218.598 201.644 224.969 203.053 237.604L206.321 269.467C208.494 270.355 209.826 270.494 212.857 268.65C214.439 251.807 216.133 240.28 212.857 235.97L216.943 210.642C216.851 218.39 215.891 222.935 217.76 230.25L221.028 259.663C223.368 261.223 224.598 261.135 226.747 260.48C228.547 240.711 229.405 230.185 226.747 226.982C228.783 209.981 229.171 202.374 228.381 192.667Z" fill="#37464D"/>
<path d="M203.871 197.569C203.053 165.705 203.871 160.803 212.858 159.986L221.028 159.169C228.492 158.346 230.019 162.25 225.93 180.412L230.015 194.301C225.911 198.548 212.038 199.46 203.871 197.569Z" fill="#C2F7FF"/>
<path d="M207.138 176.327C216.943 156.718 205.504 156.718 200.602 168.974C196.517 179.186 191.032 184.008 179.796 184.951C178.24 183.588 175.275 181.229 176.908 185.314C171.079 183.857 169.442 187.252 173.354 188.862C177.265 190.473 177.726 190.216 180.994 190.216C184.261 190.216 202.645 185.314 207.138 176.327Z" fill="#FDA6AA"/>
<circle cx="209.042" cy="146.613" r="0.920345" transform="rotate(-5.47536 209.042 146.613)" fill="#37464D"/>
<path d="M210.139 144.742C210.112 144.866 209.736 144.656 209.239 144.55C208.742 144.443 208.312 144.482 208.339 144.357C208.365 144.233 208.805 143.838 209.302 143.944C209.799 144.051 210.165 144.618 210.139 144.742Z" fill="#37464D"/>
<path d="M207.862 153.135C207.744 152.93 208.219 152.929 208.66 152.676C209.1 152.422 209.339 152.011 209.457 152.216C209.575 152.422 209.719 153.367 209.279 153.62C208.838 153.874 207.98 153.34 207.862 153.135Z" fill="#B8676A"/>
<g filter="url(#filter6_d)">
<path d="M267.689 67.7242C267.689 66.6979 268.259 65.7562 269.167 65.2794L303.22 47.4107C305.059 46.4459 307.264 47.7793 307.264 49.8555V69.7906C307.264 70.817 306.695 71.7586 305.786 72.2355L271.733 90.1042C269.895 91.0689 267.689 89.7355 267.689 87.6593V67.7242Z" fill="white"/>
</g>
<g filter="url(#filter7_d)">
<path d="M59.6914 63.5827C59.6914 62.5563 60.2607 61.6147 61.1695 61.1378L95.2223 43.2691C97.0607 42.3044 99.2662 43.6378 99.2662 45.714V65.6491C99.2662 66.6755 98.6969 67.6171 97.7881 68.094L63.7354 85.9627C61.8969 86.9274 59.6914 85.594 59.6914 83.5178V63.5827Z" fill="white"/>
</g>
<g filter="url(#filter8_d)">
<path d="M194.55 34.7603C194.55 33.7339 195.12 32.7923 196.028 32.3154L230.081 14.4467C231.92 13.482 234.125 14.8154 234.125 16.8916V36.8267C234.125 37.853 233.556 38.7947 232.647 39.2716L198.594 57.1403C196.756 58.105 194.55 56.7716 194.55 54.6954V34.7603Z" fill="#C9E8F3"/>
</g>
<g filter="url(#filter9_d)">
<path d="M211.548 107.321C211.548 106.296 212.116 105.356 213.023 104.878L236.491 92.5174C238.33 91.549 240.539 92.8823 240.539 94.9603V107.963C240.539 108.988 239.972 109.928 239.065 110.406L215.596 122.767C213.757 123.735 211.548 122.402 211.548 120.324V107.321Z" fill="white"/>
</g>
<ellipse cx="218.681" cy="111.323" rx="1.6106" ry="2.07078" transform="rotate(24.5094 218.681 111.323)" fill="#FBBA82"/>
<ellipse cx="226.298" cy="107.663" rx="1.6106" ry="2.07078" transform="rotate(24.5094 226.298 107.663)" fill="#FBBA82"/>
<ellipse cx="233.66" cy="103.982" rx="1.6106" ry="2.07078" transform="rotate(24.5094 233.66 103.982)" fill="#FBBA82"/>
<g filter="url(#filter10_d)">
<circle cx="210.113" cy="18.887" r="14.9034" transform="rotate(16.7276 210.113 18.887)" fill="white" fill-opacity="0.92"/>
<path d="M214.694 12.0841C214.836 12.1054 214.926 12.1708 215.049 12.2558C215.51 12.5764 215.598 13.1941 215.295 13.6595C214.996 14.1158 213.584 16.1658 213.442 16.6577C213.302 17.1406 213.862 17.7662 214.408 17.9242L217.142 18.714C217.688 18.872 217.947 19.3417 217.789 19.8883C217.631 20.435 214.124 25.739 214.124 25.739C213.867 26.0496 213.36 26.5053 212.95 26.3868L204.623 23.9805L206.993 15.7811L208.942 16.3446C209.424 16.079 213.189 12.9224 213.591 12.4859C213.89 12.1677 214.317 12.0244 214.694 12.0841ZM203.348 14.728L205.17 15.2546L202.801 23.4539L200.979 22.9274L203.348 14.728Z" fill="#7ED1EF"/>
</g>
<g filter="url(#filter11_d)">
<circle cx="61.7058" cy="57.0965" r="16.154" transform="rotate(-20.4428 61.7058 57.0965)" fill="white" fill-opacity="0.95"/>
<path fill-rule="evenodd" clip-rule="evenodd" d="M64.217 64.0585C51.5186 62.2681 51.5999 50.1767 60.37 53.3458C65.098 45.308 72.879 54.5636 64.2471 64.0476L64.2528 64.0636C64.2468 64.0627 64.2408 64.0619 64.2348 64.061C64.2308 64.0655 64.2267 64.0699 64.2227 64.0744L64.217 64.0585Z" fill="#FF8D8D"/>
</g>
<g filter="url(#filter12_d)">
<circle cx="289.365" cy="62.8231" r="11.2163" transform="rotate(28.8156 289.365 62.8231)" fill="white" fill-opacity="0.95"/>
<path fill-rule="evenodd" clip-rule="evenodd" d="M286.841 67.2992C282.028 59.8076 288.426 54.371 290.733 60.4209C297.104 59.2657 295.761 67.5534 286.86 67.3101L286.854 67.3203C286.852 67.3168 286.85 67.3133 286.847 67.3097C286.843 67.3096 286.839 67.3095 286.835 67.3094L286.841 67.2992Z" fill="#FF8D8D"/>
</g>
</g>
<defs>
<filter id="filter0_d" x="-0.131086" y="0.324707" width="377.191" height="408.96" filterUnits="userSpaceOnUse" color-interpolation-filters="sRGB">
<feFlood flood-opacity="0" result="BackgroundImageFix"/>
<feColorMatrix in="SourceAlpha" type="matrix" values="0 0 0 0 0 0 0 0 0 0 0 0 0 0 0 0 0 0 127 0"/>
<feOffset dy="3.68138"/>
<feGaussianBlur stdDeviation="1.84069"/>
<feColorMatrix type="matrix" values="0 0 0 0 0 0 0 0 0 0 0 0 0 0 0 0 0 0 0.25 0"/>
<feBlend mode="normal" in2="BackgroundImageFix" result="effect1_dropShadow"/>
<feBlend mode="normal" in="SourceGraphic" in2="effect1_dropShadow" result="shape"/>
</filter>
<filter id="filter1_d" x="199.124" y="205.889" width="71.8212" height="75.1893" filterUnits="userSpaceOnUse" color-interpolation-filters="sRGB">
<feFlood flood-opacity="0" result="BackgroundImageFix"/>
<feColorMatrix in="SourceAlpha" type="matrix" values="0 0 0 0 0 0 0 0 0 0 0 0 0 0 0 0 0 0 127 0"/>
<feOffset dx="0.920345" dy="0.920345"/>
<feGaussianBlur stdDeviation="0.460172"/>
<feColorMatrix type="matrix" values="0 0 0 0 0.941176 0 0 0 0 0.85098 0 0 0 0 0.784314 0 0 0 1 0"/>
<feBlend mode="normal" in2="BackgroundImageFix" result="effect1_dropShadow"/>
<feBlend mode="normal" in="SourceGraphic" in2="effect1_dropShadow" result="shape"/>
</filter>
<filter id="filter2_d" x="100.647" y="148.367" width="71.8212" height="75.1893" filterUnits="userSpaceOnUse" color-interpolation-filters="sRGB">
<feFlood flood-opacity="0" result="BackgroundImageFix"/>
<feColorMatrix in="SourceAlpha" type="matrix" values="0 0 0 0 0 0 0 0 0 0 0 0 0 0 0 0 0 0 127 0"/>
<feOffset dx="0.920345" dy="0.920345"/>
<feGaussianBlur stdDeviation="0.460172"/>
<feColorMatrix type="matrix" values="0 0 0 0 0.941176 0 0 0 0 0.85098 0 0 0 0 0.784314 0 0 0 1 0"/>
<feBlend mode="normal" in2="BackgroundImageFix" result="effect1_dropShadow"/>
<feBlend mode="normal" in="SourceGraphic" in2="effect1_dropShadow" result="shape"/>
</filter>
<filter id="filter3_d" x="165.991" y="193.464" width="71.8212" height="75.1893" filterUnits="userSpaceOnUse" color-interpolation-filters="sRGB">
<feFlood flood-opacity="0" result="BackgroundImageFix"/>
<feColorMatrix in="SourceAlpha" type="matrix" values="0 0 0 0 0 0 0 0 0 0 0 0 0 0 0 0 0 0 127 0"/>
<feOffset dx="0.920345" dy="0.920345"/>
<feGaussianBlur stdDeviation="0.460172"/>
<feColorMatrix type="matrix" values="0 0 0 0 0.941176 0 0 0 0 0.85098 0 0 0 0 0.784314 0 0 0 1 0"/>
<feBlend mode="normal" in2="BackgroundImageFix" result="effect1_dropShadow"/>
<feBlend mode="normal" in="SourceGraphic" in2="effect1_dropShadow" result="shape"/>
</filter>
<filter id="filter4_d" x="144.823" y="181.5" width="71.8212" height="75.1893" filterUnits="userSpaceOnUse" color-interpolation-filters="sRGB">
<feFlood flood-opacity="0" result="BackgroundImageFix"/>
<feColorMatrix in="SourceAlpha" type="matrix" values="0 0 0 0 0 0 0 0 0 0 0 0 0 0 0 0 0 0 127 0"/>
<feOffset dx="0.920345" dy="0.920345"/>
<feGaussianBlur stdDeviation="0.460172"/>
<feColorMatrix type="matrix" values="0 0 0 0 0.941176 0 0 0 0 0.85098 0 0 0 0 0.784314 0 0 0 1 0"/>
<feBlend mode="normal" in2="BackgroundImageFix" result="effect1_dropShadow"/>
<feBlend mode="normal" in="SourceGraphic" in2="effect1_dropShadow" result="shape"/>
</filter>
<filter id="filter5_d" x="123.195" y="169.075" width="71.8212" height="75.1893" filterUnits="userSpaceOnUse" color-interpolation-filters="sRGB">
<feFlood flood-opacity="0" result="BackgroundImageFix"/>
<feColorMatrix in="SourceAlpha" type="matrix" values="0 0 0 0 0 0 0 0 0 0 0 0 0 0 0 0 0 0 127 0"/>
<feOffset dx="0.920345" dy="0.920345"/>
<feGaussianBlur stdDeviation="0.460172"/>
<feColorMatrix type="matrix" values="0 0 0 0 0.941176 0 0 0 0 0.85098 0 0 0 0 0.784314 0 0 0 1 0"/>
<feBlend mode="normal" in2="BackgroundImageFix" result="effect1_dropShadow"/>
<feBlend mode="normal" in="SourceGraphic" in2="effect1_dropShadow" result="shape"/>
</filter>
<filter id="filter6_d" x="267.689" y="47.0908" width="41.4155" height="45.1741" filterUnits="userSpaceOnUse" color-interpolation-filters="sRGB">
<feFlood flood-opacity="0" result="BackgroundImageFix"/>
<feColorMatrix in="SourceAlpha" type="matrix" values="0 0 0 0 0 0 0 0 0 0 0 0 0 0 0 0 0 0 127 0"/>
<feOffset dx="0.920345" dy="0.920345"/>
<feGaussianBlur stdDeviation="0.460172"/>
<feColorMatrix type="matrix" values="0 0 0 0 0.941176 0 0 0 0 0.85098 0 0 0 0 0.784314 0 0 0 1 0"/>
<feBlend mode="normal" in2="BackgroundImageFix" result="effect1_dropShadow"/>
<feBlend mode="normal" in="SourceGraphic" in2="effect1_dropShadow" result="shape"/>
</filter>
<filter id="filter7_d" x="59.6914" y="42.9492" width="41.4155" height="45.1741" filterUnits="userSpaceOnUse" color-interpolation-filters="sRGB">
<feFlood flood-opacity="0" result="BackgroundImageFix"/>
<feColorMatrix in="SourceAlpha" type="matrix" values="0 0 0 0 0 0 0 0 0 0 0 0 0 0 0 0 0 0 127 0"/>
<feOffset dx="0.920345" dy="0.920345"/>
<feGaussianBlur stdDeviation="0.460172"/>
<feColorMatrix type="matrix" values="0 0 0 0 0.941176 0 0 0 0 0.85098 0 0 0 0 0.784314 0 0 0 1 0"/>
<feBlend mode="normal" in2="BackgroundImageFix" result="effect1_dropShadow"/>
<feBlend mode="normal" in="SourceGraphic" in2="effect1_dropShadow" result="shape"/>
</filter>
<filter id="filter8_d" x="194.55" y="14.1268" width="41.4155" height="45.1741" filterUnits="userSpaceOnUse" color-interpolation-filters="sRGB">
<feFlood flood-opacity="0" result="BackgroundImageFix"/>
<feColorMatrix in="SourceAlpha" type="matrix" values="0 0 0 0 0 0 0 0 0 0 0 0 0 0 0 0 0 0 127 0"/>
<feOffset dx="0.920345" dy="0.920345"/>
<feGaussianBlur stdDeviation="0.460172"/>
<feColorMatrix type="matrix" values="0 0 0 0 0.941176 0 0 0 0 0.85098 0 0 0 0 0.784314 0 0 0 1 0"/>
<feBlend mode="normal" in2="BackgroundImageFix" result="effect1_dropShadow"/>
<feBlend mode="normal" in="SourceGraphic" in2="effect1_dropShadow" result="shape"/>
</filter>
<filter id="filter9_d" x="211.548" y="92.1956" width="30.8315" height="32.7336" filterUnits="userSpaceOnUse" color-interpolation-filters="sRGB">
<feFlood flood-opacity="0" result="BackgroundImageFix"/>
<feColorMatrix in="SourceAlpha" type="matrix" values="0 0 0 0 0 0 0 0 0 0 0 0 0 0 0 0 0 0 127 0"/>
<feOffset dx="0.920345" dy="0.920345"/>
<feGaussianBlur stdDeviation="0.460172"/>
<feColorMatrix type="matrix" values="0 0 0 0 0.941176 0 0 0 0 0.85098 0 0 0 0 0.784314 0 0 0 1 0"/>
<feBlend mode="normal" in2="BackgroundImageFix" result="effect1_dropShadow"/>
<feBlend mode="normal" in="SourceGraphic" in2="effect1_dropShadow" result="shape"/>
</filter>
<filter id="filter10_d" x="189.961" y="0.324707" width="40.304" height="40.304" filterUnits="userSpaceOnUse" color-interpolation-filters="sRGB">
<feFlood flood-opacity="0" result="BackgroundImageFix"/>
<feColorMatrix in="SourceAlpha" type="matrix" values="0 0 0 0 0 0 0 0 0 0 0 0 0 0 0 0 0 0 127 0"/>
<feOffset dy="1.5897"/>
<feGaussianBlur stdDeviation="0.794849"/>
<feColorMatrix type="matrix" values="0 0 0 0 0 0 0 0 0 0 0 0 0 0 0 0 0 0 0.25 0"/>
<feBlend mode="normal" in2="BackgroundImageFix" result="effect1_dropShadow"/>
<feBlend mode="normal" in="SourceGraphic" in2="effect1_dropShadow" result="shape"/>
</filter>
<filter id="filter11_d" x="38.5566" y="36.3177" width="46.2983" height="46.2983" filterUnits="userSpaceOnUse" color-interpolation-filters="sRGB">
<feFlood flood-opacity="0" result="BackgroundImageFix"/>
<feColorMatrix in="SourceAlpha" type="matrix" values="0 0 0 0 0 0 0 0 0 0 0 0 0 0 0 0 0 0 127 0"/>
<feOffset dy="2.37039"/>
<feGaussianBlur stdDeviation="1.18519"/>
<feColorMatrix type="matrix" values="0 0 0 0 0 0 0 0 0 0 0 0 0 0 0 0 0 0 0.25 0"/>
<feBlend mode="normal" in2="BackgroundImageFix" result="effect1_dropShadow"/>
<feBlend mode="normal" in="SourceGraphic" in2="effect1_dropShadow" result="shape"/>
</filter>
<filter id="filter12_d" x="272.486" y="47.5895" width="33.759" height="33.759" filterUnits="userSpaceOnUse" color-interpolation-filters="sRGB">
<feFlood flood-opacity="0" result="BackgroundImageFix"/>
<feColorMatrix in="SourceAlpha" type="matrix" values="0 0 0 0 0 0 0 0 0 0 0 0 0 0 0 0 0 0 127 0"/>
<feOffset dy="1.64585"/>
<feGaussianBlur stdDeviation="0.822924"/>
<feColorMatrix type="matrix" values="0 0 0 0 0 0 0 0 0 0 0 0 0 0 0 0 0 0 0.25 0"/>
<feBlend mode="normal" in2="BackgroundImageFix" result="effect1_dropShadow"/>
<feBlend mode="normal" in="SourceGraphic" in2="effect1_dropShadow" result="shape"/>
</filter>
</defs>
</svg>
